<svg width="759" height="236" viewBox="0 0 759 236" fill="none" xmlns="http://www.w3.org/2000/svg">
<g clip-path="url(#clip0_1002_96)">
<g clip-path="url(#clip1_1002_96)">
<path d="M0 236V4H210.036V60.1875H196.637V17.4125H13.3988V221.5L196.637 209.9V172.562H210.036V222.587L0 236Z" fill="#134391"/>
<path d="M175.271 96.8H195.55V150.45H211.484V96.8H232.125V81.575H175.271V96.8Z" fill="#134391"/>
<path d="M292.239 81.575L273.77 104.412L255.302 81.575H241.541V150.45H257.837V109.85L271.598 126.525H275.943L289.704 109.85V150.45H306V81.575H292.239Z" fill="#134391"/>
<path d="M138.696 81.575H111.174V150.45H137.247C154.992 150.45 173.46 138.487 173.46 116.012C173.46 92.0875 156.078 81.575 138.696 81.575ZM127.108 96.8H135.075C152.819 96.8 156.802 107.312 156.802 116.012C156.802 132.687 141.955 135.225 133.264 135.225H127.108V96.8Z" fill="#134391"/>
<path d="M89.084 129.788C85.4627 134.138 81.4793 136.675 76.7716 136.675C65.5456 136.675 57.5787 127.975 57.5787 115.65C57.5787 104.05 65.5456 95.35 76.7716 95.35C81.1172 95.35 84.7385 97.1625 88.3598 100.788L89.8083 102.238L102.483 92.8125L100.672 91C94.1538 83.75 86.5491 80.125 76.7716 80.125C55.7681 80.125 40.9207 94.9875 40.9207 116.013C40.9207 137.038 55.7681 151.538 76.7716 151.538C87.6355 151.538 96.3266 147.188 102.121 139.213L103.569 137.4L90.5325 127.975L89.084 129.788Z" fill="#134391"/>
</g>
<path d="M415.321 152V79.2727H430.697V109.28H461.912V79.2727H477.253V152H461.912V121.957H430.697V152H415.321ZM502.466 152H485.989L511.095 79.2727H530.911L555.982 152H539.504L521.287 95.892H520.719L502.466 152ZM501.436 123.413H540.357V135.416H501.436V123.413ZM625.486 104.734H609.932C609.648 102.722 609.068 100.935 608.192 99.3722C607.316 97.786 606.192 96.4366 604.819 95.3239C603.445 94.2112 601.859 93.3589 600.06 92.767C598.284 92.1752 596.355 91.8793 594.272 91.8793C590.507 91.8793 587.229 92.8144 584.435 94.6847C581.641 96.5312 579.475 99.2301 577.936 102.781C576.398 106.309 575.628 110.594 575.628 115.636C575.628 120.821 576.398 125.177 577.936 128.705C579.499 132.232 581.677 134.895 584.471 136.695C587.264 138.494 590.496 139.393 594.165 139.393C596.225 139.393 598.131 139.121 599.882 138.577C601.658 138.032 603.232 137.239 604.605 136.197C605.979 135.132 607.115 133.842 608.015 132.327C608.938 130.812 609.577 129.083 609.932 127.142L625.486 127.213C625.084 130.551 624.078 133.771 622.468 136.872C620.882 139.95 618.739 142.708 616.04 145.146C613.365 147.561 610.169 149.479 606.452 150.899C602.759 152.296 598.58 152.994 593.917 152.994C587.43 152.994 581.63 151.527 576.516 148.591C571.426 145.655 567.401 141.406 564.442 135.842C561.507 130.279 560.039 123.544 560.039 115.636C560.039 107.705 561.53 100.958 564.513 95.3949C567.496 89.8314 571.544 85.5937 576.658 82.6818C581.772 79.7462 587.525 78.2784 593.917 78.2784C598.131 78.2784 602.037 78.8703 605.635 80.054C609.257 81.2377 612.465 82.9659 615.259 85.2386C618.052 87.4877 620.325 90.2457 622.077 93.5128C623.853 96.7798 624.989 100.52 625.486 104.734ZM636.512 152V79.2727H651.889V111.339H652.848L679.02 79.2727H697.45L670.461 111.837L697.77 152H679.375L659.453 122.099L651.889 131.332V152H636.512ZM744.325 100.189C744.041 97.3243 742.822 95.099 740.667 93.5128C738.513 91.9266 735.589 91.1335 731.896 91.1335C729.386 91.1335 727.268 91.4886 725.539 92.1989C723.811 92.8854 722.485 93.8442 721.562 95.0753C720.663 96.3063 720.213 97.7031 720.213 99.2656C720.165 100.568 720.438 101.704 721.029 102.675C721.645 103.645 722.485 104.486 723.551 105.196C724.616 105.883 725.847 106.486 727.244 107.007C728.641 107.504 730.132 107.93 731.718 108.286L738.252 109.848C741.425 110.558 744.337 111.505 746.988 112.689C749.64 113.873 751.936 115.329 753.877 117.057C755.819 118.785 757.322 120.821 758.387 123.165C759.476 125.509 760.033 128.196 760.056 131.226C760.033 135.677 758.896 139.536 756.647 142.803C754.422 146.046 751.202 148.567 746.988 150.366C742.798 152.142 737.743 153.03 731.825 153.03C725.954 153.03 720.84 152.13 716.484 150.331C712.152 148.532 708.766 145.868 706.328 142.341C703.913 138.79 702.646 134.398 702.528 129.166H717.407C717.573 131.605 718.271 133.641 719.502 135.274C720.757 136.884 722.426 138.103 724.51 138.932C726.617 139.737 728.996 140.139 731.647 140.139C734.252 140.139 736.512 139.76 738.43 139.003C740.371 138.245 741.875 137.192 742.94 135.842C744.005 134.493 744.538 132.942 744.538 131.19C744.538 129.557 744.053 128.184 743.082 127.071C742.135 125.958 740.738 125.011 738.892 124.23C737.069 123.449 734.832 122.739 732.18 122.099L724.261 120.111C718.129 118.619 713.288 116.287 709.737 113.115C706.186 109.943 704.422 105.67 704.446 100.295C704.422 95.892 705.594 92.045 707.961 88.7543C710.352 85.4635 713.631 82.8949 717.798 81.0483C721.965 79.2017 726.699 78.2784 732.002 78.2784C737.4 78.2784 742.111 79.2017 746.136 81.0483C750.184 82.8949 753.333 85.4635 755.582 88.7543C757.831 92.045 758.991 95.8565 759.062 100.189H744.325Z" fill="#134391"/>
<rect x="361" width="12" height="235" fill="#134391"/>
</g>
<defs>
<clipPath id="clip0_1002_96">
<rect width="759" height="236" fill="white"/>
</clipPath>
<clipPath id="clip1_1002_96">
<rect width="306" height="232" fill="white" transform="translate(0 4)"/>
</clipPath>
</defs>
</svg>
