
<svg width="100%" height="100%" viewBox="0 0 5167 2373" fill="none" xmlns="http://www.w3.org/2000/svg">
    <path d="M3737.47,329.568c25.717,-18.775 62.206,-25.265 88.73,-47.793c3.637,-3.089 10.935,-4.009 15.927,-2.977c18.495,3.822 32.127,2.011 44.924,-15.862c10.218,-14.272 27.758,-16.283 43.542,-1.246c16.026,15.267 33.223,29.39 50.611,43.124c29.196,23.062 66.231,19.905 99.824,28.043c11.38,2.757 23.968,0.599 36.003,0.564c54.417,-0.156 101.58,16.975 139.053,57.747c28.844,31.382 64.629,54.992 94.724,85.249c32.366,32.542 73.689,39.739 120.272,29.387c1.807,0.169 3.529,0.424 4.986,0.774c31.888,-12.857 64.148,-2.249 95.211,0.928c49.093,5.023 94.576,1.805 138.215,-21.693c6.381,-3.436 13.874,-4.805 22.847,-7.633c15.095,-12.222 30.446,-15.233 47.177,-11.496c12.685,2.833 25.677,2.683 38.405,4.751c19.438,3.159 31.92,-4.612 38.663,-22.949c3.177,-8.641 7.959,-16.626 11.971,-24.928c10.171,-21.046 25.624,-33.486 50.163,-31.351c20.509,1.785 30.574,-7.741 38.856,-26.88c18.313,-42.327 37.849,-84.327 64.385,-124.798c53.709,-7.675 90.908,28.102 133.996,46.855c37.843,16.471 152.729,1351.22 63.792,1353.76c-45.396,1.297 -5234.51,44.502 -5244.71,48.625c-16.733,6.759 -40.067,-1383.9 6.122,-1364.87c22.845,9.417 93.991,33.576 118.106,36.78c40.084,5.326 83.491,15.311 121.911,-13.134c25.06,-18.553 57.3,-19.93 86.06,-29.629c14.997,-5.058 28.017,8.056 38.545,18.226c30.431,29.398 62.047,55.179 107.615,55.753c14.067,0.177 27.027,7.976 37.679,16.621c23.945,19.436 53.802,18.265 81.205,25.169c16.926,4.264 23.693,-10.742 31.206,-22.411c17.07,-26.513 24.907,-28.46 45.918,-4.669c18.485,20.93 39.69,26.965 66.408,26.322c38.766,-0.933 77.607,1.124 116.41,2.133c4.49,0.117 10.557,0.118 13.164,2.813c25.892,26.767 49.717,11.277 75.277,-1.291c24.521,-12.058 51.954,-17.2 72.965,-37.516c11.111,-10.742 21.934,1.328 30.824,9.489c16.231,14.9 29.529,33.122 51.857,40.782c16.84,5.776 31.454,4.94 42.269,-9.854c18.637,-25.496 44.671,-41.405 71.369,-56.214c16.571,-9.191 29.189,-22.513 42.965,-34.813c13.846,-12.364 29.231,-14.604 40.668,1.939c22.769,32.934 59.256,33.232 92.536,41.103c9.943,2.352 16.681,-6.022 24.024,-11.714c21.643,-16.776 42.906,-28.523 73.589,-19.215c22.017,6.68 40.266,-12.913 51.171,-29.807c19.474,-30.171 46.296,-42.878 75.879,-25.417c22.077,13.03 44.852,19.281 68.863,15.527c36.017,-5.631 64.67,19.587 99.37,19.706c34.176,0.117 66.303,-4.882 95.502,-22.73c30.242,-18.486 52.049,-19.27 77.358,5.285c24.858,24.118 53.9,48.738 82.567,58.976c64.441,23.014 105.775,81.028 170.421,100.688c23.831,7.248 47.155,16.143 70.841,23.887c26.705,8.73 45.663,-10.914 61.487,-24.115c35.051,-29.242 82.859,-31.886 116.821,-62.178c10.286,-9.175 25.614,-4.322 36.077,4.615c44.103,37.676 97.17,64.32 134.082,110.973c20.761,26.239 76.289,32.363 100.28,9.186c19.317,-18.662 44.515,-16.221 65.771,-26.709c34.992,-17.265 59.355,-46.47 86.666,-72.441c25.519,-24.268 44.974,-23.288 67.166,4.062c24.595,30.308 24.595,30.308 49.822,2.096c40.592,-45.392 90.311,-57.163 147.58,-35.714c19.606,7.343 40.816,8.528 59.959,1.094c39.384,-15.296 78.861,-24.194 121.624,-20.186c18.395,1.725 36.331,-7.236 49.677,-21.175c18.764,-19.598 41.761,-28.958 67.503,-22.262c42.208,10.979 84.706,-2.715 128.74,5.373c8.033,7.221 16.428,11.026 18.808,21.095c5.92,25.045 17.344,32.373 48.486,30.899c36.789,-34.811 82.119,-54.188 121.223,-82.736l0,-0Z" style="fill:#77828e;fill-rule:nonzero;"/>
</svg>
