
<svg width="100%" height="100%" viewBox="0 0 5167 2373" fill="none" xmlns="http://www.w3.org/2000/svg">
    <path d="M5161.41,2362.14c4.497,4.715 -5161.45,33.05 -5173.31,27.988c-25.353,-10.821 -41.01,-1823.9 2.866,-1822.64c79.348,2.288 150.098,36.843 225.124,54.976c89.109,21.537 174.48,55.277 258.961,90.654c118.37,49.569 236.426,99.894 354.407,150.385c44.05,18.851 87.548,38.998 131.218,58.732c8.525,3.852 16.921,8.036 24.3,15.093c1.32,-0.449 2.682,-0.891 4.086,-1.325c18.165,-5.672 31.735,0.949 46.893,9.92c6.678,4.196 11.576,7.105 18.49,10.743c39.632,18.03 79.056,31.154 118.247,50.538c12.084,17.211 27.285,24.285 45.729,26.365c27.505,3.103 50.343,18.841 75.344,28.718c54.58,21.56 106.157,52.402 167.343,53.257c43.394,0.607 86.403,5.78 129.431,10.898c11.108,1.321 21.624,4.418 34.538,7.573c44.496,3.397 85.188,11.514 126.191,24.035c39.525,12.069 79.512,20 114.313,44.218c11.828,8.231 27.684,6.702 39.97,-0.145c35.488,-19.777 72.939,-14.799 112.493,-10.823c1.72,2.22 3.32,4.449 4.8,6.69c5.628,-7.843 13.46,-6.055 22.496,-4.024c65.57,14.74 128.289,39.163 193.17,56.452c33.29,8.871 64.913,25.652 96.618,40.655c43.161,20.425 86.799,40.618 136.889,48.062c11.271,1.347 19.45,5.691 29.927,9.321c16.22,7.825 30.658,14.755 48.217,19.215c6.139,0.622 9.899,2.106 15.111,5.252c9.225,8.5 18.505,12.682 30.365,15.91c8.987,2.255 15.822,5.156 25.046,7.226c45.296,12.982 88.844,24.602 132.391,36.094c37.361,9.859 74.832,18.202 111.031,32.713c29.587,11.861 61.758,8.907 92.573,1.289c17.916,-4.429 35.734,-8.8 56.22,-10.738c11.5,0.012 20.884,0.247 32.357,0.77c41.034,13.851 82.174,9.776 122.204,14.547c69.164,8.243 135.679,23.706 196.75,58.534c35.98,20.519 72.122,40.772 112.704,57.037c45.444,32.606 87.766,66.34 143.643,79.974c7.46,1.425 12.735,2.895 18.751,7.673c16.313,14.299 32.455,25.443 50.503,37.311c8.244,4.364 12.647,11.121 22.163,13.178c6.656,2.345 10.769,5.537 17.26,8.235c11.889,3.516 15.958,18.082 31.126,14.732c3.244,-0.001 4.549,0.163 7.697,1.024c5.594,2.022 9.28,3.509 14.768,5.932c54.946,22.339 105.167,50.214 160.205,72.167c8.022,2.353 14.337,3.599 21.793,7.429c8.546,6.786 16.34,11.018 26.478,14.917c6.529,2.34 11.027,4.536 16.808,8.323c7.965,5.234 15.093,7.087 24.528,8.144c13.296,9.28 25.434,16.322 42.242,17.675c3.215,1.141 4.446,1.755 7.307,3.629c7.739,12.424 16.732,18.418 31.894,17.492c13.387,6.624 25.131,12.091 37.077,21.483c8.849,23.065 25.659,25.352 45.983,30.419c48.722,12.146 98.896,19.853 145.24,41.52c30.796,14.399 63.792,23.918 95.841,35.477c56.676,20.441 107.285,53.312 162.336,77.198c38.477,16.695 61.063,55.882 97.25,77.269c28.505,16.846 54.037,38.283 81.673,56.666c27.995,18.623 358.376,93.269 381.93,117.968Z" style="fill:#637180;fill-rule:nonzero;"/>
</svg>
