<?xml version="1.0" encoding="UTF-8" standalone="no"?>
<!DOCTYPE svg PUBLIC "-//W3C//DTD SVG 1.1//EN" "http://www.w3.org/Graphics/SVG/1.1/DTD/svg11.dtd">
<svg width="100%" height="100%" viewBox="0 0 1650 802" version="1.1" xmlns="http://www.w3.org/2000/svg" xmlns:xlink="http://www.w3.org/1999/xlink" xml:space="preserve" xmlns:serif="http://www.serif.com/" style="fill-rule:evenodd;clip-rule:evenodd;stroke-linejoin:round;stroke-miterlimit:2;">
    <path d="M1651,703L1651,802.984C1101.12,802.99 551.243,802.99 1,802.99C1,714.973 1,626.946 1.469,538.46C8.551,538 15.165,538 21.572,538L21.572,339.162C23.574,338.955 25.653,338.74 28.504,338.445L28.504,277.136C31.35,276.941 33.43,276.799 35.704,276.644L35.704,175.332C37.321,175.089 38.742,174.875 40.064,174.676L40.064,121.992C37.945,121.612 36.16,121.292 34.419,120.979C34.419,108.938 34.352,96.966 34.486,84.996C34.508,83.064 35.171,81.031 35.965,79.235C45.223,58.288 60.582,44.894 83.618,41.26C87.022,40.723 90.529,40.84 93.913,40.659C95.026,32.672 94.479,29.466 91.6,26.44C87.593,22.227 87.76,14.166 91.949,9.566C95.019,6.195 102.838,5.06 106.049,7.52C111.243,11.5 113.859,20.806 109.826,24.765C104.623,29.872 107.075,35.297 106.646,40.582C111.895,41.084 116.59,41.174 121.141,42.03C140.247,45.624 154.613,55.542 161.882,74.102C167.934,89.554 163.654,105.679 165.144,121.479C162.49,121.779 160.594,121.993 158.804,122.195L158.804,174.655C160.447,175.086 161.809,175.443 163.287,175.831L163.287,276.429C163.727,276.298 164.167,276.168 164.607,276.037C165.451,277.927 167.008,279.811 167.027,281.709C167.201,299.372 167.032,317.039 167.21,334.703C167.229,336.629 168.802,338.54 169.654,340.458C170.132,340.309 170.609,340.16 171.086,340.011L171.086,363.267L177.578,363.267L177.578,287.285C179.843,286.72 181.386,286.335 183.14,285.897L183.14,184.104C185.147,183.745 186.899,183.433 189.021,183.054L189.021,131.325C186.213,131.093 184.13,130.921 182.146,130.757C180.345,114.621 183.413,99.633 190.623,85.871C200.407,67.195 215.359,55.624 237.59,56.019C240.2,56.066 242.812,56.025 245.78,56.025C245.406,50.544 247.95,44.816 240.835,42.173C239.693,41.748 238.859,39.959 238.288,38.627C235.328,31.718 238.534,24.275 245.367,21.925C253.075,19.273 262.152,23.519 264.028,30.654C265.57,36.52 263.688,40.68 258.19,43.931C257.347,44.43 256.303,45.441 256.249,46.273C256.029,49.669 256.158,53.088 256.158,56.592C297.14,51.692 320.667,98.918 315.422,131.209C313.066,131.403 310.65,131.602 308.031,131.818L308.031,182.761C310.448,183.076 312.54,183.348 315.112,183.683L315.112,286.241C317.764,286.459 319.872,286.632 322.762,286.87L322.762,391.457C325.57,391.457 327.566,391.46 329.561,391.457C460.051,391.251 590.54,391.064 721.03,390.75C724.789,390.741 726.991,391.873 729.193,394.895C770.179,451.145 811.233,507.345 852.468,563.412C855.754,567.881 856.956,572.144 856.709,577.588C856.252,587.656 856.578,597.76 856.578,607.875L938.688,607.875L938.688,346.895C936.611,344.583 934.656,343.428 934.492,342.059C933.477,333.539 934.998,325.516 942.285,320.117C946.594,316.925 951.716,314.831 956.804,312.063C957.177,307.05 957.17,307.069 952.175,305.368C949.816,304.565 947.472,303.71 945.148,302.809C937.788,299.954 937.793,299.941 938.177,291.965C939.476,265.017 951.54,249.205 977.161,240.932C980.753,239.772 984.395,238.765 988.322,237.596L988.322,221.891C990.43,221.595 992.168,221.351 993.873,221.111L993.873,198.125C991.906,197.938 990.285,197.783 988.18,197.583C988.18,187.402 988.168,177.446 988.209,167.492C988.211,166.887 988.458,166.103 988.878,165.708C993.709,161.167 996.041,153.013 1005.46,154.893C1008.06,122.069 1010.63,89.667 1013.2,57.264C1013.89,57.13 1014.58,56.996 1015.28,56.862C1015.79,58.87 1016.63,60.857 1016.76,62.889C1018.28,86.497 1019.69,110.114 1021.16,133.725C1021.6,140.62 1022.17,147.506 1022.67,154.266C1028.68,154.619 1038.29,162.49 1038.56,167.821C1039.06,177.863 1038.7,187.947 1038.7,197.955C1036.29,198.16 1034.37,198.322 1032.42,198.487L1032.42,220.976C1034.03,221.314 1035.45,221.612 1037.25,221.991C1037.25,225.725 1037.48,229.389 1037.18,233.011C1036.91,236.337 1038.24,237.543 1041.37,238.381C1054.58,241.924 1066.42,248.067 1076.54,257.45C1084.63,264.951 1089.25,273.673 1089.15,285.065C1089.02,300.737 1089.32,300.702 1074.6,306.059C1072.33,306.884 1069.4,306.763 1069.23,310.761C1069.05,314.955 1072.06,315.087 1074.46,316.179C1086.74,321.751 1091.68,330.801 1089.45,343.908C1087.75,344.165 1085.99,344.43 1084.13,344.71C1084.04,345.743 1083.91,346.552 1083.9,347.362C1083.62,410.69 1083.38,474.018 1082.98,537.345C1082.96,540.544 1084.4,541.636 1086.81,542.797C1126.36,561.827 1165.86,580.943 1205.43,599.914C1207.87,601.084 1210.81,601.741 1213.52,601.752C1244.18,601.878 1274.84,601.832 1305.51,601.832L1310.01,601.832C1310.01,577.344 1310.03,553.688 1309.96,530.031C1309.95,528.841 1309.5,527.147 1308.64,526.546C1303.19,522.696 1304.69,517.421 1305.01,511.777L1315,511.777C1315,502.804 1314.84,494.321 1315.08,485.85C1315.17,482.63 1314.09,481.18 1311.07,480.203C1302.07,477.299 1293.17,474.087 1284.52,471.093L1284.52,461.193L1389.34,461.193C1392.3,449.603 1395.34,438.398 1397.95,427.094C1399.15,421.913 1401.85,420.216 1407.09,421.633C1408.03,424.275 1408.76,427.215 1410.09,429.851C1411.2,432.059 1410.1,435.766 1414.42,436.075C1418.61,436.375 1418.56,432.89 1419.83,430.683C1424.06,423.351 1427.93,415.809 1432.3,408.562C1436.03,402.383 1442.53,402.091 1446.42,408.125C1451.34,415.763 1455.54,423.872 1460.24,431.661C1461.11,433.108 1462.77,434.538 1464.32,434.916C1465.03,435.09 1466.71,432.854 1467.35,431.44C1468.44,429.034 1469.32,426.463 1469.81,423.87C1470.37,420.943 1472.17,420.86 1474.53,420.762C1477.13,420.653 1478.46,421.445 1479.03,424.1C1481.24,434.49 1483.96,444.787 1485.73,455.247C1486.46,459.533 1487.8,460.591 1491.97,460.589C1524.47,460.576 1556.97,460.818 1589.46,460.979C1591.21,460.988 1592.96,460.98 1594.65,460.98L1594.65,472.732C1583.86,475.935 1573.24,479.084 1562.99,482.126L1562.99,511.711L1576.9,511.711C1578.66,518.144 1578.8,523.27 1572.29,526.648C1570.9,527.366 1570.15,530.529 1570.17,532.555C1570.71,586.213 1571.4,639.87 1572.08,693.528C1572.09,694.628 1572.33,695.726 1572.63,698.125C1588.42,698.125 1604.07,698.083 1619.72,698.14C1630.38,698.178 1641.02,698.539 1651,703M1464.05,664.483C1464.22,639.997 1464.46,615.509 1464.42,591.023C1464.41,588.754 1463.11,585.865 1461.43,584.321C1450.23,573.995 1431.66,573.322 1418.93,582.03C1414.55,585.025 1412.72,588.208 1412.81,593.754C1413.22,619.569 1413.06,645.392 1413.1,671.212C1413.1,672.972 1413.1,674.732 1413.1,676.585L1464.05,676.585C1464.05,672.724 1464.05,669.099 1464.05,664.483M1498.61,675.51L1534.38,675.51C1534.38,656.333 1534.44,637.861 1534.26,619.392C1534.24,617.983 1532.74,616.173 1531.43,615.257C1517.38,605.418 1506.69,605.785 1493.38,616.755C1491.77,618.077 1490.5,620.765 1490.45,622.852C1490.13,636.341 1490.18,649.839 1490.12,663.334C1490.11,667.261 1490.12,671.189 1490.12,675.51C1493.03,675.51 1495.34,675.51 1498.61,675.51M1388.95,642.5C1388.92,638.841 1388.4,635.103 1388.97,631.539C1390.22,623.741 1386.44,618.851 1380.77,614.362C1370.16,605.971 1360.9,606.185 1351,615.544C1349.91,616.572 1348.55,617.473 1347.88,618.735C1346.64,621.07 1345,623.619 1344.97,626.097C1344.78,640.729 1345.01,655.367 1345.1,670.004C1345.11,671.927 1345.1,673.849 1345.1,675.76L1388.95,675.76C1388.95,664.767 1388.95,654.134 1388.95,642.5M1004.86,219.348C1005.67,220.232 1006.44,221.836 1007.29,221.88C1012.06,222.128 1016.85,221.999 1021.94,221.999C1021.94,214.733 1022.19,207.93 1021.86,201.155C1021.63,196.47 1017.35,193.674 1011.94,193.997C1007.62,194.256 1005.17,197.049 1005.09,201.88C1005,207.377 1004.95,212.874 1004.86,219.348Z" style="fill:#404040;fill-rule:nonzero;"/>
    <path d="M1118.02,4.928C1112.98,4.944 1107.94,4.961 1102.38,4.705C1101.24,4.598 1100.63,4.762 1100.02,4.927C1099.26,4.943 1098.5,4.958 1097.26,4.646C1095.52,4.522 1094.27,4.725 1093.02,4.928C1091.94,4.944 1090.86,4.96 1089.23,4.598C1086.31,3.814 1083.95,3.052 1081.59,3.052C901.416,2.996 721.245,3 541.073,2.998C539.408,2.998 537.693,3.225 536.095,2.894C534.98,2.663 534.026,1.659 533,1C904.167,1 1275.33,0.998 1646.5,1.043C1648.43,1.043 1651.81,-0.462 1651,4.5C1474.97,4.992 1298.94,4.985 1122.34,4.648C1120.52,4.522 1119.27,4.725 1118.02,4.928Z" style="fill:#e0dae4;fill-rule:nonzero;"/>
    <path d="M532.667,1C534.026,1.659 534.98,2.663 536.095,2.894C537.693,3.225 539.408,2.998 541.073,2.998C721.245,3 901.416,2.996 1081.59,3.052C1083.95,3.052 1086.31,3.814 1088.83,4.574C1020.18,4.953 951.371,4.996 882.567,4.998C589.024,5.008 295.481,5.005 1.469,5.003C1,3.668 1,2.336 1,1.002C148.021,1 295.042,1 442.646,1.328C445.124,3.654 446.739,3.619 448,1C451.031,1 454.061,1 457.61,1.257C458.752,1.342 459.376,1.171 460,1C460.75,1 461.5,1 462.689,1.257C463.752,1.342 464.376,1.171 465,1C467.7,1 470.4,1 473.664,1.328C476.124,3.654 477.739,3.62 479,1C480.714,1 482.429,1 484.72,1.361C489.641,3.407 493.956,4.593 498,1C499.067,1 500.133,1 501.75,1.363C502.978,2.126 503.65,2.866 504.332,2.874C512.213,2.971 520.097,3.029 527.976,2.885C528.995,2.867 529.992,1.658 531,1C531.444,1 531.889,1 532.667,1Z" style="fill:#dbd7e5;fill-rule:nonzero;"/>
    <path d="M530.531,1C529.992,1.658 528.995,2.867 527.976,2.885C520.097,3.029 512.213,2.971 504.332,2.874C503.65,2.866 502.978,2.126 502.15,1.363C511.354,1 520.708,1 530.531,1Z" style="fill:#e0dae4;fill-rule:nonzero;"/>
    <path d="M497.537,1C493.956,4.593 489.641,3.407 485.149,1.361C489.025,1 493.049,1 497.537,1Z" style="fill:#e0dae4;fill-rule:nonzero;"/>
    <path d="M447.583,1C446.739,3.619 445.124,3.654 443.114,1.328C444.389,1 445.778,1 447.583,1Z" style="fill:#e0dae4;fill-rule:nonzero;"/>
    <path d="M478.583,1C477.739,3.62 476.124,3.654 474.114,1.328C475.389,1 476.778,1 478.583,1Z" style="fill:#e0dae4;fill-rule:nonzero;"/>
    <path d="M464.667,1C464.376,1.171 463.752,1.342 463.064,1.257C463.444,1 463.889,1 464.667,1Z" style="fill:#e0dae4;fill-rule:nonzero;"/>
    <path d="M459.667,1C459.376,1.171 458.752,1.342 458.064,1.257C458.444,1 458.889,1 459.667,1Z" style="fill:#e0dae4;fill-rule:nonzero;"/>
    <path d="M1118.41,4.949C1119.27,4.725 1120.52,4.522 1121.88,4.623C1120.92,4.942 1119.87,4.957 1118.41,4.949Z" style="fill:#dbd7e5;fill-rule:nonzero;"/>
    <path d="M1093.41,4.95C1094.27,4.725 1095.52,4.522 1096.88,4.624C1095.92,4.942 1094.87,4.957 1093.41,4.95Z" style="fill:#dbd7e5;fill-rule:nonzero;"/>
    <path d="M1100.34,4.945C1100.63,4.762 1101.24,4.598 1101.92,4.68C1101.55,4.939 1101.11,4.951 1100.34,4.945Z" style="fill:#dbd7e5;fill-rule:nonzero;"/>
</svg>
