<?xml version="1.0" encoding="UTF-8" standalone="no"?>
<!DOCTYPE svg PUBLIC "-//W3C//DTD SVG 1.1//EN" "http://www.w3.org/Graphics/SVG/1.1/DTD/svg11.dtd">
<svg width="100%" height="100%" viewBox="0 0 512 218" version="1.1" xmlns="http://www.w3.org/2000/svg" xmlns:xlink="http://www.w3.org/1999/xlink" xml:space="preserve" xmlns:serif="http://www.serif.com/" style="fill-rule:evenodd;clip-rule:evenodd;">
    <g id="layer1" transform="matrix(1,0,0,1,-218.816,-290.133)">
        <path id="path4216" d="M351.749,290.829C351.25,290.836 350.75,290.96 350.347,291.196C349.767,291.537 349.501,292.295 349.347,292.951C349.222,293.49 349.222,294.103 349.446,294.609C349.681,295.139 350.665,295.853 350.665,295.853L350.761,299.435C350.761,299.435 347.795,299.299 345.544,299.948C343.929,300.414 342.259,301.367 340.865,302.459C339.528,303.505 338.366,304.807 337.452,306.237C336.7,307.413 335.844,309.187 335.81,310.089C335.702,312.908 335.713,318.62 335.713,318.62L337.238,318.717L337.33,332.71L336.091,332.738L336.185,357.965L334.429,358.062L334.233,373.387L332.482,373.465L332.797,422.91L290.532,423.174L290.572,400.137L288.366,400.153L288.324,405.129L285.283,405.124L285.282,398.257L287.247,398.251L287.227,367.029L286.204,367.052L285.361,366.138L285.165,359.573L284.213,359.549L283.982,366.143L283.116,366.935L281.021,366.89L281.018,354.23L282.643,354.182L282.618,353.037L280.968,352.963L280.93,345.968L279.046,344.76L279.021,337.171L275.682,333.002L273.293,305.604L270.66,333.101L267.222,336.952L267.247,344.923L265.686,345.91L265.686,352.773L264.002,352.773L264.027,354.063L265.76,354.063L265.808,366.984L263.104,366.984L262.2,365.935L261.883,358.94L260.836,358.963L260.41,365.973L259.275,366.984L258.082,366.984L258.008,398.259L260.089,398.263L260.129,405.352L256.627,405.337L256.564,400.176L254.158,400.159L254.182,420.807L248.868,420.807L246.38,429.338L246.479,434.02L209.214,434.02L204.599,429.29L204.647,394.188L202.014,394.334L202.21,378.831C202.21,378.831 201.59,376.238 200.747,375.271C199.623,373.981 197.935,373.229 196.311,372.688C195.101,372.286 192.508,372.249 192.508,372.249L192.374,358.757L193.544,358.757L193.524,356.059L189.632,351.237L189.55,343.648L186.316,305.993L182.124,343.729L182.025,351.237L178.357,355.968L178.238,358.89L179.539,358.94L179.519,372.29C179.519,372.29 177.048,372.239 175.883,372.59C174.302,373.067 172.664,373.766 171.544,374.979C170.652,375.946 169.924,378.579 169.924,378.579L170.033,394.237L167.502,394.237L167.547,429.327L162.275,433.92L162.275,445.64L122.424,456.81L122.424,419.991L106.978,419.302L106.978,414.338L92.086,414.338L92.086,419.991L82.572,419.854L65.335,448.949L65.335,463.981L46.168,464.256L45.891,405.237L35.963,405.374L28.378,410.615L28.793,464.946L-50.359,486.871L-50.498,514.449L803.241,513.682L803.728,487.063L733.72,462.87L716.986,462.401L716.461,419.881L718.411,418.468L718.313,416.42L714.608,416.323L714.608,408.376L722.603,406.035L722.603,403.793L695.792,403.626L694.874,397.724L693.691,393.798L692.508,393.801L691.378,397.407L689.697,397.357L687.672,392.971L685.303,389.757L683.553,389.713L681.463,392.885L679.18,397.581L677.324,397.593L676.088,393.951L674.896,393.985L673.68,397.587L672.463,403.948L646.255,403.89L646.255,405.645L653.861,408.277L654.105,416.468L651.325,416.468L651.329,418.507L652.663,419.816L652.886,438.798L627.144,438.798L595.507,423.524L595.685,374.102L597.196,374.034C597.196,374.034 597.338,372.038 597.004,371.21C596.614,370.249 596.129,369.453 595.41,368.821C594.485,368.009 592.099,367.187 592.099,367.187L592.116,365.082L596.872,363.368C596.872,363.368 597.4,358.443 596.43,356.285C595.382,353.953 593.155,352.254 591.021,350.846C588.962,349.488 584.144,348.117 584.144,348.117L584.119,344.313L582.9,344.288L582.875,337.735L584.536,337.735L584.461,330.453L582.29,327.699L580.488,327.663L578.927,303.165L577.002,327.688L575.002,327.762L572.743,330.36L572.743,337.653L574.247,337.687L574.247,344.313L572.76,344.338L572.74,348.259C572.74,348.259 567.792,349.419 565.763,350.846C563.873,352.176 562.246,354.042 561.297,356.149C560.322,358.317 560.263,363.204 560.263,363.204C561.464,363.697 563.769,364.396 564.966,364.899L565.005,366.984C565.005,366.984 562.545,367.575 561.571,368.324C560.644,369.036 559.75,370.187 559.499,371.153C559.261,372.068 559.382,374.143 559.382,374.143L560.43,374.167L560.518,440.401L539.005,440.401L539.282,430.471L507.013,386.345L406.625,386.534L406.557,360.443L404.696,360.396L404.668,334.831L402.879,334.663L402.927,321.179L404.927,321.179C404.952,319.154 405.128,317.684 404.747,315.998C404.124,313.236 403.117,310.43 401.365,308.206C399.833,306.261 397.758,304.591 395.436,303.734C393.782,303.123 390.154,303.409 390.154,303.409L390.105,299.704C390.105,299.704 391.502,299.261 391.836,298.681C392.275,297.92 392.244,296.837 391.86,296.048C391.528,295.365 390.775,294.903 390.057,294.659C389.411,294.439 388.652,294.432 388.008,294.659C387.409,294.87 386.792,295.277 386.522,295.853C386.122,296.706 386.105,297.861 386.571,298.681C386.906,299.271 388.302,299.753 388.302,299.753L388.302,303.263C388.302,303.263 383.453,302.999 381.282,303.896C378.986,304.845 376.999,306.644 375.55,308.662C373.973,310.859 373.18,313.584 372.629,316.232C372.302,317.8 372.424,321.032 372.424,321.032L374.26,321.082L374.191,334.806L372.754,334.903L372.754,360.403L371.433,360.499L371.299,379.649L368.897,379.562L368.996,373.563L367.991,373.512L368.005,358.167L366.986,358.128L367.083,332.86L365.941,332.792L365.824,318.709L367.438,318.717C367.438,318.717 367.448,313.562 367.43,310.32C367.424,309.172 366.658,306.806 365.708,305.322C364.708,303.761 363.253,302.472 361.689,301.476C360.39,300.649 358.883,300.154 357.383,299.804C355.932,299.466 352.932,299.412 352.932,299.412L352.907,295.804C352.907,295.804 353.82,295.114 354.028,294.609C354.248,294.075 354.211,293.441 354.077,292.879C353.926,292.25 353.708,291.502 353.15,291.173C352.748,290.936 352.248,290.823 351.749,290.829L351.749,290.829ZM577.582,336.668L579.822,336.703L581.097,338.392L581.132,344.424L576.03,344.356L576.168,337.806L577.582,336.668ZM185.366,361.67L185.341,369.617L181.169,369.568L181.169,361.695L185.366,361.67ZM187.218,361.718L191.034,361.718L191.034,369.592L187.194,369.568L187.218,361.718ZM687.529,432.049C688.904,432.481 691.052,434.559 691.052,434.559L690.918,457.399L677.497,457.332L677.429,434.49C677.429,434.49 679.697,432.538 681.09,432.118C683.145,431.499 685.481,431.407 687.529,432.049L687.529,432.049ZM704.405,439.845C705.878,440.205 708.404,442.013 708.404,442.013L708.473,457.129L696.611,457.129L696.678,442.488C696.678,442.488 699.112,440.373 700.61,439.912C701.819,439.539 703.176,439.544 704.405,439.845L704.405,439.845ZM664.483,439.913C665.633,439.504 666.997,439.561 668.143,439.981C669.786,440.583 672.21,443.302 672.21,443.302L672.346,457.265L660.891,457.196L660.619,457.265L660.483,443.301C660.483,443.301 662.837,440.5 664.483,439.913L664.483,439.913Z" style="fill:rgb(64,64,64);stroke:rgb(64,64,64);stroke-width:0.8px;"/>
    </g>
</svg>
