<svg id="eWc1Twgz60i1" xmlns="http://www.w3.org/2000/svg" xmlns:xlink="http://www.w3.org/1999/xlink" viewBox="0 0 5167 2373" shape-rendering="geometricPrecision" text-rendering="geometricPrecision" project-id="27de3927b7d14c0295e943e581fdfd70" export-id="bd4db139b4cd430ba9ca6ee2209b90a7" cached="false"><path d="M5176.69,2429.07c23.077,21.69-2312.84-23.515-5200.2-13.781-17.692.06-13.786-1088.52,17.866-1081.77c23.687,5.045,44.346,1.284,64.72-10.596-.041-3.034-.232-6.31-.568-9.835c22.688-27.33,47.63-47.307,78.674-63.907c28.334-15.15,61.956-19.534,86.735-43.875c15.233-14.963,39.09-20.77,62.029-19.253c26.31,1.739,50.318-3.704,75.507-12.389c35.769-12.333,73.814-12.518,112.275-8.27c45.389,5.014,89.97,18.219,136.27,14.74c7.4-.556,15.133-.841,21.994,1.967c57.116,23.372,118.628,20.55,177.556,22.147c70.062,1.9,140.716-9.386,208.368-33.608c46.523-16.658,94.684-28.766,141.251-45.567c37.304-13.459,73.704-30.012,112.444-38.661c33.864-7.56,65.311-27.99,100.698-24.892c58.146,5.091,99.337-31.073,145.575-54.987c22.249-11.507,43.763-23.724,68.954-27.969c21.609-3.641,40.423-16.229,55.819-29.43c19.578-16.788,42.957-25.08,64.35-37.12c12.627-7.107,29.282-14.648,43.396-3.164c4.016-6.463,6.967-12.631,10.411-18.507c7.33-12.506,17.665-21.537,33.59-20.19c18.37,1.553,35.041-4.555,49.994-13.635c19.949-12.114,40.32-12.712,61.197-5.882c37.089,12.132,72.943,11.973,111.081,1.08c20.578-5.877,45.727-5.75,67.197.045c25.918,6.996,52.227,11.261,80.161,17.607c11.35,1.016,16.066,10.39,26.453,13.02c5.181,1.937,8.152,4.323,13.766,5.011c8.17.958,14.727-.559,22.809,2.457c8.759,2.069,15.13,4.875,23.571,8.24c20.017,18.793,39.884,31.26,66.834,33.552c35.566,3.025,63.217,28.958,96.767,38.38c76.512,21.485,141.968,69.549,218.772,90.19c7.141,1.919,13.219,6.356,19.405,10.49c32.461,21.693,64.747,43.882,107.009,39.115c8.599-.97,15.774,4.563,23.509,7.471c55.269,20.782,109.616,44.179,166.102,61.49c25.296,7.752,53.075,8.175,73.679,28.065.639.617,1.648,1.001,2.518,1.107c82.045,10.013,141.794,77.362,224.791,86.843c21.623,2.47,42.455,18.626,59.672,33.676c22.092,19.312,46.209,29.882,77.075,31.177c3.942,3.172,6.991,6.78,10.065,9.832c52.402,7.719,95.229-26.01,143.74-34.668c26.348-4.702,52.745-.135,79.474,2.258c57.221,5.123,111.391,26.191,168.782,28.259c20.451.738,40.395-.025,58.981-11.294c12.417-7.529,26.131-6.919,32.955,8.126c9.62,21.21,25.308,22.036,43.737,15.559c12.163-4.274,24.498-8.683,35.693-14.934c15.823-8.837,31.283-15.539,49.979-10.369c10.213,2.824,20.093-.841,29.687-4.571c6.959-2.707,15.935-6.75,21.333-2.093c24.425,21.071,39.458,4.611,55.794-11.539c8.086-7.993,21.027-14.946,30.176-11.275c31.081,12.473,57.131-6.022,84.887-11.14c39.802-7.339,80.813.457,120.102-12.387c9.68-3.164,23.195-1.672,32.623,2.695c41.445,19.195,85.703,21.415,129.925,24.84c20.35,1.576,38.163,12.51,57.234,18.246c44.047,13.248,88.065,1.14,131.775,8.08c29.633,4.704,60.968,2.226,90.759,5.118c33.457,3.249,68.001,7.387,100.489,19.457c20.676,7.683,44.039-5.016,64.722,8.061c45.199,28.579,100.901,24.216,148.386,46.526c15.612,7.335,33.266,5.585,52.149,5.25c2.753-3.134,5.624-6.486,9.176-8.802c4.892-1.561,7.829-1.647,12.968-.48c34.508,29.652-11.656,995.527-5.663,1000.67l-.004-.007Z" fill="#51606f"/></svg>
