<svg id="e9ZBIiNFR8o1" xmlns="http://www.w3.org/2000/svg" xmlns:xlink="http://www.w3.org/1999/xlink" viewBox="0 0 5167 2373" shape-rendering="geometricPrecision" text-rendering="geometricPrecision" project-id="27de3927b7d14c0295e943e581fdfd70" export-id="bf737297f5e649e7b14407300fac765e" cached="false"><path d="M5176.69,2429.07c23.077,21.69-2312.84-23.515-5200.2-13.781-17.692.06-13.786-1088.52,17.866-1081.77c23.687,5.045,44.346,1.284,64.72-10.596-.041-3.034-.232-6.31-.568-9.835c22.688-27.33,47.63-47.307,78.674-63.907c28.334-15.15,61.956-19.534,86.735-43.875c15.233-14.963,39.09-20.77,62.029-19.253c26.31,1.739,50.318-3.704,75.507-12.389c35.769-12.333,73.814-12.518,112.275-8.27c45.389,5.014,89.97,18.219,136.27,14.74c7.4-.556,15.133-.841,21.994,1.967c57.116,23.372,118.628,20.55,177.556,22.147c70.062,1.9,140.716-9.386,208.368-33.608c46.523-16.658,94.684-28.766,141.251-45.567c37.304-13.459,73.704-30.012,112.444-38.661c33.864-7.56,65.311-27.99,100.698-24.892c58.146,5.091,99.337-31.073,145.575-54.987c22.249-11.507,43.763-23.724,68.954-27.969c21.609-3.641,40.423-16.229,55.819-29.43c19.578-16.788,42.957-25.08,64.35-37.12c12.627-7.107,29.282-14.648,43.396-3.164c4.016-6.463,6.967-12.631,10.411-18.507c7.33-12.506,17.665-21.537,33.59-20.19c18.37,1.553,35.041-4.555,49.994-13.635c19.949-12.114,40.32-12.712,61.197-5.882c37.089,12.132,72.943,11.973,111.081,1.08c20.578-5.877,45.727-5.75,67.197.045c25.918,6.996,52.227,11.261,80.161,17.607c11.35,1.016,16.066,10.39,26.453,13.02c5.181,1.937,8.152,4.323,13.766,5.011c8.17.958,14.727-.559,22.809,2.457c8.759,2.069,15.13,4.875,23.571,8.24c20.017,18.793,39.884,31.26,66.834,33.552c35.566,3.025,63.217,28.958,96.767,38.38c76.512,21.485,141.968,69.549,218.772,90.19c7.141,1.919,13.219,6.356,19.405,10.49c32.461,21.693,64.747,43.882,107.009,39.115c8.599-.97,15.774,4.563,23.509,7.471c55.269,20.782,109.616,44.179,166.102,61.49c25.296,7.752,53.075,8.175,73.679,28.065.639.617,1.648,1.001,2.518,1.107c82.045,10.013,141.794,77.362,224.791,86.843c21.623,2.47,42.455,18.626,59.672,33.676c22.092,19.312,46.209,29.882,77.075,31.177c3.942,3.172,6.991,6.78,10.065,9.832c52.402,7.719,95.229-26.01,143.74-34.668c26.348-4.702,52.745-.135,79.474,2.258c57.221,5.123,111.391,26.191,168.782,28.259c20.451.738,40.395-.025,58.981-11.294c12.417-7.529,26.131-6.919,32.955,8.126c9.62,21.21,25.308,22.036,43.737,15.559c12.163-4.274,24.498-8.683,35.693-14.934c15.823-8.837,31.283-15.539,49.979-10.369c10.213,2.824,20.093-.841,29.687-4.571c6.959-2.707,15.935-6.75,21.333-2.093c24.425,21.071,39.458,4.611,55.794-11.539c8.086-7.993,21.027-14.946,30.176-11.275c31.081,12.473,57.131-6.022,84.887-11.14c39.802-7.339,80.813.457,120.102-12.387c9.68-3.164,23.195-1.672,32.623,2.695c41.445,19.195,85.703,21.415,129.925,24.84c20.35,1.576,38.163,12.51,57.234,18.246c44.047,13.248,88.065,1.14,131.775,8.08c29.633,4.704,60.968,2.226,90.759,5.118c33.457,3.249,68.001,7.387,100.489,19.457c20.676,7.683,44.039-5.016,64.722,8.061c45.199,28.579,100.901,24.216,148.386,46.526c15.612,7.335,33.266,5.585,52.149,5.25c2.753-3.134,5.624-6.486,9.176-8.802c4.892-1.561,7.829-1.647,12.968-.48c34.508,29.652-11.656,995.527-5.663,1000.67l-.004-.007Z" fill="#51606f"/><path d="M-76.6875,331.25c-2.124263-3.498785-4.549858-4.880866-8.082031-6.816406-4.906823-3.028039-8.390912-6.14564-9.855469-11.808594.620741-7.209058,6.659317-14.048639,10.601563-19.804687c1.682582-3.237249,2.308998-6.446764,2.898437-10.007813.228164-1.277461.456328-2.554922.691406-3.871094.441844-2.62127.809942-5.230719,1.122559-7.871338c1.058638-8.592908,3.175238-16.258267,6.123535-24.382568c5.156838-14.259562,6.841254-27.308542,6.760742-42.359619-.010805-2.404467.000003-4.808201.012696-7.212647-.001321-1.55534-.003881-3.110679-.007813-4.666015.004048-.705384.008097-1.410768.012268-2.137528-.046276-4.978134-.968933-9.258563-2.277893-14.061691-1.062049-10.015365.325195-20.487792,6-29-.796641-.230742-1.593281-.461484-2.414062-.699219-8.073649-2.484955-13.645433-4.509063-17.960938-12.113281-2.864812-5.461776-2.014881-11.415088-.330811-17.101807.594101-1.835963,1.201208-3.667753,1.819092-5.495849.325604-.993429.651208-1.986858.986679-3.010391c1.058709-3.218146,2.134862-6.430115,3.21254-9.641953.733965-2.21254,1.46736-4.425269,2.200195-6.638184C-71.020418,80.043811,-66.801157,67.559145,-62.4375,55.125c.428372-1.228557.856743-2.457114,1.298096-3.7229c5.101653-14.288108,5.101653-14.288108,9.264404-17.5896c3.06877-.789112,6.031956-.595485,9.1875-.5625-.034805-1.00418-.069609-2.008359-.105469-3.042969C-43.285173,9.768,-43.285173,9.768,-37.894531,1.5c2.444698-2.492294,3.916273-3.218012,7.269531-4.0625c1.28584-.34998,1.28584-.34998,2.597656-.707031C-17.944778,-4.720006,-9.656283,-3.027317,0,0c1.171113.348047,2.342227.696094,3.548828,1.054688C19.05059,5.776036,19.05059,5.776036,23.3125,10.4375c.995606,2.800143,1.04986,4.338405.9375,7.25-.081741,3.285997.110355,4.675611,1.4375,7.8125c3.095456,3.242859,6.109218,4.548771,10.136719,6.398438c3.620868,1.96675,6.641952,4.617131,8.488281,8.351562-.230469,2.152344-.230469,2.152344-1,4-.99.495-.99.495-2,1-1.047188,2.31254-2.043464,4.648515-3,7-.556875.959063-.556875.959063-1.125,1.9375-.928729,2.189146-1.063764,3.829925-1.25,6.1875-.20625,1.27875-.4125,2.5575-.625,3.875-1.9375,1.0625-1.9375,1.0625-4,2-.704913,2.322065-1.372124,4.655931-2,7-3.162406,2.108271-4.506575,2.338175-8.1875,2.625-1.351582.112148-1.351582.112148-2.730469.226563-.68707.048984-1.37414.097968-2.082031.148437c2.263274,4.023598,4.9093,7.4664,7.875,11c.843047,1.010625,1.686094,2.02125,2.554688,3.0625c4.051346,4.63011,8.020007,9.162348,13.570312,11.9375c2.279256.025852,4.37549-.260108,6.625-.621094c3.789745-.604614,7.565635-.970279,11.375-.378906c2.3125,2,2.3125,2,4,4c1.32,0,2.64,0,4,0c.268125-.78375.53625-1.5675.8125-2.375c1.1875-2.625,1.1875-2.625,4.1875-4.625.969375-.165,1.93875-.33,2.9375-.5c4.12965-2.022686,4.520534-4.067705,5.988281-8.285156.354492-1.060899.708985-2.121797,1.074219-3.214844.77592-2.129018,1.568397-4.251286,2.365234-6.372559.544484-1.450124,1.083628-2.902266,1.617188-4.356445C87.20094,70.36156,87.20094,70.36156,88.3125,69.25c2.9375-.1875,2.9375-.1875,6,0c2,2,2,2,2.3125,5.488281-.130819,5.182542-1.727646,9.80399-3.3125,14.699219-2.28313,7.410943-3.444955,13.449101-3.023437,21.207031.040985,4.556172-1.53022,7.857694-4.439698,11.373535-1.957646,2.843019-2.795634,5.580965-3.814209,8.880372-.310583,1.000347-.310583,1.000347-.627441,2.020904-.688064,2.232164-1.361629,4.468334-2.032715,6.705658-.2376.785522-.475201,1.571045-.720001,2.380371C69.443126,172.540027,61.829593,203.501474,54.625,234.5625c-.393713,1.690565-.393713,1.690565-.79538,3.415283-.745235,3.21039-1.482415,6.422506-2.216339,9.635498-.219201.944908-.438402,1.889816-.664245,2.863358C49.68634,256.06534,48.842476,261.543767,48.3125,267.25c4.537054,1.512351,8.476267,1.539656,13-.0625c3.857969-1.205615,6.065336-.875702,10,.0625c2.441179,1.482793,4.437201,3.284697,6.5,5.25.549141.478242,1.098281.956484,1.664063,1.449219c1.554687,1.441406,1.554687,1.441406,3.835937,4.300781.119372,4.491362-2.658625,9.0651-4.5,13.125-2.432646,5.363778-2.432646,5.363778-4.5,10.875c1.013203-.883652,1.013203-.883652,2.046875-1.785156c1.338047-1.127285,1.338047-1.127285,2.703125-2.277344.881719-.754102,1.763438-1.508203,2.671875-2.285156C84.3125,294.25,84.3125,294.25,86.248047,294.505615c2.155805.777324,3.786972,1.70619,5.673828,3.002198.668621.456811,1.337241.913623,2.026123,1.384277c2.843224,1.993966,5.682965,3.991534,8.501709,6.020019c1.493006,1.072304,3.001637,2.122838,4.515137,3.166016c9.106858,6.921912,11.735101,20.357518,13.347656,31.171875.210793,4.34875.192168,8.651301,0,13-15.614368,7.384806-15.614368,7.384806-23,6-4.340409-4.022614-6.277322-9.717573-8.5625-15.0625-.767391-1.7846-1.539374-3.567233-2.316406-5.347656-.335882-.78512-.671763-1.57024-1.017823-2.379151C84.267913,333.160658,81.3125,329.25,81.3125,329.25s.433125,1.142754.875,2.308594c0,0,3.588056,11.745572,3.125,18.691406-.957773.219141-1.915547.438281-2.902344.664063C70.3125,352.25,59.586344,357.230983,48.5625,361.78125c-1.134375.464063-3.4375,1.40625-3.4375,1.40625s-1.967109.843047-2.980469,1.277344c0,0-11.289898-1.144673-16.769531-3.964844-1.016104-.502734,1.880238.591291,2.061523,0c1.970951-6.428572-16.207277-7.137499-18.561523-12.5625-.60986-3.997968-.600166-7.648827-.5625-11.6875m55-209c-1.362699,1.783189-2.566777,3.59108-3.726562,5.511719-2.176768,2.544014-4.653957,2.431199-7.859375,2.726562-1.380586.036739-1.380586.036739-2.789063.074219-1.372852.056074-1.372852.056074-2.773437.113281C43.3125,135.25,43.3125,135.25,40.445313,133.308594C36.835511,130.936567,33.759527,130.38374,29.5625,130c-.701572-.074443-1.403145-.148887-2.125977-.225586C16.917716,128.1814,16.917716,128.1814,7.3125,131.25C5.713421,133.718996,4.488917,136.335969,3.25,139c-.338379.703828-.676758,1.407656-1.025391,2.132813-.664293,1.382552-1.324094,2.767274-1.979004,4.154296-1.271313,2.67435-2.598922,5.319464-3.933105,7.962891.741211.268125,1.482422.53625,2.246094.8125C12.255729,159.159108,25.286783,165.649524,38.3125,172.25c1.060898.485977,2.121797.971953,3.214844,1.472656c3.114284,1.707833,4.162626,3.178068,5.296875,6.539063c2.762738,11.249871-3.442566,20.178146-9.037598,29.541992-1.644241,2.699234-3.304561,5.387646-4.974121,8.071289-.555828.893965-1.111655,1.78793-1.684326,2.708984-2.472273,3.960293-4.965183,7.900737-7.534424,11.798829-3.92194,5.775132-3.92194,5.775132-5.234375,12.4375.727801,2.38557,1.69671,4.280556,2.953125,6.429687.28875.732188.5775,1.464375.875,2.21875c1.565525,3.857901,2.871271,6.059159,6.75,7.78125c3.107927,1.094696,3.107927,1.094696,5.375,1c.33.66.66,1.32,1,2c.200449-.933442.400898-1.866885.607422-2.828613C41.26351,236.61805,46.9513,211.97539,54.5625,187.75c3.461859-11.03533,6.411274-22.20645,9.352661-33.389648.553946-2.105302,1.11032-4.209966,1.66919-6.313965.791021-2.983498,1.571676-5.969515,2.349243-8.956543.360396-1.353342.360396-1.353342.728073-2.734024c1.151537-4.476379,1.941732-8.439498,1.650833-13.10582-2.55432,0-5.10147,2.413306-7,4Zm-85,72c-1.927761,3.406194-3.43505,6.951974-4.9375,10.5625-.436025,1.020535-.872051,2.041069-1.321289,3.092529-2.99747,7.159325-5.57036,14.379941-7.588623,21.876465-1.465328,5.187415-3.753622,9.293242-6.605225,13.854492-2.609396,4.408143-4.540858,9.070487-6.484863,13.801514-.42531,1.029397-.85062,2.058794-1.288818,3.119385-2.942517,7.279033-5.529207,14.626656-7.836182,22.130615-.286736.927722-.573472,1.855444-.868896,2.811279-2.24169,7.606252-4.101199,14.889855-1.818604,22.688721.252656.916523.505313,1.833047.765625,2.777344.87707,2.607023.87707,2.607023,3.984375,4.285156c1.701563.37125,1.701563.37125,3.4375.75c3.5625,1.25,3.5625,1.25,5.4375,4.25c2.666752,3.764826,4.445708,4.028867,8.808594,4.871094c2.871279.159784,4.614073.211544,7.316406-.871094c1.984051-3.051537,3.603527-6.087439,5.166016-9.365234c3.656853-6.864148,5.443278-6.278484,13.833984-9.634766c0-7.26,0-14.52,0-22c3.3-.99,6.6-1.98,10-3c5.211221-2.064823,7.909979-4.411787,11-9c.085384-2.817669-1.047791-4.079651-2.5-6.5-2.894934-2.894934-5.516248-3.941303-9.25-5.476562-4.485708-2.040374-7.41499-4.784391-10.1875-8.898438-1.377871-4.052563-1.235133-5.986295-.0625-10.125c2.157164-4.281242,4.375491-8.509209,7.933838-11.774658c2.397062-2.581735,3.459523-4.908041,4.792725-8.162842.474375-1.142109.94875-2.284219,1.4375-3.460937.482109-1.188516.964218-2.377032,1.460937-3.601563.970422-2.354551,1.941739-4.708733,2.914063-7.0625.424907-1.042852.849814-2.085703,1.287597-3.160156.977591-2.313999,2.015952-4.549389,3.17334-6.777344-7.187202-3.275583-14.140076-5.155086-22-6-.83918-.097969-1.678359-.195937-2.542969-.296875-3.683885.445112-4.902658,1.574609-7.457031,4.296875Z" transform="matrix(.272519 0 0 0.285275 1711.660167 828.579607)" fill="#51606f"/></svg>
