<svg xmlns="http://www.w3.org/2000/svg" width="249.328" height="58.301" viewBox="0 0 65.968 15.426">
<path d="M21.838 11.496q.898 0 1.808-.347l.242.76q-.419.21-1.009.293-.59.088-1.041.088h-.078q-1.962 0-2.629-1.124-.408-.684-.496-1.841-.039-.557-.039-1.219 0-.661.033-1.256.039-.601.15-1.097.11-.502.319-.893.21-.392.562-.662.717-.562 2.084-.562.882 0 1.416.116.54.11.728.182l-.248.87q-1.075-.374-1.841-.374-.76 0-1.174.187-.408.182-.64.607-.402.727-.402 2.772v.408q0 1.681.436 2.348.485.744 1.769.744zm8.698.337q-1.141.457-2.52.457-.799 0-1.355-.165-.888-.254-1.18-1.047-.27-.745-.27-2.205v-.281q0-1.748.728-2.453.656-.629 2.188-.629 1.494 0 2.04.739.264.358.347.87.088.508.088.971 0 .722-.033 1.119-.777.033-1.395.033h-.887q-1.39 0-2.139-.121 0 1.268.32 1.77.391.611 1.56.611 1.168 0 2.238-.458zm-.866-3.357v-.53q0-.865-.336-1.234-.375-.413-1.295-.413-1.103 0-1.505.48-.386.457-.386 1.697zm7.508 2.97q-1.163.844-2.365.844-1.328 0-1.77-.975-.253-.552-.286-1.163-.027-.618-.027-1.08 0-.47.005-.943.011-.474.072-.877.06-.402.187-.722.132-.325.375-.551.502-.469 1.654-.469 1.157 0 2.089.403V2.798l.915-.088v6.455q0 1.902.104 2.97l-.82.067zm-.066-4.778q-.992-.33-1.919-.33-.672 0-.887.11t-.33.286q-.11.176-.183.485-.126.579-.126 1.907v.122q0 1.24.27 1.714.292.501 1.086.501h.082q.761 0 1.62-.485.238-.132.409-.264v-.011q-.028-.513-.028-1.582zm8.345 3.186q0 1.097.105 2.282l-.816.066-.138-.766q-.7.562-1.852.783-.375.071-.667.071t-.518-.027q-.22-.028-.43-.105-.204-.083-.38-.226t-.309-.38q-.281-.502-.281-1.202 0-.706.1-1.091.104-.392.34-.65.47-.514 1.577-.514 1.108 0 2.365.42v-.717q0-1.196-.987-1.417-.32-.071-.733-.071-.942 0-1.956.374l-.204-.793q.28-.188 1.433-.337.364-.044.87-.044.513 0 1.004.122.49.12.816.396.661.546.661 1.77zm-.926-.65q-1.29-.326-2.381-.326-.673 0-.893.386-.149.27-.149.8 0 .528.055.766.06.237.193.39.26.293.854.293.932 0 1.847-.48.281-.143.507-.32-.033-.595-.033-1.51m5.777-2.784q-.706 0-1.439.705v5.055h-.915V5.62h.805l.088.871q.26-.402.557-.628.303-.226.496-.276.276-.077.524-.077t.622.1l-.082.876q-.281-.066-.656-.066m2.425-2.624.827-.06q1.24-.1 1.979-.1.738 0 1.18.06.44.056.771.2.336.137.568.38.237.242.386.617.28.7.28 2.084v.854q0 1.637-.242 2.486-.28.981-1.008 1.411-.75.452-2.2.452h-2.54zm4.68 1.29q-.198-.314-.573-.474t-1.152-.16-2.018.094v6.846h1.753q1.025 0 1.521-.336.486-.326.65-1.12.144-.65.144-2.105v-.86q0-1.373-.325-1.885m8.924.821q0 1.698-1.284 1.869v.016q.794.06 1.185.452.452.463.452 1.345 0 .877-.204 1.362-.198.485-.557.755-.612.474-1.923.474h-2.817V3.774q1.527-.143 2.519-.143t1.455.154q.463.149.722.435.452.502.452 1.687m-2.97 1.604q1.107 0 1.537-.314.49-.353.49-1.312V5.77q0-.738-.325-1.052-.325-.31-1.108-.31-.656 0-1.113.028l-.722.045V7.51zm.754 3.886q.81 0 1.158-.308.435-.392.435-1.4 0-1.17-.854-1.368-.26-.06-.562-.06h-2.172v3.136z" aria-label="CedarDB" style="font-weight:700;font-size:11.2889px;font-family:Armata;clip-rule:evenodd;fill:black;fill-rule:evenodd;stroke-width:.264583;stroke-linejoin:round;stroke-miterlimit:2" transform="translate(-.722 .212)"/>
<path d="M752.187-246.494a67.9 67.9 0 0 1-28.246-13.513 67.8 67.8 0 0 1-16.064-18.816m33.895 48.401a235 235 0 0 0-26.12-14.97c-4.455-2.188-9.061-4.288-12.699-7.665-1.818-1.688-3.372-3.692-4.362-5.968s-1.395-4.833-.951-7.275c.352-1.94 1.222-3.75 2.223-5.45 1-1.698 2.142-3.313 3.106-5.033.355-.632.689-1.284 1.163-1.832a3.5 3.5 0 0 1 .817-.71c.31-.19.657-.32 1.018-.356a2.1 2.1 0 0 1 1.07.174c.333.15.626.388.84.684a52 52 0 0 1 3.937-9.058c.401-.724.822-1.442 1.364-2.067.541-.626 1.213-1.158 1.996-1.424a3.6 3.6 0 0 1 1.792-.137 3.6 3.6 0 0 1 1.634.747 12.3 12.3 0 0 1 3.246-1.397 12.3 12.3 0 0 1 6.328 0c1.142.305 2.24.777 3.246 1.397a3.6 3.6 0 0 1 1.634-.747 3.6 3.6 0 0 1 1.792.137c.783.267 1.455.799 1.996 1.424.542.625.963 1.343 1.364 2.067a52 52 0 0 1 3.947 9.058c.214-.295.505-.532.836-.682.332-.15.703-.21 1.065-.176.361.035.71.165 1.02.354s.583.435.82.71c.476.548.812 1.2 1.167 1.834.965 1.719 2.104 3.334 3.103 5.033s1.866 3.51 2.217 5.45c.441 2.442.034 4.999-.956 7.274s-2.544 4.278-4.362 5.967c-3.636 3.377-8.24 5.478-12.695 7.666a236 236 0 0 0-26.12 14.971m44.133-35.878a38.5 38.5 0 0 1 1.558 5.206c.448 2.003.736 4.052.673 6.102a18.1 18.1 0 0 1-2.425 8.498 14.7 14.7 0 0 1-1.597 7.471c-1.902 3.698-5.284 6.411-8.818 8.601-2.096 1.299-4.286 2.458-6.594 3.325-6.485 2.434-13.851 2.434-20.335 0-2.309-.867-4.499-2.026-6.595-3.325-3.534-2.19-6.918-4.902-8.817-8.6a14.66 14.66 0 0 1-1.588-7.472 18.1 18.1 0 0 1-2.435-8.498c-.063-2.05.225-4.1.674-6.102a39 39 0 0 1 1.558-5.206m33.78-24.462a42.8 42.8 0 0 1-15.768 18.07 42.7 42.7 0 0 1-18.012 6.392m20.96-24.462a42.8 42.8 0 0 0 15.768 18.07 42.7 42.7 0 0 0 18.013 6.392m-10.228-12.523a67.8 67.8 0 0 1-16.073 18.816 67.9 67.9 0 0 1-28.237 13.513" class="UnoptimicedTransforms" style="display:inline;fill:none;stroke:#fb773e;stroke-width:3.92676;stroke-linecap:butt;stroke-linejoin:miter;stroke-dasharray:none;stroke-opacity:1" transform="matrix(-.19167 0 0 .21655 145.013 63.782)"/>
</svg>
