<svg xmlns="http://www.w3.org/2000/svg" width="2000" height="841" viewBox="0 0 2000 841" version="1.1">
	<path d="M 1072.646 1.062 C 1048.046 3.597, 1031.430 10.846, 1015.632 25.939 C 1006.126 35.019, 998.467 45.074, 980.984 71.425 C 953.969 112.142, 941.045 128.760, 918.001 152.407 C 891.259 179.849, 866.543 200.114, 831 223.741 C 813.775 235.190, 795.216 247, 794.448 247 C 794.201 247, 794 239.575, 794 230.500 L 794 214 760.512 214 L 727.025 214 726.762 250.669 L 726.500 287.337 711.444 296.919 C 673.456 321.095, 651.506 340.018, 635.607 362.297 L 630.799 369.036 622.098 360.768 C 593.642 333.726, 556.040 319.975, 510.644 320.008 C 403.868 320.087, 338.644 402.575, 354.599 517.358 C 362.795 576.325, 400.146 622.490, 454.178 640.436 C 497.661 654.878, 553.480 651.048, 590.581 631.077 C 600.776 625.589, 610.636 618.895, 617.296 612.940 C 620.484 610.090, 623.246 607.925, 623.435 608.129 C 623.624 608.333, 625.406 612.449, 627.395 617.276 C 664.842 708.141, 743.350 779.455, 845.213 815.134 C 915.187 839.643, 998.800 846.819, 1070.443 834.464 C 1176.291 816.211, 1270.629 754.721, 1330.805 664.760 C 1366.940 610.740, 1388.429 552.383, 1396.631 486 C 1399.163 465.506, 1399.166 415.127, 1396.636 392.165 C 1395.646 383.181, 1395.085 375.582, 1395.388 375.279 C 1396.355 374.311, 1408.241 377.085, 1416.132 380.119 C 1425.750 383.818, 1436.050 391.012, 1443.405 399.170 C 1450.309 406.826, 1457.975 421.843, 1461.187 434 L 1463.433 442.500 1463.748 543.750 L 1464.064 645 1497.578 645 L 1531.092 645 1530.720 538.250 C 1530.359 434.511, 1530.289 431.189, 1528.233 420.486 C 1517.024 362.134, 1480.487 325.724, 1426.500 319.109 C 1416.526 317.886, 1398.620 317.779, 1389.736 318.889 L 1383.972 319.609 1382.927 315.554 C 1371.686 271.921, 1359.228 238.369, 1340.020 200 C 1288.626 97.339, 1212.974 26.043, 1134.755 6.553 C 1114.403 1.482, 1089.737 -0.699, 1072.646 1.062 M 1070.500 21.119 C 1066.650 21.596, 1059.900 23.100, 1055.500 24.462 C 1035.261 30.726, 1025.516 40.491, 996.939 83.142 C 985.751 99.839, 973.017 118.225, 968.641 124 C 939.918 161.899, 902.627 197.607, 860.632 227.424 C 846.184 237.683, 816.412 257.134, 802.250 265.566 L 794 270.479 794 457.739 L 794 645 760.500 645 L 727 645 727 478 C 727 386.150, 726.680 311, 726.290 311 C 724.906 311, 694.375 331.977, 686 338.683 C 670.273 351.274, 654.296 368.706, 646.180 382.129 L 643.986 385.759 650.491 398.221 C 663.429 423.009, 668.888 445.704, 669.739 478.250 L 670.255 498 645.973 498 L 621.691 498 622.338 510.250 C 622.693 516.987, 623.275 524.862, 623.631 527.750 L 624.279 533 644.080 533 C 654.971 533, 664.091 533.339, 664.347 533.753 C 664.603 534.167, 663.112 539.687, 661.033 546.020 C 656.922 558.547, 650.250 572.624, 643.375 583.281 C 640.969 587.011, 639 590.743, 639 591.575 C 639 594.567, 649.281 618.783, 656.374 632.500 C 673.317 665.263, 691.668 689.907, 718.274 715.625 C 779.078 774.398, 861.662 810.083, 957.500 818.997 C 1052.628 827.844, 1142.882 805.022, 1216.500 753.504 C 1302.233 693.508, 1359.759 600.312, 1374.974 496.765 C 1379.487 466.054, 1380.085 426.475, 1376.535 393.500 C 1374.277 372.521, 1374.821 373.828, 1368.665 374.611 C 1348.125 377.225, 1331.119 385.642, 1317.989 399.695 C 1305.324 413.250, 1298.261 429.512, 1295.068 452.467 C 1294.374 457.457, 1294 492.496, 1294 552.572 L 1294 645 1260.500 645 L 1227 645 1227 485 L 1227 325 1260.500 325 L 1294 325 1294.059 353.250 C 1294.105 375.478, 1294.372 381.111, 1295.309 379.674 C 1295.964 378.669, 1298.283 375.069, 1300.462 371.674 C 1305.909 363.186, 1322.851 346.394, 1332.414 340.005 C 1340.404 334.667, 1356.179 326.711, 1361.250 325.461 C 1362.763 325.088, 1364 324.234, 1364 323.562 C 1364 321.523, 1357.189 297.204, 1353.340 285.500 C 1315.268 169.727, 1245.507 77.520, 1167.500 39.863 C 1152.016 32.388, 1139.289 27.834, 1124.984 24.648 C 1105.613 20.334, 1086.728 19.111, 1070.500 21.119 M 1620 193.371 C 1605.511 197.596, 1595.967 207.165, 1592.412 221.033 C 1587.501 240.188, 1597.250 259.216, 1615.239 265.591 C 1627.284 269.859, 1644.512 269.189, 1655.701 264.017 C 1685.793 250.108, 1683.320 207.090, 1651.719 194.746 C 1645.133 192.173, 1626.831 191.380, 1620 193.371 M 1835 319.616 C 1810.593 322.895, 1788.689 330.769, 1770.888 342.663 C 1762.308 348.396, 1749.299 361.836, 1744.737 369.683 C 1729.602 395.711, 1731.030 429.504, 1748.207 451.768 C 1757.284 463.534, 1778.036 475.686, 1805.500 485.317 C 1812.650 487.824, 1830.650 493.538, 1845.500 498.013 C 1899.224 514.205, 1913.174 519.442, 1922.500 526.925 C 1928.800 531.979, 1933.544 539.786, 1934.998 547.491 C 1940.175 574.927, 1919.054 591.644, 1875.042 594.947 C 1849.149 596.890, 1827.735 591.704, 1808.902 578.929 C 1797.552 571.230, 1788.846 558.394, 1787.245 547 L 1786.472 541.500 1752.486 541.500 L 1718.500 541.500 1718.820 548 C 1719.310 557.956, 1722.599 570.429, 1727.375 580.440 C 1744.026 615.348, 1783.926 639.660, 1835.801 646.508 C 1850.378 648.432, 1878.632 648.428, 1893.344 646.499 C 1942.797 640.017, 1980.855 617.226, 1993.935 586.263 C 1998.021 576.589, 1999.410 568.983, 1999.279 557 C 1998.875 520.291, 1982.842 497.145, 1945.537 479.412 C 1931.710 472.840, 1915.367 467.220, 1879 456.532 C 1834.658 443.500, 1820.078 437.523, 1810.694 428.531 C 1803.504 421.642, 1801.577 417.089, 1801.579 407 C 1801.581 399.790, 1801.977 397.738, 1804.191 393.480 C 1809.056 384.121, 1819.424 376.194, 1833.106 371.373 C 1839.293 369.193, 1842.807 368.685, 1854.636 368.261 C 1870.130 367.706, 1878.168 368.683, 1889.596 372.508 C 1910.212 379.408, 1923.114 392.967, 1926.203 410.980 L 1927.412 418.027 1959.456 417.764 L 1991.500 417.500 1991.173 411 C 1989.396 375.667, 1964.516 344.895, 1924.964 329.112 C 1900.692 319.426, 1864.695 315.627, 1835 319.616 M 137.500 321.100 C 126.323 322.265, 111.290 325.603, 101.119 329.178 C 46.035 348.543, 10.795 393.615, 2.353 455.500 C 0.393 469.874, 0.170 496.423, 1.892 510.500 C 11.441 588.561, 62.805 640.127, 138.935 648.084 C 151.608 649.408, 180.375 648.814, 191 647.009 C 252.967 636.479, 296.057 597.436, 310.943 538.333 C 314.430 524.488, 318.466 526, 278.019 526 L 243.038 526 242.451 528.750 C 241.257 534.342, 236.695 546.636, 234.194 551 C 222.993 570.548, 204.586 583.986, 182 589.104 C 179.525 589.665, 173 590.526, 167.500 591.016 C 140.898 593.390, 117.100 585.588, 99.263 568.644 C 85.998 556.045, 78.560 543.372, 73.643 525 C 70.070 511.644, 68.999 502.221, 69.006 484.178 C 69.024 434.772, 85.165 403.560, 119.701 386.147 C 132.229 379.830, 139.378 378.490, 160 378.590 C 177.045 378.672, 179.193 378.889, 187.307 381.352 C 215.985 390.054, 234.566 409.224, 241.973 437.750 L 243.077 442 278.039 442 C 309.130 442, 313 441.826, 313 440.431 C 313 439.568, 311.893 434.494, 310.539 429.154 C 303.592 401.746, 291.151 380.067, 271.519 361.158 C 247.361 337.891, 217.868 324.804, 181.144 321.057 C 169.339 319.852, 149.280 319.872, 137.500 321.100 M 990.500 321.104 C 971.885 323.053, 949.997 329.422, 933.500 337.690 C 919.285 344.813, 908.339 352.597, 896.907 363.712 C 871.227 388.678, 856.794 418.205, 851.438 456.732 C 849.147 473.214, 849.870 505.933, 852.874 521.705 C 866.335 592.376, 918.135 639.904, 990.500 647.979 C 1011.447 650.317, 1039.683 648.677, 1057.702 644.076 C 1104.319 632.174, 1137.460 606.489, 1157.915 566.410 C 1181.667 519.871, 1181.897 450.814, 1158.456 403.856 C 1148.306 383.523, 1132.737 364.691, 1115.187 351.519 C 1094.341 335.874, 1063.294 324.105, 1034.789 321.043 C 1023.658 319.847, 1002.218 319.877, 990.500 321.104 M 1601 484.500 L 1601 645 1634 645 L 1667 645 1667 484.500 L 1667 324 1634 324 L 1601 324 1601 484.500 M 495 374.090 C 465.928 377.833, 440.118 396.110, 427.975 421.553 C 423.946 429.995, 418.559 448.409, 419.444 450.716 C 419.847 451.765, 437.249 451.962, 511.207 451.755 C 598.071 451.512, 602.489 451.413, 602.818 449.706 C 603.828 444.463, 594.546 420.021, 587.837 410.256 C 569.025 382.877, 533.687 369.110, 495 374.090 M 995.167 379.057 C 992.233 379.580, 985.610 381.408, 980.448 383.120 C 949.097 393.516, 928.431 418.294, 920.329 455.204 C 917.719 467.098, 917.719 501.902, 920.329 513.796 C 928.604 551.493, 950.384 576.708, 983 586.352 C 1009.776 594.269, 1034.835 591.911, 1059.500 579.155 C 1076.243 570.496, 1092.282 551.984, 1099.473 533.020 C 1107.576 511.654, 1109.826 483.220, 1105.412 458 C 1099.581 424.687, 1081.570 399.442, 1054.755 386.996 C 1041.764 380.967, 1031.888 378.816, 1015.500 378.445 C 1007.250 378.259, 998.100 378.534, 995.167 379.057 M 418 504.369 C 418 518.374, 423.738 540.483, 430.491 552.500 C 441.297 571.727, 459.309 584.994, 483.634 591.643 C 492.602 594.094, 495.093 594.340, 511 594.337 C 526.799 594.334, 529.471 594.074, 538.491 591.663 C 569.713 583.318, 590.578 563.824, 599.406 534.750 C 599.712 533.741, 600.916 533, 602.249 533 L 604.561 533 603.339 520.750 C 602.667 514.013, 602.091 506.137, 602.059 503.250 L 602 498 510 498 L 418 498 418 504.369" stroke="none" fill="#000000" fill-rule="evenodd"/>
</svg>