<svg width="831" height="370" viewBox="0 0 831 370" fill="none" xmlns="http://www.w3.org/2000/svg">
<path fill-rule="evenodd" clip-rule="evenodd" d="M556.376 2.76366C553.076 4.38966 548.014 6.41767 545.126 7.26967C541.143 8.44667 539.876 9.28568 539.876 10.7497C539.876 12.3287 540.591 12.6787 543.819 12.6787C550.459 12.6787 550.876 14.0707 550.876 36.2347C550.876 46.7457 550.647 55.5747 550.367 55.8537C550.088 56.1337 547.275 55.4647 544.117 54.3667C540.204 53.0057 535.67 52.3537 529.876 52.3177C518.194 52.2457 508.848 56.1517 499.091 65.1867C487.085 76.3017 482.56 87.9777 482.623 107.679C482.666 121.271 484.716 129.039 490.692 138.251C498.805 150.759 507.571 156.037 520.376 156.124C527.266 156.171 529.209 155.771 534.376 153.239C537.676 151.623 542.743 148.065 545.637 145.334C548.531 142.603 551.117 140.587 551.385 140.854C551.652 141.122 552.163 144.131 552.519 147.541C552.876 150.951 553.559 153.983 554.038 154.279C554.779 154.737 559.735 153.133 575.126 147.451C579.559 145.815 578.141 142.679 572.969 142.679C572.009 142.679 570.134 141.518 568.8 140.099L566.376 137.519L565.876 68.8617C565.439 8.84068 565.187 0.17967 563.876 0.00667042C563.051 -0.10233 559.676 1.13766 556.376 2.76366ZM148.576 13.3117C148.228 13.6597 131.39 13.9977 111.159 14.0617L74.3761 14.1787L74.0611 16.3937C73.7321 18.7097 74.0871 18.8767 82.0261 20.1477C84.0331 20.4687 86.2831 21.4637 87.0261 22.3577C88.7891 24.4817 89.5871 135.323 87.8851 141.646C86.7741 145.772 85.9901 146.223 76.5611 148.169C74.3561 148.624 73.8141 149.23 74.0611 150.964L74.3761 153.179L112.876 153.439C134.051 153.583 152.651 153.758 154.209 153.829C158.989 154.046 160.676 151.219 162.54 139.864C164.204 129.726 163.776 124.095 161.352 124.236C160.815 124.267 158.943 126.517 157.19 129.236C146.699 145.516 145.845 146.027 128.393 146.453C113.389 146.818 111.378 146.186 108.399 140.171C106.624 136.587 106.385 133.627 106.059 111.179C105.825 95.0117 106.073 85.2067 106.761 83.4287L107.826 80.6787L118.101 80.7007C131.01 80.7287 135.526 82.4727 139.169 88.8367C140.536 91.2247 142.182 94.8447 142.827 96.8807C144.102 100.906 147.067 102.595 149.424 100.639C150.606 99.6577 150.876 95.6587 150.876 79.1237C150.876 59.5327 150.803 58.7907 148.828 58.1637C146.246 57.3437 144.179 59.0217 143.4 62.5687C143.068 64.0817 141.456 66.9457 139.819 68.9317C136.051 73.5027 130.099 74.9467 116.876 74.4997L107.376 74.1787L107.109 49.4457C106.779 18.9217 105.923 20.6757 121.126 20.6847C126.763 20.6877 133.176 21.1847 135.376 21.7887C140.766 23.2697 146.975 29.8697 149.448 36.7477C151.219 41.6747 151.677 42.1787 154.388 42.1787H157.376L157.12 28.7747C156.968 20.7517 156.417 14.8297 155.748 14.0247C154.609 12.6517 149.722 12.1657 148.576 13.3117ZM376.363 52.5457C374.156 53.5477 369.369 57.5887 365.726 61.5237C362.082 65.4587 358.826 68.6787 358.489 68.6787C358.152 68.6787 357.876 65.0787 357.876 60.6787C357.876 50.9457 356.998 50.5847 349.569 57.2647C346.764 59.7867 341.165 63.6637 337.127 65.8797C333.09 68.0957 329.955 70.4197 330.161 71.0437C330.367 71.6677 332.586 72.4187 335.092 72.7117C343.293 73.6717 342.876 71.7167 342.876 109.191C342.876 146.965 343.037 146.192 334.723 148.216C331.44 149.016 330.376 149.752 330.376 151.227C330.376 153.099 331.209 153.179 350.776 153.179C364.093 153.179 371.701 152.795 372.688 152.074C375.344 150.133 373.341 147.992 368.343 147.428C365.069 147.059 362.841 146.099 361.008 144.265L358.376 141.633V110.406C358.376 80.2997 358.454 79.0347 360.538 75.1787C363.536 69.6317 368.665 64.6787 371.413 64.6787C372.691 64.6787 376.055 66.6777 378.985 69.1787C385.048 74.3537 387.548 74.7337 391.24 71.0427C393.404 68.8777 393.876 67.4867 393.876 63.2647C393.876 57.2057 392.018 54.0537 387.277 52.0727C382.946 50.2627 381.223 50.3377 376.363 52.5457ZM619.767 51.7467C610.107 53.1667 596.013 59.4467 590.848 64.6327C584.144 71.3647 582.159 79.2267 585.949 84.0437C588.468 87.2467 592.082 87.4597 596.651 84.6747C600.536 82.3057 601.876 79.2517 601.876 72.7617C601.876 63.9077 608.192 57.5727 617.704 56.8847C623.148 56.4907 623.815 56.6857 627.205 59.6627C632.074 63.9377 633.049 67.9317 632.684 82.0937L632.376 94.0077L619.966 100.87C593.447 115.533 584.849 124.309 584.898 136.664C584.937 146.531 589.604 153.319 598.098 155.864C606.02 158.237 615.91 153.521 626.807 142.172C630.236 138.601 633.171 135.679 633.329 135.679C633.487 135.679 634.15 138.392 634.802 141.708C637.684 156.356 649.762 159.919 658.911 148.821C663.706 143.003 662.081 137.321 656.7 141.09C653.525 143.313 652.189 143.086 650.149 139.976C648.56 137.553 648.324 133.53 647.876 101.226C647.489 73.3417 647.066 64.6127 646.006 62.6787C643.265 57.6767 638.445 53.6277 633.472 52.1517C628.067 50.5467 627.958 50.5427 619.767 51.7467ZM276.977 55.8037C263.6 61.5747 252.738 74.0847 248.46 88.6467C241.026 113.957 252.097 143.776 272.689 153.905C278.928 156.974 280.003 157.179 289.86 157.179C302.758 157.179 306.88 155.47 316.99 145.932C324.114 139.212 325.434 137.013 324.365 133.644C323.78 131.801 323.164 132.122 317.844 137.048C310.345 143.99 304.311 146.173 294.818 145.377C274.901 143.708 262.148 125.862 263.083 100.971L263.376 93.1787L294.208 92.6787C323.259 92.2077 325.121 92.0667 326.458 90.2377C328.222 87.8237 328.255 88.4787 325.909 79.3077C322.757 66.9857 316.745 59.4307 306.376 54.7657C304.726 54.0227 299.101 53.2347 293.876 53.0137C284.954 52.6357 283.926 52.8057 276.977 55.8037ZM160.865 55.5117C158.768 56.2187 160.022 58.7127 163.126 60.0107C168.595 62.2967 167.3 59.4377 188.572 116.179C195.995 135.979 202.535 152.747 203.105 153.441C205.44 156.286 207.413 152.582 220.026 121.679C239.238 74.6047 243.332 65.0497 245.172 62.9807C246.247 61.7717 248.415 60.4997 249.99 60.1537C253.288 59.4297 254.546 57.9487 253.096 56.4987C251.832 55.2347 220.754 55.4007 219.476 56.6787C217.693 58.4617 220.99 60.6787 225.427 60.6787C234.469 60.6787 234.913 65.2637 227.85 85.6787C219.09 110.996 212.688 127.679 211.732 127.679C210.486 127.679 208.122 122.061 198.733 96.7857C189.159 71.0127 187.38 64.3177 189.533 62.1647C190.35 61.3477 192.674 60.6717 194.697 60.6637C199.184 60.6447 201.368 59.4017 200.569 57.3217C200.062 55.9997 197.071 55.7187 180.912 55.4707C170.43 55.3097 161.409 55.3287 160.865 55.5117ZM398.376 56.6787C397.359 58.3237 398.738 59.5647 402.798 60.6577C406.108 61.5487 406.933 62.3837 408.807 66.7397C412.157 74.5277 419.691 95.4347 430.91 128.084C442.498 161.801 442.198 158.6 435.039 172.192C431.1 179.668 426.507 183.679 421.883 183.679C417.276 183.679 415.523 186.697 416.338 193.223C417.178 199.945 419.463 202.679 424.241 202.679C428.099 202.679 432.234 199.821 434.38 195.671C435.185 194.114 438.58 183.467 441.924 172.01C445.404 160.088 451.342 143.053 455.809 132.179C460.101 121.729 467.965 102.096 473.283 88.5487C478.602 75.0027 483.723 63.2397 484.665 62.4097C485.606 61.5807 487.864 60.5847 489.682 60.1987C492.023 59.7007 492.894 59.0117 492.669 57.8367C492.39 56.3847 490.267 56.1447 475.54 55.9037L458.73 55.6297L459.053 57.9037C459.328 59.8387 460.123 60.2557 464.376 60.6967C467.126 60.9817 469.939 61.5707 470.626 62.0057C473.592 63.8827 471.903 72.0757 463.477 96.6787C452.563 128.542 450.829 133.036 449.839 132.022C448.033 130.173 432.263 84.8667 428.355 70.2997C426.554 63.5887 426.555 63.3867 428.384 62.0497C429.415 61.2957 432.171 60.6787 434.508 60.6787C439.155 60.6787 440.719 59.3987 438.84 57.1347C437.858 55.9517 434.006 55.6787 418.313 55.6787C406.512 55.6787 398.754 56.0677 398.376 56.6787ZM655.876 57.6337C655.876 59.0717 656.791 59.7597 659.34 60.2377C661.246 60.5957 663.239 61.4107 663.769 62.0497C666.279 65.0737 678.436 97.3327 689.926 131.458L698.775 157.738L695.26 165.95C689.641 179.078 685.053 183.679 677.581 183.679C672.565 183.679 670.478 186.458 671.133 192.267C671.777 197.981 674.27 200.654 679.626 201.372C684.61 202.041 689.212 199.612 691.274 195.223C692.061 193.549 695.483 182.954 698.879 171.679C702.274 160.404 708.222 143.529 712.096 134.179C715.971 124.829 722.041 109.754 725.586 100.679C741.803 59.1647 740.265 62.1897 745.936 60.6627C748.914 59.8607 749.914 59.1147 749.676 57.8737C749.388 56.3767 747.438 56.1467 732.939 55.9027C716.193 55.6217 713.368 56.1567 715.841 59.1367C716.666 60.1307 718.811 60.6787 721.876 60.6787C724.908 60.6787 727.088 61.2287 727.891 62.1967C730.389 65.2067 728.17 74.7457 718.498 102.579C709.856 127.446 707.609 132.911 706.559 131.612C706.366 131.374 702.942 121.954 698.95 110.679C691.492 89.6167 684.876 67.9707 684.876 64.6337C684.876 62.2167 687.78 60.6787 692.342 60.6787C696.209 60.6787 698.297 58.1917 695.772 56.5927C695.004 56.1067 685.713 55.7027 675.126 55.6937C656.686 55.6797 655.876 55.7607 655.876 57.6337ZM285.234 57.5787C275.699 60.0167 266.893 70.5197 264.398 82.4287L263.717 85.6787L282.047 85.6767C302.128 85.6757 306.043 84.7907 308.597 79.6787C311.577 73.7147 308.648 64.0327 302.633 59.9657C298.978 57.4947 290.248 56.2967 285.234 57.5787ZM521.64 57.6157C511.34 60.9387 503.113 71.9147 500.006 86.4777C498.371 94.1447 498.604 109.836 500.46 117.035C503.584 129.15 511.482 140.396 519.871 144.676C527.549 148.594 540.773 146.332 545.308 140.325C550.213 133.829 550.876 128.711 550.876 97.3657C550.876 69.9227 550.769 68.2417 548.826 65.0967C545.458 59.6477 540.71 57.3747 531.976 57.0317C527.796 56.8677 523.145 57.1307 521.64 57.6157ZM619.876 105.804C609.17 112.597 605.403 115.831 603.128 120.179C600.91 124.418 600.945 133.609 603.193 137.039C605.51 140.577 610.626 143.671 614.166 143.675C620.329 143.684 628.473 137.25 631.528 129.961C632.434 127.798 632.876 122.306 632.876 113.211C632.876 100.972 632.709 99.6837 631.126 99.7267C630.164 99.7537 625.101 102.489 619.876 105.804ZM295.925 173.9C292.926 175.647 287.751 178.062 284.425 179.267C279.978 180.877 278.376 181.95 278.376 183.318C278.376 184.787 279.255 185.243 282.548 185.483C284.843 185.65 287.215 186.383 287.82 187.112C288.601 188.052 288.841 206.747 288.648 251.523C288.343 322.199 288.941 317.089 280.822 318.475C277.32 319.073 276.376 319.653 276.376 321.207C276.376 323.096 277.229 323.19 296.649 323.45C314.111 323.683 317.004 323.508 317.511 322.187C318.46 319.714 315.931 317.679 311.909 317.679C309.394 317.679 307.568 316.996 306.281 315.574C304.451 313.553 304.366 310.704 304.125 242.977C303.987 204.206 303.623 172.078 303.316 171.582C302.487 170.24 301.876 170.432 295.925 173.9ZM340.376 174.267C337.076 176.112 332.126 178.37 329.376 179.283C326.626 180.196 323.808 181.394 323.114 181.944C321.035 183.591 323.654 185.679 327.798 185.679C329.821 185.679 332.016 186.219 332.676 186.879C334.368 188.571 334.407 310.419 332.717 314.129C331.618 316.54 326.964 318.659 322.733 318.673C321.829 318.676 320.852 319.299 320.561 320.057C319.352 323.208 322.155 323.679 342.107 323.679C358.887 323.679 362.028 323.446 362.519 322.166C363.45 319.742 360.924 317.68 357.004 317.664C355.008 317.655 352.842 317.309 352.189 316.893C349.033 314.887 348.825 310.117 348.903 241.537C348.947 203.654 348.707 172.214 348.37 171.669C347.541 170.329 347.248 170.424 340.376 174.267ZM380.093 185.24C377.446 187.094 374.876 191.744 374.876 194.679C374.876 200.819 381.411 206.364 387.338 205.252C392.491 204.285 395.376 200.432 395.376 194.516C395.376 190.131 394.974 189.155 392.11 186.597C388.395 183.277 383.658 182.742 380.093 185.24ZM0.219062 187.227C-0.692938 189.605 1.18206 190.868 6.98606 191.786C9.86306 192.24 12.5651 193.175 12.9901 193.864C14.6701 196.582 14.9951 209.277 14.6921 260.394C14.3361 320.346 14.8931 316.472 6.49506 317.418C1.57906 317.973 -0.707942 319.715 0.240058 322.185C0.748058 323.51 3.90706 323.68 23.6021 323.448C46.1881 323.181 46.3791 323.161 46.6881 320.986C46.9511 319.14 46.3961 318.696 43.1881 318.178C35.8211 316.991 34.9231 316.636 33.6551 314.417C31.7261 311.041 31.2201 196.955 33.1231 194.355C33.9171 193.269 36.8681 192.055 40.4171 191.355C45.3171 190.388 46.3761 189.824 46.3761 188.179C46.3761 186.245 45.6201 186.17 23.6021 185.91C3.57206 185.674 0.754062 185.832 0.219062 187.227ZM164.752 211.893C161.795 216.411 156.767 222.781 153.578 226.048C150.014 229.701 147.995 232.548 148.338 233.44C148.881 234.855 149.271 234.835 155.584 233.081L157.792 232.468L158.084 273.823C158.369 314.192 158.428 315.277 160.568 319.276C163.81 325.333 167.118 327.148 174.876 327.125C182.726 327.101 188.049 324.635 194.432 318.068C199.167 313.196 200.656 310.059 199.013 308.416C198.264 307.667 196.621 308.581 193.436 311.517C189.428 315.211 188.374 315.679 184.053 315.679C178.603 315.679 176.914 314.408 174.414 308.425C173.125 305.34 172.876 298.824 172.876 268.211V231.679H185.254C198.77 231.679 201.104 230.842 198.927 226.774C197.937 224.925 196.726 224.715 185.607 224.46L173.376 224.179L173.208 215.179C172.983 203.156 173.06 203.679 171.502 203.679C170.746 203.679 167.709 207.375 164.752 211.893ZM106.376 223.609C100.527 225.024 95.3831 228.18 88.7991 234.39C85.1331 237.849 81.8501 240.679 81.5041 240.679C81.1591 240.679 80.8761 237.065 80.8761 232.648C80.8761 223.338 79.5401 221.783 75.0661 225.888C70.6661 229.927 65.9331 232.879 59.9841 235.297C56.0921 236.879 54.3761 238.128 54.3761 239.378C54.3761 240.821 55.3341 241.24 59.2011 241.487C66.9341 241.98 67.0681 242.681 66.6641 280.547C66.4781 297.945 65.9451 312.983 65.4801 313.966C64.4081 316.229 59.7321 318.679 56.4851 318.679C53.4531 318.679 52.2861 320.264 53.8941 322.2C54.8651 323.371 58.6871 323.592 74.7301 323.407C94.1491 323.182 94.3801 323.154 94.6901 320.972C94.9681 319.017 94.4301 318.689 89.9841 318.099C81.1451 316.926 81.3761 317.847 81.3761 283.824C81.3761 250.493 81.8471 247.578 88.4821 239.827C95.9241 231.132 109.043 230.787 117.312 239.069C123.568 245.334 123.876 247.349 123.876 281.989C123.876 312.293 123.856 312.59 121.626 315.067C120.243 316.603 117.643 317.888 114.876 318.404C111.351 319.061 110.376 319.669 110.376 321.211C110.376 323.106 111.155 323.179 131.376 323.179C151.48 323.179 152.376 323.096 152.376 321.243C152.376 319.344 151.924 319.137 143.736 317.291C142.284 316.964 140.723 315.905 140.267 314.938C139.81 313.97 139.198 297.654 138.906 278.679C138.389 245.03 138.317 244.049 135.99 238.9C130.59 226.95 118.459 220.687 106.376 223.609ZM231.876 224.499C222.789 227.545 217.732 230.637 211.32 237.067C190.448 257.999 190.666 294.64 211.787 315.77C220.32 324.307 226.721 326.984 238.876 327.099C246.452 327.17 248.083 326.837 253.876 324.035C265.595 318.368 276.024 306.972 272.917 303.228C271.729 301.798 271.108 302.123 267.167 306.236C261.439 312.213 255.681 314.74 247.648 314.799C237.17 314.877 232.481 313.121 225.168 306.381C216.684 298.561 212.488 286.541 213.053 271.679L213.376 263.179L244.078 262.679C266.779 262.309 275.105 261.853 276.03 260.926C277.914 259.04 275.677 247.748 271.898 240.073C266.488 229.082 258.397 224.104 244.376 223.138C239.201 222.782 235.942 223.137 231.876 224.499ZM436.827 224.041C430.648 225.707 425.736 228.904 420.767 234.493C414.273 241.797 411.593 248.64 411.49 258.179C411.415 265.15 411.803 267.025 414.507 272.758C416.699 277.403 419.121 280.609 422.75 283.67L427.89 288.004L421.403 294.723C410.909 305.593 410.54 309.484 419.462 315.191C422.519 317.146 424.875 319.134 424.698 319.609C424.521 320.083 420.675 323.452 416.15 327.095C411.626 330.738 407.391 334.717 406.738 335.936C404.86 339.446 405.207 348.643 407.388 353.146C409.993 358.524 415.44 363.77 421.418 366.66C428.686 370.173 444.424 370.694 455.862 367.802C476.033 362.701 490.374 348.796 491.633 333.121C492.437 323.097 487.199 313.965 478.103 309.531C473.786 307.427 471.625 307.182 453.199 306.703C434.729 306.223 432.783 306.001 430.199 304.08C426.544 301.362 426.029 297.025 428.926 293.343C431.006 290.698 431.296 290.633 438.224 291.237C448.602 292.142 458.832 289.78 465.876 284.854C472.925 279.924 478.546 271.867 479.868 264.8C481.095 258.234 479.707 248.228 476.769 242.469C475.651 240.278 474.99 238.231 475.301 237.921C475.611 237.611 478.252 237.93 481.171 238.63C487.501 240.148 490.232 239.787 490.697 237.369C491.256 234.465 489.076 232.855 483.049 231.724C468.888 229.065 465.815 228.339 457.114 225.597C447.042 222.424 443.757 222.172 436.827 224.041ZM523.674 224.61C515.794 227.129 510.271 230.603 504.21 236.852C494.173 247.201 488.876 260.676 488.876 275.863C488.876 307.141 511.823 330.952 537.915 326.75C546.376 325.387 551.993 322.437 559.511 315.404C565.864 309.461 567.68 306.215 566.447 303.005C565.915 301.617 564.987 302.117 561.09 305.895C555.434 311.377 551.329 313.57 544.786 314.604C539.118 315.5 529.968 314.295 525.706 312.091C518.56 308.396 511.199 299.68 508.311 291.494C506.378 286.017 504.637 271.054 505.403 266.516L506.038 262.761L536.423 262.47C572.39 262.126 570.889 262.586 568.947 252.499C565.661 235.426 557.463 226.553 542.402 223.768C534.382 222.286 530.379 222.466 523.674 224.61ZM623.376 224.078C616.619 226.215 613.012 228.543 606.739 234.816C603.423 238.132 600.423 240.559 600.072 240.209C599.722 239.858 599.264 236.333 599.054 232.375C598.845 228.417 598.312 224.794 597.87 224.325C597.428 223.855 594.655 225.291 591.707 227.517C588.759 229.743 583.317 232.982 579.613 234.715C575.909 236.448 572.658 238.223 572.388 238.659C571.528 240.051 574.277 241.52 578.366 241.854C584.897 242.389 584.937 242.632 584.638 280.517L584.376 313.854L581.57 316.267C579.817 317.774 577.512 318.679 575.427 318.679C573.459 318.679 571.865 319.264 571.542 320.106C570.337 323.247 573.412 323.726 593.005 323.451C612.007 323.184 612.382 323.138 612.684 321.015C612.955 319.113 612.35 318.748 607.694 318.007C599.644 316.725 599.631 316.669 599.633 283.287C599.634 257.219 599.788 254.747 601.748 249.234C605.325 239.174 612.044 233.714 621.139 233.479C630.982 233.223 639.739 240.152 641.817 249.839C642.418 252.643 642.875 266.75 642.874 282.478C642.873 315.542 642.647 316.49 634.376 318.233C630.45 319.06 629.376 319.704 629.376 321.233C629.376 323.098 630.231 323.179 649.876 323.179C669.983 323.179 670.382 323.138 670.678 321.065C670.939 319.232 670.361 318.881 666.325 318.426C658.095 317.498 658.447 319.095 657.825 279.895C657.209 241.147 656.971 239.655 650.127 231.66C643.46 223.871 633.214 220.967 623.376 224.078ZM708.768 224.067C698.483 227.041 685.885 236.286 679.436 245.592C669.658 259.702 668.264 284.69 676.325 301.378C686.871 323.213 709.297 333.042 728.505 324.249C737.654 320.06 751.734 305.137 749.059 302.462C748.299 301.702 746.453 302.78 742.683 306.187C735.425 312.744 729.967 315.056 721.851 315.009C706.726 314.922 694.157 303.372 689.427 285.214C687.43 277.546 687.421 261.848 689.409 254.214C692.371 242.842 699.345 233.276 707.376 229.569C712.202 227.342 720.896 227.121 724.777 229.128C730.749 232.216 736.077 240.963 738.319 251.36C739.224 255.558 741.342 257.367 743.376 255.679C744.572 254.686 744.876 251.733 744.876 241.102V227.77L741.126 227.126C739.064 226.771 734.761 225.831 731.564 225.037C723.045 222.919 714.059 222.537 708.768 224.067ZM788.574 223.722C780.48 225.739 773.385 230.011 766.357 237.099C755.23 248.322 750.876 259.463 750.876 276.708C750.876 287.783 752.431 294.045 757.669 304.067C768.758 325.285 791.97 333.208 811.908 322.581C819.091 318.753 828.876 308.856 828.876 305.42C828.876 301.366 827.756 301.517 822.686 306.26C815.858 312.646 810.067 315.003 801.186 315.008C795.118 315.012 792.984 314.515 787.521 311.825C783.96 310.072 779.586 306.973 777.799 304.939C771.249 297.478 766.902 283.969 766.884 271.011C766.87 261.998 764.415 262.679 796.918 262.679C814.245 262.679 826.825 262.269 828.45 261.651C831.074 260.653 831.137 260.447 830.542 254.76C829.12 241.153 821.487 229.548 811.502 225.812C805.17 223.443 793.839 222.41 788.574 223.722ZM386.376 227.572C382.046 230.653 374.072 234.948 369.553 236.633C364.894 238.369 366.402 241.079 372.361 241.679C376.393 242.085 377.566 242.65 378.588 244.679C380.191 247.864 380.399 306.256 378.827 311.917C377.696 315.988 376.011 317.267 370.186 318.477C367.342 319.068 366.376 319.764 366.376 321.224C366.376 323.093 367.293 323.191 387.15 323.449C405.761 323.692 407.99 323.546 408.562 322.055C409.392 319.893 406.385 317.679 402.619 317.679C401.038 317.679 398.91 317.232 397.89 316.687C393.913 314.558 393.582 310.322 393.988 266.747C394.37 225.777 394.347 225.176 392.376 224.952C391.276 224.828 388.576 226.006 386.376 227.572ZM439.608 228.756C430.905 233.35 426.26 245.283 427.099 260.891C427.687 271.839 430.054 277.8 435.913 283.093C440.844 287.548 445.672 288.526 450.961 286.141C456.36 283.706 462.488 276.809 463.951 271.52C465.847 264.668 465.632 250.053 463.546 243.997C460.183 234.236 452.305 226.599 445.725 226.723C444.433 226.748 441.681 227.662 439.608 228.756ZM230.103 230.253C224.222 233.184 218.765 239.833 215.768 247.721C212.555 256.177 211.502 255.679 232.626 255.675C249.602 255.672 251.686 255.483 254.651 253.675C260.191 250.297 261.317 244.288 257.78 236.981C253.356 227.842 240.979 224.833 230.103 230.253ZM523.895 229.438C516.764 232.95 508.988 243.702 507.267 252.429L506.626 255.679H525.103C542.689 255.679 543.744 255.569 546.978 253.394C554.981 248.014 553.456 236.442 543.886 229.929C539.687 227.071 529.225 226.814 523.895 229.438ZM787.052 228.766C780.183 230.85 771.188 242.87 769.251 252.552L768.602 255.8L788.323 255.49L808.044 255.179L811.072 251.788C813.825 248.705 814.06 247.906 813.652 242.996C813.179 237.285 811.208 233.762 806.532 230.272C803.39 227.926 792.577 227.09 787.052 228.766ZM434.851 323.654C428.138 324.521 426.055 325.572 422.081 330.099C415.669 337.401 416.893 348.791 424.957 356.855C430.864 362.762 435.258 364.03 447.876 363.469C459.83 362.937 466.158 360.383 472.217 353.645C480.567 344.357 481.187 331.507 473.514 326.764C467.667 323.15 449.855 321.718 434.851 323.654Z" fill="black"/>
</svg>
