<?xml version="1.0" encoding="UTF-8" standalone="no"?>
<svg
   xmlns:svg="http://www.w3.org/2000/svg"
   xmlns="http://www.w3.org/2000/svg"
   version="1.1"
   width="575.89008"
   height="197.44785"
   id="svg4264">
  <defs
     id="defs4266" />
  <g
     transform="translate(-91.626395,-409.92397)"
     id="layer1">
    <path
       d="m 641.2636,500.84237 13.3124,0 0,17.11249 7.9405,0 0,9.95579 -7.9405,0 0,36.23807 -13.3124,0 0,-36.23807 -6.8208,0 0,-9.95579 6.8208,0 0,-17.11249 z m -60.9547,17.11316 13.308,0 0,4.77412 c 3.0342,-2.20568 5.7795,-3.7351 8.2405,-4.59945 2.4632,-0.85989 4.9801,-1.2943 7.5597,-1.2943 5.2802,0 9.761,1.59883 13.4469,4.79202 3.0946,2.71176 4.6442,6.72453 4.6442,12.03831 l 0,30.48317 -13.3125,0 0,-20.18253 c 0,-5.50412 -0.2843,-9.15637 -0.8509,-10.96122 -0.5665,-1.80485 -1.5563,-3.17977 -2.967,-4.12697 -1.4085,-0.94273 -3.1529,-1.41746 -5.2309,-1.41746 -2.6894,0 -5.0048,0.7815 -6.9306,2.34899 -1.9302,1.56749 -3.2715,3.73286 -4.0172,6.49612 -0.3874,1.43985 -0.5822,4.55467 -0.5822,9.35118 l 0,18.49189 -13.308,0 0,-46.19387 z m -21.9941,17.33597 c -0.8061,-2.5147 -2.3915,-4.55915 -4.7562,-6.1356 -2.3669,-1.57644 -5.11449,-2.36467 -8.24051,-2.36467 -3.39473,0 -6.37072,0.88675 -8.93244,2.65578 -1.6078,1.10395 -3.09691,3.05436 -4.46734,5.84449 l 26.39649,0 z m 12.1436,9.05783 -39.09766,0 c 0.56205,3.28277 2.0646,5.89599 4.51212,7.83297 2.44304,1.9392 5.56234,2.90656 9.3579,2.90656 4.53451,0 8.43314,-1.51374 11.69124,-4.53899 l 10.229,4.5793 c -2.5506,3.45071 -5.6027,6.00571 -9.1631,7.65606 -3.5582,1.65258 -7.77925,2.4811 -12.66981,2.4811 -7.59335,0 -13.7715,-2.27733 -18.54338,-6.83648 -4.77412,-4.5569 -7.15894,-10.2648 -7.15894,-17.12592 0,-7.02458 2.38258,-12.86012 7.14998,-17.50212 4.76965,-4.642 10.74849,-6.96413 17.93879,-6.96413 7.63366,0 13.84316,2.31765 18.62396,6.95293 4.7853,4.63529 7.1791,10.75521 7.1791,18.362 l -0.049,2.19672 z m -55.08759,-16.95282 -10.13045,5.32274 c -1.90785,-1.8877 -3.78884,-3.20215 -5.64744,-3.93439 -1.86082,-0.73225 -4.03963,-1.09725 -6.53866,-1.09725 -4.55466,0 -8.23379,1.28086 -11.04855,3.84706 -2.80804,2.5662 -4.21654,5.85121 -4.21654,9.8595 0,3.89633 1.35477,7.08056 4.05979,9.54824 2.70504,2.46767 6.25876,3.69927 10.65893,3.69927 5.44142,0 9.68035,-1.75111 12.7168,-5.25556 l 9.58631,6.24084 c -5.20183,6.42894 -12.54886,9.64005 -22.03216,9.64005 -8.53385,0 -15.21359,-2.39825 -20.04369,-7.19701 -4.83235,-4.79652 -7.24851,-10.41483 -7.24851,-16.84825 0,-4.45838 1.17113,-8.5652 3.52685,-12.32045 2.34675,-3.75302 5.62727,-6.69989 9.83486,-8.84512 4.20982,-2.14521 8.91452,-3.22006 14.12082,-3.22006 4.8189,0 9.14742,0.91586 12.98552,2.74534 3.83587,1.83396 6.97532,4.43822 9.41612,7.81505 m -85.01202,0.40172 c -4.15384,0 -7.61128,1.24279 -10.37005,3.72167 -2.7655,2.48335 -4.14489,5.65638 -4.14489,9.5236 0,3.98366 1.36371,7.20597 4.09339,9.67365 2.72966,2.46991 6.18933,3.69926 10.37452,3.69926 4.18071,0 7.66725,-1.24503 10.44395,-3.73958 2.77893,-2.49902 4.16728,-5.7079 4.16728,-9.63333 0,-3.92319 -1.36372,-7.11415 -4.09339,-9.56392 -2.72966,-2.45423 -6.22069,-3.68135 -10.47081,-3.68135 m -0.2396,-10.96122 c 5.02267,0 9.74305,1.08829 14.16112,3.25814 4.42033,2.17657 7.86879,5.12345 10.3499,8.84735 2.47664,3.72613 3.71719,7.75011 3.71719,12.06741 0,4.34642 -1.24951,8.40846 -3.74405,12.19057 -2.49679,3.77989 -5.896,6.7402 -10.19988,8.86975 -4.30611,2.12954 -9.04887,3.19544 -14.23278,3.19544 -7.62919,0 -14.14545,-2.34676 -19.54209,-7.04699 -5.39664,-4.70021 -8.09496,-10.40811 -8.09496,-17.12367 0,-7.19925 3.04765,-13.19378 9.14741,-17.99253 5.34514,-4.17623 11.49416,-6.26547 18.43814,-6.26547 m -82.79182,1.11852 13.31022,0 0,4.77412 c 3.03196,-2.20568 5.77955,-3.7351 8.23826,-4.59945 2.4632,-0.85989 4.98237,-1.2943 7.55752,-1.2943 5.28244,0 9.76322,1.59883 13.44905,4.79202 3.09467,2.71176 4.64424,6.72453 4.64424,12.03831 l 0,30.48317 -13.30796,0 0,-20.18253 c 0,-5.50412 -0.28663,-9.15637 -0.85093,-10.96122 -0.56653,-1.80485 -1.55628,-3.17977 -2.96702,-4.12697 -1.41075,-0.94273 -3.15514,-1.41746 -5.23094,-1.41746 -2.69384,0 -5.00476,0.7815 -6.93277,2.34899 -1.93249,1.56749 -3.27158,3.73286 -4.015,6.49612 -0.38964,1.43985 -0.58445,4.55467 -0.58445,9.35118 l 0,18.49189 -13.31022,0 0,-46.19387 z m -59.27766,0 13.30798,0 0,4.77412 c 3.02972,-2.20568 5.77731,-3.7351 8.2405,-4.59945 2.4632,-0.85989 4.9779,-1.2943 7.55528,-1.2943 5.2802,0 9.76322,1.59883 13.44905,4.79202 3.09692,2.71176 4.64649,6.72453 4.64649,12.03831 l 0,30.48317 -13.31021,0 0,-20.18253 c 0,-5.50412 -0.28439,-9.15637 -0.85093,-10.96122 -0.56877,-1.80485 -1.55628,-3.17977 -2.96927,-4.12697 -1.41074,-0.94273 -3.15289,-1.41746 -5.23093,-1.41746 -2.68936,0 -5.00252,0.7815 -6.93277,2.34899 -1.92801,1.56749 -3.26709,3.73286 -4.01276,6.49612 -0.3874,1.43985 -0.58445,4.55467 -0.58445,9.35118 l 0,18.49189 -13.30798,0 0,-46.19387 z m -26.65781,0.001 13.3102,0 0,46.19387 -13.3102,0 0,-46.19387 z m 6.74019,-19.01586 c 2.32436,0 4.31731,0.73448 5.97885,2.2012 1.65706,1.46896 2.49006,3.24694 2.49006,5.33394 0,2.0646 -0.82181,3.82019 -2.46766,5.27571 -1.64587,1.45329 -3.61419,2.17881 -5.90497,2.17881 -2.35122,0 -4.36432,-0.7412 -6.02362,-2.22583 -1.66154,-1.48015 -2.49231,-3.27829 -2.49231,-5.39888 0,-2.02877 0.82181,-3.76197 2.46767,-5.20406 1.64586,-1.43985 3.62986,-2.16089 5.95198,-2.16089"
       id="path184"
       style="fill:#000000;fill-opacity:1;fill-rule:nonzero;stroke:none" />
    <path
       d="m 198.95437,571.52307 c -27.13544,15.09715 -54.84414,16.22126 -54.84414,16.22126 -36.7128,1.03455 -32.44253,-28.23045 -32.44253,-28.23045 1.66827,-23.16298 15.99734,-40.56435 15.99734,-40.56435 14.58883,-19.98993 20.7401,-19.32936 20.7401,-19.32936 2.10491,-0.35156 5.17943,1.14875 5.17943,1.14875 2.81924,1.86531 2.9424,-0.22616 2.9424,-0.22616 1.49583,-2.31093 2.46991,-0.95618 2.46991,-0.95618 5.1548,6.29683 10.46858,0.33365 10.46858,0.33365 3.20887,-3.39248 12.45929,-8.84062 12.45929,-8.84062 8.51594,-5.07643 17.48196,4.07099 17.48196,4.07099 15.72414,12.75935 16.12945,42.43188 16.12945,42.43188 1.04574,25.50975 -16.58179,33.94059 -16.58179,33.94059 m -2.8349,-94.41874 c -8.97723,-3.02972 -36.37019,20.16685 -36.37019,20.16685 -3.05437,-11.7987 -10.31631,-11.12245 -10.31631,-11.12245 -10.97242,-0.3426 -23.19882,14.87994 -23.19882,14.87994 -19.64062,20.80505 -24.73048,38.89834 -24.73048,38.89834 -9.29297,24.31845 -2.44975,40.55762 -2.44975,40.55762 10.90747,21.68062 39.96197,21.7881 39.96197,21.7881 21.9202,1.54958 55.3368,-15.58757 55.3368,-15.58757 39.57906,-17.1931 35.36923,-54.62695 35.36923,-54.62695 -2.21463,-46.47825 -33.60245,-54.95388 -33.60245,-54.95388 m -7.04384,49.54448 c 0,0 4.18519,-5.65415 -1.7847,-9.99833 -5.9766,-4.34642 -12.25999,6.40655 -11.371,13.27663 0.62924,4.86369 7.34704,11.64642 12.22416,4.71814 1.82725,-2.59755 -0.86435,-3.62763 0.93154,-7.99644 m -23.29489,3.94739 c 0,0 2.10492,-16.02869 -6.31249,-12.42794 -8.41965,3.58955 -7.51947,22.91667 -2.20792,27.0929 5.31602,4.17624 12.73247,-0.0962 11.3307,-6.8947 -1.40626,-6.79843 -2.81029,-7.77026 -2.81029,-7.77026 m -4.95438,-81.7924 c -12.46152,2.21911 -48.76678,8.55623 -45.46833,0.43888 6.23411,-15.3345 43.38805,-18.88822 43.38805,-18.88822 0,0 0.92482,0.44561 2.30645,2.66697 1.39058,2.22135 14.08276,0.44338 16.62209,-0.44562 2.53708,-0.88899 5.53995,-4.88831 22.61884,-1.78021 17.07666,3.11258 -28.55291,16.05778 -39.4671,18.0082 m 60.69984,-21.77913 c -9.2325,-11.56135 -30.00618,-10.22673 -36.69488,-8.8899 0,0 -12.2376,-6.2274 -32.08424,-1.33683 -19.84663,4.89056 -50.77764,20.22058 -54.6986,38.89161 -3.89409,18.53217 60.4692,3.32978 65.77626,1.99742 5.30931,-1.33236 66.93397,-19.11216 57.70146,-30.6623"
       id="path200"
       style="fill:#b20932;fill-opacity:1;fill-rule:nonzero;stroke:none" />
  </g>
</svg>
