<svg width="673" height="125" viewBox="0 0 673 125" fill="none" xmlns="http://www.w3.org/2000/svg">
<g clip-path="url(#clip0_71_5)">
<path d="M50.2 0.300049H25.2V25.1001H50.2V0.300049Z" fill="#FFD800"/>
<path d="M150.3 0.300049H125.3V25.1001H150.3V0.300049Z" fill="#FFD800"/>
<path d="M75.2 25.1001H25.2V49.9001H75.2V25.1001Z" fill="#FFAF00"/>
<path d="M150.3 25.1001H100.3V49.9001H150.3V25.1001Z" fill="#FFAF00"/>
<path d="M150.3 49.8H25.2V74.6001H150.3V49.8Z" fill="#FF8205"/>
<path d="M50.2 74.6001H25.2V99.4001H50.2V74.6001Z" fill="#FA500F"/>
<path d="M100.2 74.6001H75.2V99.4001H100.2V74.6001Z" fill="#FA500F"/>
<path d="M150.3 74.6001H125.3V99.4001H150.3V74.6001Z" fill="#FA500F"/>
<path d="M75.2 99.4H0.0999756V124.2H75.2V99.4Z" fill="#E10500"/>
<path d="M175.3 99.4H100.2V124.2H175.3V99.4Z" fill="#E10500"/>
<path d="M222.4 97.1V22.6H244.9L258.4 73.4L271.8 22.6H294.4V97.1H280.4V38.5L265.6 97.1H251.1L236.4 38.5V97.1H222.4Z" fill="black"/>
<path d="M309.2 35.8999V22.7H323.5V35.8999H309.2ZM309.2 97.0999V43.0999H323.5V97.0999H309.2Z" fill="black"/>
<path d="M333.1 81.6999L347.4 79.4999C348 82.2999 349.2 84.3999 351.1 85.7999C353 87.1999 355.6 87.9999 358.9 87.9999C362.2 87.9999 365.4 87.2999 367.2 85.9999C368.5 85.0999 369.1 83.7999 369.1 82.1999C369.1 80.5999 368.8 80.1999 368.1 79.4999C367.4 78.7999 365.8 78.1999 363.3 77.5999C351.8 75.0999 344.5 72.6999 341.4 70.5999C337.1 67.6999 335 63.5999 335 58.4999C335 53.3999 336.8 49.8999 340.5 46.6999C344.2 43.4999 349.9 41.8999 357.7 41.8999C365.5 41.8999 370.6 43.0999 374.2 45.4999C377.8 47.8999 380.3 51.4999 381.6 56.1999L368.1 58.6999C367.5 56.5999 366.4 54.9999 364.8 53.8999C363.2 52.7999 360.9 52.1999 357.9 52.1999C354.9 52.1999 351.4 52.6999 349.8 53.7999C348.7 54.4999 348.2 55.4999 348.2 56.6999C348.2 57.8999 348.7 58.5999 349.6 59.2999C350.9 60.1999 355.3 61.5999 362.9 63.2999C370.5 64.9999 375.8 67.0999 378.8 69.6999C381.8 72.1999 383.3 75.7999 383.3 80.2999C383.3 84.7999 381.2 89.4999 377.1 93.0999C373 96.6999 366.9 98.3999 358.8 98.3999C350.7 98.3999 345.6 96.8999 341.3 93.8999C337 90.8999 334.2 86.8999 332.9 81.7999L333.1 81.6999Z" fill="black"/>
<path d="M420.7 43.2V54.6H410.9V76.4C410.9 80.8 410.9 83.4 411.2 84.1C411.4 84.8 411.8 85.4 412.5 85.9C413.2 86.4 414 86.6 414.9 86.6C415.8 86.6 418.1 86.1 420.6 85.2L421.8 96.3C418.5 97.7 414.7 98.4 410.5 98.4C406.3 98.4 405.6 98 403.5 97.1C401.4 96.2 399.9 95.1 399 93.7C398.1 92.3 397.4 90.5 397 88.1C396.7 86.4 396.5 83.1 396.5 78V54.5H389.9V43.1H396.5V32.4L410.8 24.1V43.2H420.6H420.7Z" fill="black"/>
<path d="M444.3 97.0999H430V43.0999H443.3V50.7999C445.6 47.1999 447.6 44.7999 449.4 43.5999C451.2 42.3999 453.3 41.8999 455.6 41.8999C457.9 41.8999 462 42.7999 465 44.5999L460.6 57.0999C458.2 55.4999 456 54.7999 453.9 54.7999C451.8 54.7999 450.2 55.3999 448.8 56.4999C447.4 57.5999 446.3 59.5999 445.5 62.4999C444.7 65.3999 444.3 71.3999 444.3 80.5999V97.2999V97.0999Z" fill="black"/>
<path d="M481.8 59.5999L468.8 57.2999C470.3 52.0999 472.8 48.1999 476.3 45.6999C479.9 43.1999 485.1 41.8999 492.2 41.8999C499.3 41.8999 503.3 42.6999 506.4 44.1999C509.5 45.6999 511.7 47.5999 513 49.8999C514.3 52.1999 514.9 56.4999 514.9 62.6999L514.7 79.3999C514.7 84.0999 514.9 87.5999 515.4 89.8999C515.9 92.1999 516.7 94.5999 518 97.0999H503.9C503.5 96.1999 503.1 94.6999 502.5 92.8999C502.3 92.0999 502.1 91.4999 502 91.1999C499.6 93.5999 497 95.3999 494.2 96.4999C491.4 97.5999 488.5 98.2999 485.3 98.2999C479.7 98.2999 475.4 96.7999 472.2 93.7999C469 90.7999 467.4 86.9999 467.4 82.3999C467.4 77.7999 468.1 76.5999 469.6 74.1999C471.1 71.7999 473.1 69.9999 475.7 68.6999C478.3 67.3999 482.1 66.2999 487.1 65.3999C493.8 64.0999 498.4 62.9999 501 61.8999V60.4999C501 57.7999 500.3 55.7999 499 54.5999C497.6 53.3999 495.1 52.7999 491.3 52.7999C487.5 52.7999 486.8 53.2999 485.4 54.2999C484 55.2999 482.8 57.0999 481.9 59.5999H481.8ZM500.9 71.1999C499.1 71.7999 496.2 72.4999 492.2 73.3999C488.2 74.1999 485.6 75.0999 484.4 75.8999C482.5 77.1999 481.6 78.8999 481.6 80.8999C481.6 82.8999 482.3 84.5999 483.8 86.0999C485.3 87.5999 487.2 88.2999 489.5 88.2999C491.8 88.2999 494.5 87.4999 496.9 85.7999C498.6 84.4999 499.8 82.8999 500.3 81.0999C500.7 79.8999 500.9 77.5999 500.9 74.0999V71.2999V71.1999Z" fill="black"/>
<path d="M529 97.1V22.6H543.3V97.1H529Z" fill="black"/>
<path d="M650.3 97.1H633.9L627.4 80.2H597.6L591.5 97.1H575.5L604.5 22.6H620.4L650.2 97.1H650.3ZM622.6 67.7L612.3 40.1L602.2 67.7H622.5H622.6Z" fill="black"/>
<path d="M657.8 97.1V22.6H672.8V97.1H657.8Z" fill="black"/>
</g>
<defs>
<clipPath id="clip0_71_5">
<rect width="673" height="125" fill="white"/>
</clipPath>
</defs>
</svg>
