<?xml version="1.0" encoding="UTF-8" standalone="no" ?>
<!DOCTYPE svg PUBLIC "-//W3C//DTD SVG 1.1//EN" "http://www.w3.org/Graphics/SVG/1.1/DTD/svg11.dtd">
<svg xmlns="http://www.w3.org/2000/svg" xmlns:xlink="http://www.w3.org/1999/xlink" version="1.1" width="1280" height="1024" viewBox="0 0 1280 1024" xml:space="preserve">
<desc>Created with Fabric.js 5.3.0</desc>
<defs>
</defs>
<g transform="matrix(1 0 0 1 640 512)" id="background-logo"  >
<rect style="stroke: none; stroke-width: 0; stroke-dasharray: none; stroke-linecap: butt; stroke-dashoffset: 0; stroke-linejoin: miter; stroke-miterlimit: 4; fill: rgb(0,0,0); fill-rule: nonzero; opacity: 1;"  paint-order="stroke"  x="-640" y="-512" rx="0" ry="0" width="1280" height="1024" />
</g>
<g transform="matrix(1.9211538461538462 0 0 1.9211538461538462 640.7284250572378 597.2377362134368)" id="text-logo"  >
<g style=""  paint-order="stroke"   >
		<g transform="matrix(1 0 0 1 5.684342e-14 0)" id="text-logo-path-0"  >
<path style="stroke: none; stroke-width: 0; stroke-dasharray: none; stroke-linecap: butt; stroke-dashoffset: 0; stroke-linejoin: miter; stroke-miterlimit: 4; fill: rgb(255,190,88); fill-rule: nonzero; opacity: 1;"  paint-order="stroke"  transform=" translate(-188.32, 20.715)" d="M 15.83 0 L 1.98 0 L 1.98 -2.55 Q 1.98 -3.43 2.89 -3.6 L 2.89 -3.6 L 6.15 -4.3 L 6.15 -37.35 Q 3.46 -37.84 2.89 -38.03 L 2.89 -38.03 Q 1.98 -38.2 1.98 -39.08 L 1.98 -39.08 L 1.98 -41.63 L 10.34 -41.63 Q 11.16 -41.63 11.5 -41.46 L 11.5 -41.46 Q 11.98 -41.21 12.23 -40.72 L 12.23 -40.72 L 26.56 -15.07 Q 27.16 -14.08 27.9 -12.06 L 27.9 -12.06 Q 28.29 -13.23 29.23 -15.15 L 29.23 -15.15 L 43.27 -40.72 Q 43.5 -41.18 44.07 -41.46 L 44.07 -41.46 Q 44.41 -41.63 45.23 -41.63 L 45.23 -41.63 L 53.58 -41.63 L 53.58 -39.08 Q 53.58 -38.2 52.68 -38.03 L 52.68 -38.03 L 49.36 -37.35 L 49.36 -4.3 Q 51.97 -3.82 52.68 -3.6 L 52.68 -3.6 Q 53.58 -3.43 53.58 -2.55 L 53.58 -2.55 L 53.58 0 L 39.68 0 L 39.68 -2.55 Q 39.68 -3.43 40.55 -3.6 L 40.55 -3.6 Q 42.4 -3.96 44.43 -4.3 L 44.43 -4.3 L 44.43 -30.56 Q 44.43 -32.37 44.55 -33.3 L 44.55 -33.3 L 30.27 -7.31 Q 29.59 -5.98 28.29 -5.98 L 28.29 -5.98 L 27.5 -5.98 Q 26.08 -5.98 25.4 -7.31 L 25.4 -7.31 L 10.9 -33.36 L 10.96 -33.42 Q 11.13 -31.86 11.13 -30.61 L 11.13 -30.61 L 11.13 -4.3 Q 13.91 -3.85 15.07 -3.6 L 15.07 -3.6 Q 15.83 -3.43 15.83 -2.55 L 15.83 -2.55 L 15.83 0 Z M 68.64 -12.12 Q 67.14 -16.06 67.14 -20.7 Q 67.14 -25.35 68.64 -29.28 L 68.64 -29.28 Q 70.11 -33.19 72.83 -36.02 Q 75.55 -38.86 79.32 -40.41 L 79.32 -40.41 Q 83.17 -42 87.67 -42 Q 92.18 -42 96.03 -40.41 L 96.03 -40.41 Q 99.91 -38.83 102.51 -36.08 L 102.51 -36.08 Q 105.23 -33.25 106.7 -29.34 L 106.7 -29.34 Q 108.15 -25.54 108.15 -20.76 L 108.15 -20.76 L 108.09 -20.65 Q 108.09 -15.92 106.65 -12.12 L 106.65 -12.12 Q 105.17 -8.21 102.46 -5.38 L 102.46 -5.38 Q 99.79 -2.61 96.03 -1.05 L 96.03 -1.05 Q 92.09 0.57 87.67 0.57 Q 83.25 0.57 79.32 -1.05 L 79.32 -1.05 Q 75.44 -2.63 72.83 -5.38 L 72.83 -5.38 Q 70.11 -8.21 68.64 -12.12 L 68.64 -12.12 Z M 72.83 -20.65 L 72.83 -20.65 Q 72.83 -16.82 73.88 -13.79 L 73.88 -13.79 Q 74.9 -10.85 76.88 -8.69 L 76.88 -8.69 Q 78.84 -6.57 81.53 -5.47 L 81.53 -5.47 Q 84.36 -4.3 87.62 -4.3 Q 90.87 -4.3 93.7 -5.47 L 93.7 -5.47 Q 96.39 -6.57 98.35 -8.69 L 98.35 -8.69 Q 100.25 -10.76 101.29 -13.79 Q 102.34 -16.82 102.34 -20.65 L 102.34 -20.65 L 102.29 -20.65 Q 102.29 -24.53 101.24 -27.56 L 101.24 -27.56 Q 100.1 -30.78 98.35 -32.71 L 98.35 -32.71 Q 96.42 -34.81 93.7 -35.91 L 93.7 -35.91 Q 91.01 -37.01 87.56 -37.01 L 87.56 -37.01 Q 84.22 -37.01 81.53 -35.91 L 81.53 -35.91 Q 78.81 -34.81 76.88 -32.71 L 76.88 -32.71 Q 74.93 -30.59 73.88 -27.56 Q 72.83 -24.53 72.83 -20.65 Z M 135.98 0 L 122.13 0 L 122.13 -2.55 Q 122.13 -3.43 123.04 -3.6 L 123.04 -3.6 L 126.29 -4.3 L 126.29 -37.35 Q 123.6 -37.84 123.04 -38.03 L 123.04 -38.03 Q 122.13 -38.2 122.13 -39.08 L 122.13 -39.08 L 122.13 -41.63 L 130.49 -41.63 Q 131.31 -41.63 131.65 -41.46 L 131.65 -41.46 Q 132.13 -41.21 132.38 -40.72 L 132.38 -40.72 L 146.71 -15.07 Q 147.31 -14.08 148.04 -12.06 L 148.04 -12.06 Q 148.44 -13.23 149.37 -15.15 L 149.37 -15.15 L 163.42 -40.72 Q 163.65 -41.18 164.21 -41.46 L 164.21 -41.46 Q 164.55 -41.63 165.38 -41.63 L 165.38 -41.63 L 173.73 -41.63 L 173.73 -39.08 Q 173.73 -38.2 172.82 -38.03 L 172.82 -38.03 L 169.51 -37.35 L 169.51 -4.3 Q 172.12 -3.82 172.82 -3.6 L 172.82 -3.6 Q 173.73 -3.43 173.73 -2.55 L 173.73 -2.55 L 173.73 0 L 159.82 0 L 159.82 -2.55 Q 159.82 -3.43 160.7 -3.6 L 160.7 -3.6 Q 162.54 -3.96 164.58 -4.3 L 164.58 -4.3 L 164.58 -30.56 Q 164.58 -32.37 164.7 -33.3 L 164.7 -33.3 L 150.42 -7.31 Q 149.74 -5.98 148.44 -5.98 L 148.44 -5.98 L 147.65 -5.98 Q 146.23 -5.98 145.55 -7.31 L 145.55 -7.31 L 131.05 -33.36 L 131.11 -33.42 Q 131.28 -31.86 131.28 -30.61 L 131.28 -30.61 L 131.28 -4.3 Q 134.05 -3.85 135.21 -3.6 L 135.21 -3.6 Q 135.98 -3.43 135.98 -2.55 L 135.98 -2.55 L 135.98 0 Z M 217.79 0 L 188 0 L 188 -2.44 Q 188 -3.37 188.85 -3.54 L 188.85 -3.54 L 192.16 -4.16 L 192.16 -37.3 Q 189.36 -37.81 188.85 -37.98 L 188.85 -37.98 Q 188 -38.15 188 -39.08 L 188 -39.08 L 188 -41.52 L 217.79 -41.52 L 217.79 -31.49 L 215.01 -31.49 Q 213.97 -31.49 213.8 -32.48 L 213.8 -32.48 Q 213.8 -32.54 213.75 -33.05 Q 213.71 -33.56 213.6 -34.66 Q 213.48 -35.77 213.4 -36.96 L 213.4 -36.96 L 197.85 -36.96 L 197.85 -23.14 L 213.14 -23.14 L 213.14 -18.75 L 197.85 -18.75 L 197.85 -4.53 L 213.4 -4.53 Q 213.74 -8.35 213.74 -8.69 L 213.74 -8.69 Q 213.88 -9.63 215.01 -9.63 L 215.01 -9.63 L 217.79 -9.63 L 217.79 0 Z M 246.39 0.06 L 232.59 0.06 L 232.59 -2.44 Q 232.59 -3.31 233.44 -3.48 L 233.44 -3.48 L 236.76 -4.16 L 236.76 -37.24 Q 233.95 -37.75 233.44 -37.92 L 233.44 -37.92 Q 232.59 -38.09 232.59 -39.03 L 232.59 -39.03 L 232.59 -41.52 L 239.64 -41.52 Q 240.41 -41.52 240.75 -41.35 L 240.75 -41.35 Q 241.03 -41.21 241.63 -40.61 L 241.63 -40.61 L 265.64 -9.29 L 265.64 -9.18 Q 265.53 -10 265.53 -12.06 L 265.53 -12.06 L 265.53 -37.24 Q 264.54 -37.38 263.67 -37.54 Q 262.81 -37.69 262.29 -37.81 Q 261.76 -37.92 261.71 -37.92 L 261.71 -37.92 Q 260.77 -38.12 260.77 -38.97 L 260.77 -38.97 L 260.77 -41.52 L 265.53 -41.52 L 270.46 -41.52 L 274.68 -41.52 L 274.68 -38.97 Q 274.68 -38.09 273.77 -37.92 L 273.77 -37.92 L 270.46 -37.24 L 270.46 0.06 L 267.63 0.06 Q 266.44 0.06 265.64 -0.93 L 265.64 -0.93 L 241.57 -32.26 Q 241.68 -31.27 241.68 -29.57 L 241.68 -29.57 L 241.68 -4.16 Q 243.47 -3.91 245.56 -3.48 L 245.56 -3.48 Q 246.39 -3.31 246.39 -2.44 L 246.39 -2.44 L 246.39 0.06 Z M 290.67 -32.37 L 287.9 -32.37 L 287.9 -41.52 L 319.22 -41.52 L 321.2 -41.52 L 322.11 -41.52 L 322.11 -32.37 L 319.27 -32.37 Q 318.34 -32.37 318.17 -32.94 L 318.17 -32.94 Q 317.89 -33.9 317.6 -36.76 L 317.6 -36.76 L 307.86 -36.76 L 307.86 -4.16 Q 308.09 -4.16 308.54 -4.05 L 308.54 -4.05 Q 311.29 -3.54 311.46 -3.48 L 311.46 -3.48 Q 312.02 -3.31 312.02 -2.44 L 312.02 -2.44 L 312.02 0 L 297.98 0 L 297.98 -2.44 Q 297.98 -3.43 298.97 -3.6 L 298.97 -3.6 Q 299.25 -3.65 300.3 -3.88 Q 301.35 -4.11 302.17 -4.25 L 302.17 -4.25 L 302.17 -36.82 L 292.37 -36.82 Q 292.06 -33.7 291.83 -32.94 L 291.83 -32.94 Q 291.66 -32.37 290.67 -32.37 L 290.67 -32.37 Z M 335.15 -12.12 Q 333.65 -16.06 333.65 -20.7 Q 333.65 -25.35 335.15 -29.28 L 335.15 -29.28 Q 336.63 -33.19 339.35 -36.02 Q 342.06 -38.86 345.83 -40.41 L 345.83 -40.41 Q 349.68 -42 354.19 -42 Q 358.69 -42 362.54 -40.41 L 362.54 -40.41 Q 366.42 -38.83 369.03 -36.08 L 369.03 -36.08 Q 371.74 -33.25 373.22 -29.34 L 373.22 -29.34 Q 374.66 -25.54 374.66 -20.76 L 374.66 -20.76 L 374.6 -20.65 Q 374.6 -15.92 373.16 -12.12 L 373.16 -12.12 Q 371.69 -8.21 368.97 -5.38 L 368.97 -5.38 Q 366.31 -2.61 362.54 -1.05 L 362.54 -1.05 Q 358.6 0.57 354.19 0.57 Q 349.77 0.57 345.83 -1.05 L 345.83 -1.05 Q 341.95 -2.63 339.35 -5.38 L 339.35 -5.38 Q 336.63 -8.21 335.15 -12.12 L 335.15 -12.12 Z M 339.35 -20.65 L 339.35 -20.65 Q 339.35 -16.82 340.39 -13.79 L 340.39 -13.79 Q 341.41 -10.85 343.4 -8.69 L 343.4 -8.69 Q 345.35 -6.57 348.04 -5.47 L 348.04 -5.47 Q 350.87 -4.3 354.13 -4.3 Q 357.39 -4.3 360.22 -5.47 L 360.22 -5.47 Q 362.91 -6.57 364.86 -8.69 L 364.86 -8.69 Q 366.76 -10.76 367.81 -13.79 Q 368.86 -16.82 368.86 -20.65 L 368.86 -20.65 L 368.8 -20.65 Q 368.8 -24.53 367.75 -27.56 L 367.75 -27.56 Q 366.62 -30.78 364.86 -32.71 L 364.86 -32.71 Q 362.94 -34.81 360.22 -35.91 L 360.22 -35.91 Q 357.53 -37.01 354.07 -37.01 L 354.07 -37.01 Q 350.73 -37.01 348.04 -35.91 L 348.04 -35.91 Q 345.32 -34.81 343.4 -32.71 L 343.4 -32.71 Q 341.44 -30.59 340.39 -27.56 Q 339.35 -24.53 339.35 -20.65 Z" stroke-linecap="round" />
</g>
</g>
</g>
<g transform="matrix(1.9211538461538462 0 0 1.9211538461538462 640.074744956577 685.0261450845306)" id="tagline-f6eee4fd-2d65-4713-9e7c-daa13ecf352d-logo"  >
<g style=""  paint-order="stroke"   >
		<g transform="matrix(1 0 0 1 -5.684342e-14 0)" id="tagline-f6eee4fd-2d65-4713-9e7c-daa13ecf352d-logo-path-0"  >
<path style="stroke: none; stroke-width: 0; stroke-dasharray: none; stroke-linecap: butt; stroke-dashoffset: 0; stroke-linejoin: miter; stroke-miterlimit: 4; fill: rgb(255,190,88); fill-rule: nonzero; opacity: 1;"  paint-order="stroke"  transform=" translate(-264.95500000000004, 7.15)" d="M 5.5 0 L 0.68 0 L 0.68 -0.86 Q 0.68 -1.18 0.96 -1.24 L 0.96 -1.24 L 2.12 -1.46 L 2.12 -12.88 Q 1.15 -13.06 0.92 -13.12 Q 0.68 -13.17 0.68 -13.48 L 0.68 -13.48 L 0.68 -14.32 L 5.5 -14.32 L 5.5 -13.48 Q 5.5 -13.15 5.2 -13.1 L 5.2 -13.1 L 4.04 -12.88 L 4.04 -1.46 Q 4.94 -1.3 5.26 -1.22 L 5.26 -1.22 Q 5.5 -1.16 5.5 -0.86 L 5.5 -0.86 L 5.5 0 Z M 13.49 -11.16 L 12.53 -11.16 L 12.53 -14.32 L 23.33 -14.32 L 24.02 -14.32 L 24.33 -14.32 L 24.33 -11.16 L 23.35 -11.16 Q 23.03 -11.16 22.97 -11.36 L 22.97 -11.36 Q 22.88 -11.69 22.78 -12.68 L 22.78 -12.68 L 19.42 -12.68 L 19.42 -1.44 Q 19.5 -1.44 19.65 -1.4 L 19.65 -1.4 Q 20.6 -1.22 20.66 -1.2 L 20.66 -1.2 Q 20.85 -1.14 20.85 -0.84 L 20.85 -0.84 L 20.85 0 L 16.01 0 L 16.01 -0.84 Q 16.01 -1.18 16.35 -1.24 L 16.35 -1.24 Q 16.45 -1.26 16.81 -1.34 Q 17.17 -1.42 17.46 -1.46 L 17.46 -1.46 L 17.46 -12.7 L 14.08 -12.7 Q 13.97 -11.62 13.89 -11.36 L 13.89 -11.36 Q 13.83 -11.16 13.49 -11.16 L 13.49 -11.16 Z M 33.95 0 L 29.85 0 L 29.85 -0.8 Q 29.85 -1.05 30.12 -1.12 L 30.12 -1.12 L 30.92 -1.36 L 36.11 -14.32 L 38.07 -14.32 L 43.25 -1.36 L 44.05 -1.12 Q 44.31 -1.05 44.31 -0.8 L 44.31 -0.8 L 44.31 0 L 40.19 0 L 40.19 -0.8 Q 40.19 -1.06 40.48 -1.12 L 40.48 -1.12 L 41.3 -1.36 L 40.17 -4.24 L 33.99 -4.24 L 32.87 -1.36 L 33.69 -1.12 Q 33.95 -1.06 33.95 -0.8 L 33.95 -0.8 L 33.95 0 Z M 36.68 -11.14 L 34.53 -5.64 L 39.64 -5.64 L 37.52 -11.16 Q 37.27 -11.72 37.08 -12.5 L 37.08 -12.5 Q 36.83 -11.58 36.68 -11.14 L 36.68 -11.14 Z M 52.91 0 L 51.48 0 L 51.48 -0.86 Q 51.48 -1 51.56 -1.1 Q 51.64 -1.21 51.77 -1.24 L 51.77 -1.24 L 52.91 -1.46 L 52.91 -12.88 Q 51.95 -13.06 51.77 -13.1 L 51.77 -13.1 Q 51.64 -13.13 51.56 -13.23 Q 51.48 -13.34 51.48 -13.48 L 51.48 -13.48 L 51.48 -14.32 L 52.91 -14.32 L 54.84 -14.32 L 56.27 -14.32 L 56.27 -13.48 Q 56.27 -13.34 56.18 -13.23 Q 56.1 -13.13 55.97 -13.1 L 55.97 -13.1 Q 55.85 -13.07 55.36 -12.97 Q 54.87 -12.88 54.84 -12.88 L 54.84 -12.88 L 54.84 -1.64 L 59.99 -1.64 Q 60.06 -2.58 60.11 -2.78 L 60.11 -2.78 Q 60.14 -2.93 60.26 -3.02 Q 60.38 -3.12 60.53 -3.12 L 60.53 -3.12 L 61.52 -3.12 L 61.52 0 L 61.04 0 L 60.87 0 L 52.91 0 Z M 73.69 0 L 68.87 0 L 68.87 -0.86 Q 68.87 -1.18 69.15 -1.24 L 69.15 -1.24 L 70.31 -1.46 L 70.31 -12.88 Q 69.34 -13.06 69.11 -13.12 Q 68.87 -13.17 68.87 -13.48 L 68.87 -13.48 L 68.87 -14.32 L 73.69 -14.32 L 73.69 -13.48 Q 73.69 -13.15 73.38 -13.1 L 73.38 -13.1 L 72.23 -12.88 L 72.23 -1.46 Q 73.13 -1.3 73.45 -1.22 L 73.45 -1.22 Q 73.69 -1.16 73.69 -0.86 L 73.69 -0.86 L 73.69 0 Z M 91.24 0 L 80.97 0 L 80.97 -0.84 Q 80.97 -1.16 81.26 -1.22 L 81.26 -1.22 L 82.4 -1.44 L 82.4 -12.86 Q 81.44 -13.04 81.26 -13.1 L 81.26 -13.1 Q 80.97 -13.15 80.97 -13.48 L 80.97 -13.48 L 80.97 -14.32 L 91.24 -14.32 L 91.24 -10.86 L 90.28 -10.86 Q 89.92 -10.86 89.86 -11.2 L 89.86 -11.2 Q 89.86 -11.22 89.85 -11.4 Q 89.83 -11.57 89.79 -11.95 Q 89.76 -12.33 89.73 -12.74 L 89.73 -12.74 L 84.37 -12.74 L 84.37 -7.98 L 89.64 -7.98 L 89.64 -6.46 L 84.37 -6.46 L 84.37 -1.56 L 89.73 -1.56 Q 89.84 -2.88 89.84 -3 L 89.84 -3 Q 89.89 -3.32 90.28 -3.32 L 90.28 -3.32 L 91.24 -3.32 L 91.24 0 Z M 103.46 0.02 L 98.71 0.02 L 98.71 -0.84 Q 98.71 -1.14 99 -1.2 L 99 -1.2 L 100.14 -1.44 L 100.14 -12.84 Q 99.17 -13.02 99 -13.08 L 99 -13.08 Q 98.71 -13.13 98.71 -13.46 L 98.71 -13.46 L 98.71 -14.32 L 101.14 -14.32 Q 101.4 -14.32 101.52 -14.26 L 101.52 -14.26 Q 101.62 -14.21 101.82 -14 L 101.82 -14 L 110.1 -3.2 L 110.1 -3.16 Q 110.06 -3.45 110.06 -4.16 L 110.06 -4.16 L 110.06 -12.84 Q 109.72 -12.89 109.42 -12.94 Q 109.13 -13 108.94 -13.04 Q 108.76 -13.08 108.74 -13.08 L 108.74 -13.08 Q 108.42 -13.14 108.42 -13.44 L 108.42 -13.44 L 108.42 -14.32 L 110.06 -14.32 L 111.76 -14.32 L 113.22 -14.32 L 113.22 -13.44 Q 113.22 -13.13 112.9 -13.08 L 112.9 -13.08 L 111.76 -12.84 L 111.76 0.02 L 110.79 0.02 Q 110.38 0.02 110.1 -0.32 L 110.1 -0.32 L 101.8 -11.12 Q 101.84 -10.78 101.84 -10.2 L 101.84 -10.2 L 101.84 -1.44 Q 102.46 -1.35 103.18 -1.2 L 103.18 -1.2 Q 103.46 -1.14 103.46 -0.84 L 103.46 -0.84 L 103.46 0.02 Z M 125.04 0 L 120.22 0 L 120.22 -0.86 Q 120.22 -1.18 120.5 -1.24 L 120.5 -1.24 L 121.66 -1.46 L 121.66 -12.88 Q 120.69 -13.06 120.46 -13.12 Q 120.22 -13.17 120.22 -13.48 L 120.22 -13.48 L 120.22 -14.32 L 125.04 -14.32 L 125.04 -13.48 Q 125.04 -13.15 124.73 -13.1 L 124.73 -13.1 L 123.58 -12.88 L 123.58 -1.46 Q 124.48 -1.3 124.8 -1.22 L 124.8 -1.22 Q 125.04 -1.16 125.04 -0.86 L 125.04 -0.86 L 125.04 0 Z M 132.91 -0.4 L 132.34 -0.6 L 132.34 -4.2 L 133.31 -4.2 Q 133.65 -4.2 133.71 -3.86 L 133.71 -3.86 Q 133.75 -3.69 133.81 -2.88 L 133.81 -2.88 L 133.87 -2 Q 135.43 -1.44 136.31 -1.44 L 136.31 -1.44 Q 137.16 -1.44 137.79 -1.64 L 137.79 -1.64 Q 138.36 -1.83 138.71 -2.18 L 138.71 -2.18 Q 139.47 -2.88 139.47 -4.08 L 139.47 -4.08 Q 139.47 -5.23 138.39 -5.84 L 138.39 -5.84 Q 137.86 -6.15 137.32 -6.32 L 137.32 -6.32 Q 135.21 -6.98 134.8 -7.16 L 134.8 -7.16 Q 134.23 -7.4 133.69 -7.88 L 133.69 -7.88 Q 132.63 -8.83 132.63 -10.56 L 132.63 -10.56 Q 132.63 -12.14 133.77 -13.28 L 133.77 -13.28 Q 135 -14.48 136.97 -14.48 L 136.97 -14.48 Q 139.04 -14.48 140.99 -13.68 L 140.99 -13.68 L 140.99 -10.38 L 140.03 -10.38 Q 139.67 -10.38 139.61 -10.72 L 139.61 -10.72 Q 139.61 -10.73 139.6 -10.92 Q 139.58 -11.11 139.55 -11.55 Q 139.51 -11.99 139.47 -12.5 L 139.47 -12.5 Q 138.11 -12.88 137.11 -12.88 L 137.11 -12.88 Q 135.81 -12.88 135.11 -12.24 L 135.11 -12.24 Q 134.44 -11.62 134.44 -10.64 L 134.44 -10.64 Q 134.44 -9.58 135.51 -8.98 L 135.51 -8.98 Q 136.02 -8.68 136.63 -8.48 L 136.63 -8.48 Q 138.37 -7.9 139.15 -7.58 L 139.15 -7.58 L 139.11 -7.58 Q 141.27 -6.61 141.27 -4.36 L 141.27 -4.36 Q 141.27 -2.38 140.03 -1.14 L 140.03 -1.14 Q 138.73 0.16 136.48 0.16 L 136.48 0.16 Q 135.54 0.16 134.51 -0.02 L 134.51 -0.02 Q 133.79 -0.15 132.91 -0.4 L 132.91 -0.4 Z M 148.19 -7.16 L 148.19 -7.16 Q 148.19 -10.38 150.19 -12.44 L 150.19 -12.44 Q 152.17 -14.48 155.51 -14.48 L 155.51 -14.48 L 155.47 -14.5 Q 157.18 -14.5 159.91 -13.48 L 159.91 -13.48 L 159.91 -12.36 L 159.91 -10.12 L 158.95 -10.12 Q 158.57 -10.12 158.51 -10.48 L 158.51 -10.48 Q 158.49 -10.54 158.43 -11.38 L 158.43 -11.38 Q 158.41 -11.6 158.39 -11.81 Q 158.38 -12.02 158.36 -12.13 Q 158.35 -12.25 158.35 -12.28 L 158.35 -12.28 Q 156.69 -12.8 155.33 -12.8 L 155.33 -12.8 Q 153.04 -12.8 151.61 -11.3 L 151.61 -11.3 Q 150.15 -9.73 150.15 -7.16 L 150.15 -7.16 Q 150.15 -4.55 151.59 -3 L 151.59 -3 Q 152.95 -1.52 155.13 -1.52 L 155.13 -1.52 Q 156.36 -1.52 157.03 -1.76 L 157.03 -1.76 Q 158.09 -2.16 158.79 -2.8 L 158.79 -2.8 Q 158.97 -2.96 159.11 -2.96 L 159.11 -2.96 Q 159.31 -2.96 159.43 -2.84 L 159.43 -2.84 L 160.19 -2 Q 158.33 0.16 155.03 0.16 L 155.03 0.16 Q 151.94 0.16 150.07 -1.88 L 150.07 -1.88 Q 148.19 -3.95 148.19 -7.16 Z M 171.92 0 L 167.11 0 L 167.11 -0.86 Q 167.11 -1.18 167.4 -1.24 L 167.4 -1.24 L 168.54 -1.46 L 168.54 -12.88 Q 167.58 -13.06 167.34 -13.12 Q 167.11 -13.17 167.11 -13.48 L 167.11 -13.48 L 167.11 -14.32 L 171.92 -14.32 L 171.92 -13.48 Q 171.92 -13.17 171.73 -13.12 L 171.73 -13.12 Q 171.5 -13.06 170.51 -12.88 L 170.51 -12.88 L 170.51 -7.94 L 178.22 -7.94 L 178.22 -12.88 Q 177.26 -13.06 177.02 -13.12 Q 176.79 -13.17 176.79 -13.48 L 176.79 -13.48 L 176.79 -14.32 L 181.62 -14.32 L 181.62 -13.48 Q 181.62 -13.15 181.33 -13.1 L 181.33 -13.1 L 180.17 -12.88 L 180.17 -1.46 Q 180.99 -1.32 181.37 -1.22 L 181.37 -1.22 Q 181.6 -1.16 181.6 -0.86 L 181.6 -0.86 L 181.6 0 L 176.77 0 L 176.77 -0.86 Q 176.77 -1.17 177.09 -1.24 L 177.09 -1.24 L 178.2 -1.46 L 178.2 -6.52 L 170.49 -6.52 L 170.49 -1.46 Q 171.92 -1.17 171.92 -0.86 L 171.92 -0.86 L 171.92 0 Z M 199.17 0 L 188.9 0 L 188.9 -0.84 Q 188.9 -1.16 189.19 -1.22 L 189.19 -1.22 L 190.34 -1.44 L 190.34 -12.86 Q 189.37 -13.04 189.19 -13.1 L 189.19 -13.1 Q 188.9 -13.15 188.9 -13.48 L 188.9 -13.48 L 188.9 -14.32 L 199.17 -14.32 L 199.17 -10.86 L 198.22 -10.86 Q 197.86 -10.86 197.8 -11.2 L 197.8 -11.2 Q 197.8 -11.22 197.78 -11.4 Q 197.77 -11.57 197.73 -11.95 Q 197.69 -12.33 197.66 -12.74 L 197.66 -12.74 L 192.3 -12.74 L 192.3 -7.98 L 197.57 -7.98 L 197.57 -6.46 L 192.3 -6.46 L 192.3 -1.56 L 197.66 -1.56 Q 197.78 -2.88 197.78 -3 L 197.78 -3 Q 197.83 -3.32 198.22 -3.32 L 198.22 -3.32 L 199.17 -3.32 L 199.17 0 Z M 207.23 -0.4 L 206.66 -0.6 L 206.66 -4.2 L 207.63 -4.2 Q 207.98 -4.2 208.04 -3.86 L 208.04 -3.86 Q 208.07 -3.69 208.13 -2.88 L 208.13 -2.88 L 208.19 -2 Q 209.75 -1.44 210.63 -1.44 L 210.63 -1.44 Q 211.48 -1.44 212.12 -1.64 L 212.12 -1.64 Q 212.68 -1.83 213.04 -2.18 L 213.04 -2.18 Q 213.8 -2.88 213.8 -4.08 L 213.8 -4.08 Q 213.8 -5.23 212.71 -5.84 L 212.71 -5.84 Q 212.19 -6.15 211.64 -6.32 L 211.64 -6.32 Q 209.53 -6.98 209.12 -7.16 L 209.12 -7.16 Q 208.55 -7.4 208.02 -7.88 L 208.02 -7.88 Q 206.95 -8.83 206.95 -10.56 L 206.95 -10.56 Q 206.95 -12.14 208.09 -13.28 L 208.09 -13.28 Q 209.32 -14.48 211.3 -14.48 L 211.3 -14.48 Q 213.36 -14.48 215.31 -13.68 L 215.31 -13.68 L 215.31 -10.38 L 214.35 -10.38 Q 213.99 -10.38 213.93 -10.72 L 213.93 -10.72 Q 213.93 -10.73 213.92 -10.92 Q 213.9 -11.11 213.87 -11.55 Q 213.84 -11.99 213.8 -12.5 L 213.8 -12.5 Q 212.43 -12.88 211.43 -12.88 L 211.43 -12.88 Q 210.13 -12.88 209.43 -12.24 L 209.43 -12.24 Q 208.76 -11.62 208.76 -10.64 L 208.76 -10.64 Q 208.76 -9.58 209.83 -8.98 L 209.83 -8.98 Q 210.34 -8.68 210.96 -8.48 L 210.96 -8.48 Q 212.69 -7.9 213.47 -7.58 L 213.47 -7.58 L 213.44 -7.58 Q 215.59 -6.61 215.59 -4.36 L 215.59 -4.36 Q 215.59 -2.38 214.35 -1.14 L 214.35 -1.14 Q 213.05 0.16 210.8 0.16 L 210.8 0.16 Q 209.86 0.16 208.84 -0.02 L 208.84 -0.02 Q 208.11 -0.15 207.23 -0.4 L 207.23 -0.4 Z M 237.89 0 L 233.05 0 L 233.05 -0.84 Q 233.05 -1.16 233.35 -1.22 L 233.35 -1.22 L 234.49 -1.44 L 234.49 -12.86 Q 233.52 -13.04 233.35 -13.1 L 233.35 -13.1 Q 233.05 -13.15 233.05 -13.48 L 233.05 -13.48 L 233.05 -14.32 L 234.49 -14.32 L 243.67 -14.32 L 243.67 -10.86 L 242.69 -10.86 Q 242.35 -10.86 242.29 -11.2 L 242.29 -11.2 Q 242.29 -11.22 242.27 -11.4 Q 242.24 -11.57 242.2 -11.95 Q 242.16 -12.32 242.13 -12.74 L 242.13 -12.74 L 236.45 -12.74 L 236.45 -7.72 L 241.89 -7.72 L 241.89 -6.16 L 236.45 -6.16 L 236.45 -1.44 Q 236.52 -1.42 236.66 -1.39 Q 236.8 -1.37 237.07 -1.32 Q 237.33 -1.27 237.56 -1.22 L 237.56 -1.22 Q 237.89 -1.15 237.89 -0.84 L 237.89 -0.84 L 237.89 0 Z M 261.01 0 L 250.73 0 L 250.73 -0.84 Q 250.73 -1.16 251.03 -1.22 L 251.03 -1.22 L 252.17 -1.44 L 252.17 -12.86 Q 251.2 -13.04 251.03 -13.1 L 251.03 -13.1 Q 250.73 -13.15 250.73 -13.48 L 250.73 -13.48 L 250.73 -14.32 L 261.01 -14.32 L 261.01 -10.86 L 260.05 -10.86 Q 259.69 -10.86 259.63 -11.2 L 259.63 -11.2 Q 259.63 -11.22 259.61 -11.4 Q 259.6 -11.57 259.56 -11.95 Q 259.52 -12.33 259.49 -12.74 L 259.49 -12.74 L 254.13 -12.74 L 254.13 -7.98 L 259.4 -7.98 L 259.4 -6.46 L 254.13 -6.46 L 254.13 -1.56 L 259.49 -1.56 Q 259.61 -2.88 259.61 -3 L 259.61 -3 Q 259.66 -3.32 260.05 -3.32 L 260.05 -3.32 L 261.01 -3.32 L 261.01 0 Z M 273.29 0 L 268.47 0 L 268.47 -0.86 Q 268.47 -1.18 268.74 -1.24 L 268.74 -1.24 L 269.91 -1.46 L 269.91 -12.88 Q 268.94 -13.06 268.71 -13.12 Q 268.47 -13.17 268.47 -13.48 L 268.47 -13.48 L 268.47 -14.32 L 273.29 -14.32 L 273.29 -13.48 Q 273.29 -13.15 272.98 -13.1 L 272.98 -13.1 L 271.83 -12.88 L 271.83 -1.46 Q 272.73 -1.3 273.05 -1.22 L 273.05 -1.22 Q 273.29 -1.16 273.29 -0.86 L 273.29 -0.86 L 273.29 0 Z M 285.32 0.02 L 280.56 0.02 L 280.56 -0.84 Q 280.56 -1.14 280.86 -1.2 L 280.86 -1.2 L 282 -1.44 L 282 -12.84 Q 281.03 -13.02 280.86 -13.08 L 280.86 -13.08 Q 280.56 -13.13 280.56 -13.46 L 280.56 -13.46 L 280.56 -14.32 L 283 -14.32 Q 283.26 -14.32 283.38 -14.26 L 283.38 -14.26 Q 283.47 -14.21 283.68 -14 L 283.68 -14 L 291.96 -3.2 L 291.96 -3.16 Q 291.92 -3.45 291.92 -4.16 L 291.92 -4.16 L 291.92 -12.84 Q 291.58 -12.89 291.28 -12.94 Q 290.98 -13 290.8 -13.04 Q 290.62 -13.08 290.6 -13.08 L 290.6 -13.08 Q 290.28 -13.14 290.28 -13.44 L 290.28 -13.44 L 290.28 -14.32 L 291.92 -14.32 L 293.62 -14.32 L 295.08 -14.32 L 295.08 -13.44 Q 295.08 -13.13 294.76 -13.08 L 294.76 -13.08 L 293.62 -12.84 L 293.62 0.02 L 292.64 0.02 Q 292.23 0.02 291.96 -0.32 L 291.96 -0.32 L 283.66 -11.12 Q 283.7 -10.78 283.7 -10.2 L 283.7 -10.2 L 283.7 -1.44 Q 284.31 -1.35 285.04 -1.2 L 285.04 -1.2 Q 285.32 -1.14 285.32 -0.84 L 285.32 -0.84 L 285.32 0.02 Z M 306.88 -0.02 L 302.06 -0.02 L 302.06 -0.88 Q 302.06 -1.18 302.36 -1.24 L 302.36 -1.24 L 303.5 -1.48 L 303.5 -12.88 Q 302.53 -13.06 302.36 -13.12 L 302.36 -13.12 Q 302.06 -13.17 302.06 -13.5 L 302.06 -13.5 L 302.06 -14.36 L 306.88 -14.36 L 306.88 -13.5 Q 306.88 -13.18 306.55 -13.12 L 306.55 -13.12 Q 305.73 -12.95 305.44 -12.88 L 305.44 -12.88 L 305.44 -8.08 L 306.15 -8.08 Q 306.86 -8.08 307.2 -8.48 L 307.2 -8.48 L 311.2 -13.04 Q 310.92 -13.09 310.62 -13.14 Q 310.32 -13.2 310.31 -13.2 L 310.31 -13.2 Q 310.04 -13.26 310.04 -13.56 L 310.04 -13.56 L 310.04 -14.36 L 314.56 -14.36 L 314.6 -13.6 Q 314.6 -13.29 314.28 -13.22 L 314.28 -13.22 Q 313.94 -13.11 313.36 -12.98 L 313.36 -12.98 L 309.09 -8.16 Q 308.67 -7.69 308.32 -7.52 L 308.32 -7.52 Q 308.75 -7.4 309.24 -6.8 L 309.24 -6.8 L 313.78 -1.4 Q 314.79 -1.18 314.8 -1.18 L 314.8 -1.18 L 314.78 -1.2 Q 315.08 -1.14 315.08 -0.84 L 315.08 -0.84 L 315.08 -0.04 L 310.38 -0.04 L 310.38 -0.84 Q 310.38 -1.12 310.66 -1.18 L 310.66 -1.18 Q 310.77 -1.18 311.57 -1.36 L 311.57 -1.36 L 307.43 -6.12 Q 307.04 -6.51 306.82 -6.56 L 306.82 -6.56 Q 306.64 -6.6 306.32 -6.6 L 306.32 -6.6 L 305.44 -6.6 L 305.44 -1.48 Q 305.54 -1.46 305.69 -1.43 Q 305.84 -1.4 306.1 -1.34 Q 306.35 -1.29 306.55 -1.24 L 306.55 -1.24 Q 306.88 -1.17 306.88 -0.88 L 306.88 -0.88 L 306.88 -0.02 Z M 321.71 -4.18 Q 321.2 -5.54 321.2 -7.14 Q 321.2 -8.74 321.71 -10.1 L 321.71 -10.1 Q 322.22 -11.45 323.16 -12.42 Q 324.1 -13.4 325.4 -13.94 L 325.4 -13.94 Q 326.72 -14.48 328.28 -14.48 Q 329.83 -14.48 331.16 -13.94 L 331.16 -13.94 Q 332.5 -13.39 333.39 -12.44 L 333.39 -12.44 Q 334.33 -11.46 334.84 -10.12 L 334.84 -10.12 Q 335.34 -8.81 335.34 -7.16 L 335.34 -7.16 L 335.32 -7.12 Q 335.32 -5.49 334.82 -4.18 L 334.82 -4.18 Q 334.31 -2.83 333.38 -1.86 L 333.38 -1.86 Q 332.46 -0.9 331.16 -0.36 L 331.16 -0.36 Q 329.8 0.2 328.28 0.2 Q 326.75 0.2 325.4 -0.36 L 325.4 -0.36 Q 324.06 -0.91 323.16 -1.86 L 323.16 -1.86 Q 322.22 -2.83 321.71 -4.18 L 321.71 -4.18 Z M 323.16 -7.12 L 323.16 -7.12 Q 323.16 -5.8 323.52 -4.76 L 323.52 -4.76 Q 323.87 -3.74 324.56 -3 L 324.56 -3 Q 325.23 -2.27 326.16 -1.88 L 326.16 -1.88 Q 327.13 -1.48 328.26 -1.48 Q 329.38 -1.48 330.36 -1.88 L 330.36 -1.88 Q 331.29 -2.27 331.96 -3 L 331.96 -3 Q 332.61 -3.71 332.97 -4.76 Q 333.34 -5.8 333.34 -7.12 L 333.34 -7.12 L 333.32 -7.12 Q 333.32 -8.46 332.96 -9.5 L 332.96 -9.5 Q 332.56 -10.62 331.96 -11.28 L 331.96 -11.28 Q 331.29 -12 330.36 -12.38 L 330.36 -12.38 Q 329.43 -12.76 328.24 -12.76 L 328.24 -12.76 Q 327.09 -12.76 326.16 -12.38 L 326.16 -12.38 Q 325.22 -12 324.56 -11.28 L 324.56 -11.28 Q 323.88 -10.55 323.52 -9.5 Q 323.16 -8.46 323.16 -7.12 Z M 343.12 -0.4 L 342.54 -0.6 L 342.54 -4.2 L 343.52 -4.2 Q 343.86 -4.2 343.92 -3.86 L 343.92 -3.86 Q 343.96 -3.69 344.01 -2.88 L 344.01 -2.88 L 344.07 -2 Q 345.63 -1.44 346.51 -1.44 L 346.51 -1.44 Q 347.36 -1.44 348 -1.64 L 348 -1.64 Q 348.56 -1.83 348.92 -2.18 L 348.92 -2.18 Q 349.68 -2.88 349.68 -4.08 L 349.68 -4.08 Q 349.68 -5.23 348.59 -5.84 L 348.59 -5.84 Q 348.07 -6.15 347.52 -6.32 L 347.52 -6.32 Q 345.41 -6.98 345 -7.16 L 345 -7.16 Q 344.43 -7.4 343.9 -7.88 L 343.9 -7.88 Q 342.83 -8.83 342.83 -10.56 L 342.83 -10.56 Q 342.83 -12.14 343.97 -13.28 L 343.97 -13.28 Q 345.21 -14.48 347.18 -14.48 L 347.18 -14.48 Q 349.24 -14.48 351.19 -13.68 L 351.19 -13.68 L 351.19 -10.38 L 350.23 -10.38 Q 349.87 -10.38 349.81 -10.72 L 349.81 -10.72 Q 349.81 -10.73 349.8 -10.92 Q 349.79 -11.11 349.75 -11.55 Q 349.72 -11.99 349.68 -12.5 L 349.68 -12.5 Q 348.31 -12.88 347.31 -12.88 L 347.31 -12.88 Q 346.02 -12.88 345.31 -12.24 L 345.31 -12.24 Q 344.64 -11.62 344.64 -10.64 L 344.64 -10.64 Q 344.64 -9.58 345.71 -8.98 L 345.71 -8.98 Q 346.22 -8.68 346.84 -8.48 L 346.84 -8.48 Q 348.57 -7.9 349.36 -7.58 L 349.36 -7.58 L 349.32 -7.58 Q 351.47 -6.61 351.47 -4.36 L 351.47 -4.36 Q 351.47 -2.38 350.23 -1.14 L 350.23 -1.14 Q 348.94 0.16 346.68 0.16 L 346.68 0.16 Q 345.74 0.16 344.72 -0.02 L 344.72 -0.02 Q 343.99 -0.15 343.12 -0.4 L 343.12 -0.4 Z M 359.35 -11.16 L 358.39 -11.16 L 358.39 -14.32 L 369.19 -14.32 L 369.88 -14.32 L 370.19 -14.32 L 370.19 -11.16 L 369.21 -11.16 Q 368.89 -11.16 368.83 -11.36 L 368.83 -11.36 Q 368.73 -11.69 368.64 -12.68 L 368.64 -12.68 L 365.28 -12.68 L 365.28 -1.44 Q 365.36 -1.44 365.51 -1.4 L 365.51 -1.4 Q 366.46 -1.22 366.52 -1.2 L 366.52 -1.2 Q 366.71 -1.14 366.71 -0.84 L 366.71 -0.84 L 366.71 0 L 361.87 0 L 361.87 -0.84 Q 361.87 -1.18 362.21 -1.24 L 362.21 -1.24 Q 362.31 -1.26 362.67 -1.34 Q 363.03 -1.42 363.31 -1.46 L 363.31 -1.46 L 363.31 -12.7 L 359.94 -12.7 Q 359.83 -11.62 359.75 -11.36 L 359.75 -11.36 Q 359.69 -11.16 359.35 -11.16 L 359.35 -11.16 Z M 387.27 -7.16 L 387.27 -7.16 Q 387.27 -10.38 389.27 -12.44 L 389.27 -12.44 Q 391.25 -14.48 394.59 -14.48 L 394.59 -14.48 L 394.55 -14.5 Q 396.26 -14.5 398.99 -13.48 L 398.99 -13.48 L 398.99 -12.36 L 398.99 -10.12 L 398.03 -10.12 Q 397.65 -10.12 397.59 -10.48 L 397.59 -10.48 Q 397.57 -10.54 397.51 -11.38 L 397.51 -11.38 Q 397.49 -11.6 397.47 -11.81 Q 397.45 -12.02 397.44 -12.13 Q 397.42 -12.25 397.42 -12.28 L 397.42 -12.28 Q 395.76 -12.8 394.41 -12.8 L 394.41 -12.8 Q 392.12 -12.8 390.69 -11.3 L 390.69 -11.3 Q 389.23 -9.73 389.23 -7.16 L 389.23 -7.16 Q 389.23 -4.55 390.67 -3 L 390.67 -3 Q 392.02 -1.52 394.21 -1.52 L 394.21 -1.52 Q 395.44 -1.52 396.11 -1.76 L 396.11 -1.76 Q 397.17 -2.16 397.86 -2.8 L 397.86 -2.8 Q 398.05 -2.96 398.19 -2.96 L 398.19 -2.96 Q 398.39 -2.96 398.51 -2.84 L 398.51 -2.84 L 399.27 -2 Q 397.4 0.16 394.1 0.16 L 394.1 0.16 Q 391.02 0.16 389.15 -1.88 L 389.15 -1.88 Q 387.27 -3.95 387.27 -7.16 Z M 410.12 0 L 406.02 0 L 406.02 -0.8 Q 406.02 -1.05 406.29 -1.12 L 406.29 -1.12 L 407.09 -1.36 L 412.28 -14.32 L 414.24 -14.32 L 419.42 -1.36 L 420.22 -1.12 Q 420.48 -1.05 420.48 -0.8 L 420.48 -0.8 L 420.48 0 L 416.36 0 L 416.36 -0.8 Q 416.36 -1.06 416.65 -1.12 L 416.65 -1.12 L 417.47 -1.36 L 416.34 -4.24 L 410.16 -4.24 L 409.04 -1.36 L 409.86 -1.12 Q 410.12 -1.06 410.12 -0.8 L 410.12 -0.8 L 410.12 0 Z M 412.85 -11.14 L 410.7 -5.64 L 415.81 -5.64 L 413.69 -11.16 Q 413.44 -11.72 413.25 -12.5 L 413.25 -12.5 Q 413 -11.58 412.85 -11.14 L 412.85 -11.14 Z M 428.36 -11.16 L 427.4 -11.16 L 427.4 -14.32 L 438.2 -14.32 L 438.89 -14.32 L 439.2 -14.32 L 439.2 -11.16 L 438.22 -11.16 Q 437.9 -11.16 437.84 -11.36 L 437.84 -11.36 Q 437.74 -11.69 437.65 -12.68 L 437.65 -12.68 L 434.29 -12.68 L 434.29 -1.44 Q 434.37 -1.44 434.52 -1.4 L 434.52 -1.4 Q 435.47 -1.22 435.53 -1.2 L 435.53 -1.2 Q 435.72 -1.14 435.72 -0.84 L 435.72 -0.84 L 435.72 0 L 430.88 0 L 430.88 -0.84 Q 430.88 -1.18 431.22 -1.24 L 431.22 -1.24 Q 431.32 -1.26 431.68 -1.34 Q 432.04 -1.42 432.32 -1.46 L 432.32 -1.46 L 432.32 -12.7 L 428.95 -12.7 Q 428.84 -11.62 428.76 -11.36 L 428.76 -11.36 Q 428.7 -11.16 428.36 -11.16 L 428.36 -11.16 Z M 456.5 0 L 446.22 0 L 446.22 -0.84 Q 446.22 -1.16 446.52 -1.22 L 446.52 -1.22 L 447.66 -1.44 L 447.66 -12.86 Q 446.69 -13.04 446.52 -13.1 L 446.52 -13.1 Q 446.22 -13.15 446.22 -13.48 L 446.22 -13.48 L 446.22 -14.32 L 456.5 -14.32 L 456.5 -10.86 L 455.54 -10.86 Q 455.18 -10.86 455.12 -11.2 L 455.12 -11.2 Q 455.12 -11.22 455.11 -11.4 Q 455.09 -11.57 455.05 -11.95 Q 455.01 -12.33 454.98 -12.74 L 454.98 -12.74 L 449.62 -12.74 L 449.62 -7.98 L 454.9 -7.98 L 454.9 -6.46 L 449.62 -6.46 L 449.62 -1.56 L 454.98 -1.56 Q 455.1 -2.88 455.1 -3 L 455.1 -3 Q 455.15 -3.32 455.54 -3.32 L 455.54 -3.32 L 456.5 -3.32 L 456.5 0 Z M 465.38 -0.02 L 463.94 -0.02 L 463.94 -0.88 Q 463.94 -1.17 464.24 -1.24 L 464.24 -1.24 L 465.4 -1.48 L 465.4 -12.88 Q 464.41 -13.08 464.24 -13.12 L 464.24 -13.12 Q 463.94 -13.18 463.94 -13.48 L 463.94 -13.48 L 463.94 -14.36 L 465.38 -14.36 L 469.24 -14.36 Q 470.56 -14.36 471.6 -14.08 L 471.6 -14.08 Q 472.59 -13.82 473.24 -13.28 L 473.24 -13.28 Q 473.9 -12.73 474.2 -12.02 L 474.2 -12.02 Q 474.5 -11.28 474.5 -10.36 L 474.5 -10.36 Q 474.5 -9.65 474.26 -8.96 L 474.26 -8.96 Q 474.02 -8.32 473.56 -7.76 Q 473.1 -7.21 472.46 -6.86 L 472.46 -6.86 Q 471.7 -6.44 470.97 -6.28 L 470.97 -6.28 Q 471.36 -6.06 471.62 -5.68 L 471.62 -5.68 L 474.71 -1.44 Q 475.74 -1.27 475.84 -1.24 L 475.84 -1.24 L 475.82 -1.24 Q 476.12 -1.17 476.12 -0.88 L 476.12 -0.88 L 476.12 0 L 475.76 0 L 474.68 0 L 474.04 0 Q 473.51 0 473.28 -0.42 L 473.28 -0.42 L 469.56 -5.54 Q 469.4 -5.74 469.2 -5.88 L 469.2 -5.88 Q 469.02 -6 468.6 -6 L 468.6 -6 L 467.32 -6 L 467.32 -1.48 Q 468.28 -1.28 468.44 -1.24 L 468.44 -1.24 Q 468.57 -1.21 468.67 -1.11 Q 468.76 -1.01 468.76 -0.88 L 468.76 -0.88 L 468.76 -0.02 L 467.32 -0.02 L 465.38 -0.02 Z M 467.3 -12.8 L 467.3 -7.4 L 469.14 -7.4 L 469.12 -7.4 Q 470 -7.4 470.62 -7.6 L 470.62 -7.6 Q 471.21 -7.78 471.7 -8.2 L 471.7 -8.2 Q 472.15 -8.59 472.36 -9.08 L 472.36 -9.08 Q 472.58 -9.58 472.58 -10.24 L 472.58 -10.24 Q 472.58 -11.49 471.74 -12.16 L 471.74 -12.16 Q 470.92 -12.8 469.24 -12.8 L 469.24 -12.8 L 467.3 -12.8 Z M 488.16 0 L 483.34 0 L 483.34 -0.86 Q 483.34 -1.18 483.62 -1.24 L 483.62 -1.24 L 484.78 -1.46 L 484.78 -12.88 Q 483.81 -13.06 483.58 -13.12 Q 483.34 -13.17 483.34 -13.48 L 483.34 -13.48 L 483.34 -14.32 L 488.16 -14.32 L 488.16 -13.48 Q 488.16 -13.15 487.85 -13.1 L 487.85 -13.1 L 486.7 -12.88 L 486.7 -1.46 Q 487.6 -1.3 487.92 -1.22 L 487.92 -1.22 Q 488.16 -1.16 488.16 -0.86 L 488.16 -0.86 L 488.16 0 Z M 500.19 0.02 L 495.44 0.02 L 495.44 -0.84 Q 495.44 -1.14 495.73 -1.2 L 495.73 -1.2 L 496.87 -1.44 L 496.87 -12.84 Q 495.9 -13.02 495.73 -13.08 L 495.73 -13.08 Q 495.44 -13.13 495.44 -13.46 L 495.44 -13.46 L 495.44 -14.32 L 497.87 -14.32 Q 498.13 -14.32 498.25 -14.26 L 498.25 -14.26 Q 498.35 -14.21 498.55 -14 L 498.55 -14 L 506.83 -3.2 L 506.83 -3.16 Q 506.79 -3.45 506.79 -4.16 L 506.79 -4.16 L 506.79 -12.84 Q 506.45 -12.89 506.15 -12.94 Q 505.86 -13 505.67 -13.04 Q 505.49 -13.08 505.47 -13.08 L 505.47 -13.08 Q 505.15 -13.14 505.15 -13.44 L 505.15 -13.44 L 505.15 -14.32 L 506.79 -14.32 L 508.49 -14.32 L 509.95 -14.32 L 509.95 -13.44 Q 509.95 -13.13 509.63 -13.08 L 509.63 -13.08 L 508.49 -12.84 L 508.49 0.02 L 507.52 0.02 Q 507.11 0.02 506.83 -0.32 L 506.83 -0.32 L 498.53 -11.12 Q 498.57 -10.78 498.57 -10.2 L 498.57 -10.2 L 498.57 -1.44 Q 499.19 -1.35 499.91 -1.2 L 499.91 -1.2 Q 500.19 -1.14 500.19 -0.84 L 500.19 -0.84 L 500.19 0.02 Z M 516.71 -7.16 L 516.71 -7.16 Q 516.71 -10.48 518.67 -12.44 L 518.67 -12.44 Q 520.68 -14.48 524.03 -14.48 L 524.03 -14.48 Q 526.32 -14.48 529.09 -13.44 L 529.09 -13.44 L 529.09 -10.12 L 528.13 -10.12 Q 527.75 -10.12 527.71 -10.44 L 527.71 -10.44 Q 527.71 -10.47 527.69 -10.68 Q 527.67 -10.89 527.62 -11.33 Q 527.58 -11.77 527.55 -12.26 L 527.55 -12.26 L 526.81 -12.48 Q 525.55 -12.8 524.23 -12.8 L 524.23 -12.8 Q 522.76 -12.8 521.79 -12.4 L 521.79 -12.4 Q 520.83 -12.01 520.13 -11.28 L 520.13 -11.28 Q 518.71 -9.78 518.71 -7.16 L 518.71 -7.16 Q 518.71 -4.46 520.17 -2.92 L 520.17 -2.92 Q 521.63 -1.4 523.95 -1.4 L 523.95 -1.4 Q 525.89 -1.4 527.49 -2.24 L 527.49 -2.24 L 527.49 -5.4 L 525.27 -5.4 Q 525.07 -5.4 524.95 -5.52 Q 524.83 -5.63 524.83 -5.78 L 524.83 -5.78 L 524.83 -6.88 L 529.23 -6.88 L 529.23 -1.38 Q 527.1 0.16 523.79 0.16 L 523.79 0.16 Q 520.64 0.16 518.69 -1.86 L 518.69 -1.86 Q 516.71 -3.9 516.71 -7.16 Z" stroke-linecap="round" />
</g>
</g>
</g>
<g transform="matrix(1.5382491537797844 0 0 1.409821454617085 640.2071995088605 413.76256885909606)" id="shape-f7190750-2546-4586-ab57-02437e05897a"  >
<g style=""  paint-order="stroke"   >
		<g transform="matrix(1 0 0 1 -4.583519999999993 10.428952065295135)" id="Layer_1"  >
<path style="stroke: none; stroke-width: 1; stroke-dasharray: none; stroke-linecap: butt; stroke-dashoffset: 0; stroke-linejoin: miter; stroke-miterlimit: 4; fill: rgb(89,74,66); fill-rule: nonzero; opacity: 1;"  paint-order="stroke"  transform=" translate(-120.41648, -87.5580785184049)" d="M 140.11752 63.65812 C 150.32386000000002 52.896049999999995 160.74060000000003 42.38061999999999 174.06436000000002 35.66656999999999 C 194.56900000000002 25.263299999999994 218.20178 23.926919999999996 240.83296 22.936179999999993 C 217.96722000000003 22.881099999999993 194.21417000000002 23.79103999999999 173.20598 33.93955 C 164.44373000000002 38.14225999999999 156.94856000000001 44.005739999999996 149.96123 50.51338 C 152.44274000000001 45.024159999999995 152.63248 38.428839999999994 149.37689 33.43369 C 151.36433 40.62835 149.83607 48.0106 146.08122 54.22355 C 137.73669 62.44276000000001 129.95402 71.35908 121.37906000000001 79.15538000000001 C 118.92143000000002 81.53620000000001 116.39356000000001 83.89852 113.81305 86.23451000000001 C 121.97733000000001 72.95834000000002 115.60861 57.30210000000001 114.73126 43.11828000000001 C 114.68245 40.50182000000001 115.21998 37.89316000000001 116.50387 35.517840000000014 C 114.73493 37.578420000000015 113.86614 40.32463000000001 113.50443000000001 43.036420000000014 C 112.73204000000001 57.392690000000016 119.22072000000001 72.40812000000001 112.13178000000002 85.99797000000001 C 111.45012000000003 87.07087000000001 110.82753000000002 88.26603000000001 110.18351000000003 89.46425 C 100.91970000000003 97.56656000000001 90.93599000000003 105.20648 80.36073000000002 111.72774000000001 C 80.24032000000001 111.80057000000001 80.12036000000002 111.87142000000001 80.00100000000002 111.94639000000001 C 79.49332000000003 112.25792000000001 78.98471000000002 112.56776 78.47427000000002 112.87393 C 79.23381000000002 105.57583 81.37227000000001 98.5478 84.84665000000001 92.08269 C 86.12489000000001 89.86711 87.83248 87.57595 88.31293000000001 84.89001999999999 C 87.14517000000001 87.30497 85.19827000000001 89.06442 83.62227000000001 91.28459 C 79.35453000000001 97.68772999999999 77.08341000000001 105.42205999999999 78.13703000000001 113.0788 C 68.14031000000001 119.04586 57.636060000000015 123.98593 46.730300000000014 127.3477 C 57.92402000000001 120.76692 56.48466000000001 101.47028 57.069150000000015 89.58098000000001 C 57.489770000000014 84.35448000000001 58.41808000000002 79.16562000000002 59.898910000000015 74.04608000000002 C 57.42934000000002 78.80682000000002 56.00543000000002 84.06422000000002 55.15409000000002 89.35483000000002 C 53.06720000000002 102.42964000000002 56.70912000000002 122.66209000000002 42.252330000000015 128.63558 C 28.6827 132.23605 14.52993 133.33084 0 130.89064 C 9.00338 132.80831999999998 17.90701 133.27316 26.64859 132.57252 C 37.5167 133.56694 48.57347 135.33082 57.559870000000004 141.72233 C 65.16001 147.31698 73.98728 152.49878999999999 83.7886 152.16706 C 86.98757 152.07112999999998 90.14676 151.56635 93.14972 150.61341 C 83.79181 152.10923 74.48807 150.05002 66.67235 144.94869 C 61.39704 141.6186 56.474729999999994 137.22584 50.40192999999999 135.14904 C 44.64815999999999 133.03843 38.58194999999999 132.11671 32.483909999999995 131.91962 C 50.31716999999999 129.42052 67.39408999999999 122.19266 83.14398 112.49216000000001 C 90.99306 109.20185000000001 100.14838 108.03714000000001 108.00358 111.89267000000001 C 110.04885 112.83031000000001 112.13407 113.85349000000001 114.35011 114.60201 C 116.56905 115.29713000000001 118.94177 115.77850000000001 121.22911 115.42 C 116.58053000000001 115.04696 112.90019000000001 112.35613000000001 108.88538 110.14637 C 103.413 106.85116000000001 96.78524 106.34485000000001 90.55851 107.68491 C 97.67621 102.8391 104.4885 97.54543 110.93555 92.02347 C 114.98204000000001 89.54624 118.77377000000001 86.76438 123.14081 85.50175 C 128.5038 83.93416 134.27088 83.83685 139.89459 83.98955000000001 C 131.51227 81.45143 124.22442 82.39351 117.69918 86.03177000000001 C 119.53453 84.35310000000001 121.34203 82.66419 123.10807 80.96655000000001 C 127.76583 76.65963 132.18719 72.03508000000001 136.59065 67.38160000000002 C 147.70587 60.64613000000002 161.23375000000001 58.23393000000002 174.18248 58.81292000000002 C 162.97684 56.3787 150.27092 57.93848 140.11752 63.65812 z" stroke-linecap="round" />
</g>
		<g transform="matrix(1 0 0 1 -65.92052805529755 9.248828546890252)" id="Layer_1"  >
<path style="stroke: none; stroke-width: 1; stroke-dasharray: none; stroke-linecap: butt; stroke-dashoffset: 0; stroke-linejoin: miter; stroke-miterlimit: 4; fill: rgb(153,183,105); fill-rule: nonzero; opacity: 1;"  paint-order="stroke"  transform=" translate(-59.079471944702455, -86.37795500000001)" d="M 51.22659 122.03064 C 51.7124 119.42065000000001 49.14058 113.38878000000001 48.5522 109.74581 C 47.41563 102.70875000000001 46.40095 97.40098 47.87659 90.22083 C 51.09157 74.57736 57.85027 60.315740000000005 71.01836 50.72527000000001 C 65.90839 61.31623 69.86095 73.02 68.6686 84.36655 C 67.63076 94.24273000000001 63.000659999999996 103.14917 58.386559999999996 111.9752 C 56.52164 115.5425 54.23202 119.88196 51.22659 122.03064 z" stroke-linecap="round" />
</g>
		<g transform="matrix(1 0 0 1 -11.14191010872846 -40.13120145310976)" id="Layer_1"  >
<path style="stroke: none; stroke-width: 1; stroke-dasharray: none; stroke-linecap: butt; stroke-dashoffset: 0; stroke-linejoin: miter; stroke-miterlimit: 4; fill: rgb(153,183,105); fill-rule: nonzero; opacity: 1;"  paint-order="stroke"  transform=" translate(-113.85808989127153, -36.997925)" d="M 116.59386 73.99585 C 116.33227000000001 71.35394000000001 112.17984000000001 66.27900000000001 110.59855 62.9448 C 107.54398 56.50417 105.08887 51.69019 104.50288 44.38344 C 103.22617 28.46413 105.73799 12.88322 115.70786 0 C 113.75532 11.59602 120.81597 21.73251 122.83628999999999 32.96122 C 124.59479999999999 42.73484 122.63314 52.579359999999994 120.66441999999999 62.34218 C 119.8687 66.28812 118.88055 71.09404 116.59386 73.99585 z" stroke-linecap="round" />
</g>
		<g transform="matrix(1 0 0 1 -43.14444 66.26856451710357)" id="Layer_1"  >
<path style="stroke: none; stroke-width: 1; stroke-dasharray: none; stroke-linecap: butt; stroke-dashoffset: 0; stroke-linejoin: miter; stroke-miterlimit: 4; fill: rgb(153,183,105); fill-rule: nonzero; opacity: 1;"  paint-order="stroke"  transform=" translate(-81.85556, -143.39769097021332)" d="M 45.44584 134.79767 C 48.00752 135.49471 52.32174 140.43285 55.34675 142.54631 C 61.190129999999996 146.62883 65.52911 149.84988 72.63685 151.64212 C 88.12254999999999 155.54691 103.90423 155.65958 118.26527999999999 147.9696 C 106.50601999999999 147.96769 97.684 139.32055000000003 86.94725 135.46209000000002 C 77.60182 132.10363 67.56819999999999 132.40183000000002 57.613949999999996 132.72057 C 53.59064 132.84941 48.68734 133.02507 45.44584 134.79767 z" stroke-linecap="round" />
</g>
		<g transform="matrix(1 0 0 1 9.880170000000021 40.029616253490886)" id="Layer_1"  >
<path style="stroke: none; stroke-width: 1; stroke-dasharray: none; stroke-linecap: butt; stroke-dashoffset: 0; stroke-linejoin: miter; stroke-miterlimit: 4; fill: rgb(153,183,105); fill-rule: nonzero; opacity: 1;"  paint-order="stroke"  transform=" translate(-134.88017000000002, -117.15874270660065)" d="M 98.47045 108.55872 C 101.03213 109.25576 105.34635 114.1939 108.37137 116.30735 C 114.21475 120.38988 118.55373 123.61093 125.66146 125.40317999999999 C 141.14717000000002 129.30794 156.92885 129.42063 171.28989 121.73065 C 159.53064 121.72874999999999 150.70862000000002 113.0816 139.97187000000002 109.22315 C 130.62644000000003 105.86469000000001 120.59282000000002 106.16289 110.63857000000002 106.48163000000001 C 106.61526 106.61046 101.71196 106.78611 98.47045 108.55872 z" stroke-linecap="round" />
</g>
		<g transform="matrix(1 0 0 1 64.46932382845385 -14.972337790255864)" id="Layer_1"  >
<path style="stroke: none; stroke-width: 1; stroke-dasharray: none; stroke-linecap: butt; stroke-dashoffset: 0; stroke-linejoin: miter; stroke-miterlimit: 4; fill: rgb(153,183,105); fill-rule: nonzero; opacity: 1;"  paint-order="stroke"  transform=" translate(-189.46932382845387, -62.1567886628539)" d="M 155.62741 59.67813 C 154.7274 58.57511 166.10901 54.883390000000006 166.89769 54.71052 C 171.47951 53.70624 176.17383 53.22243 180.86380000000003 53.248940000000005 C 195.34106000000003 53.33079000000001 214.89633000000003 58.21383 223.36189000000002 71.06567000000001 C 219.78505 67.73472000000001 213.94116000000002 67.39181 209.50607000000002 66.81356000000001 C 201.84611 65.81486000000001 194.53587000000002 67.14970000000001 187.09822000000003 69.00355 C 176.27878 71.70034 163.96651 69.87926 155.62741 59.67813 z" stroke-linecap="round" />
</g>
		<g transform="matrix(1 0 0 1 90.64422208130753 -49.73425839651788)" id="Layer_1"  >
<path style="stroke: none; stroke-width: 1; stroke-dasharray: none; stroke-linecap: butt; stroke-dashoffset: 0; stroke-linejoin: miter; stroke-miterlimit: 4; fill: rgb(153,183,105); fill-rule: nonzero; opacity: 1;"  paint-order="stroke"  transform=" translate(-215.64422208130753, -27.394868056591882)" d="M 181.37106 30.71769 C 180.26359 29.82318 190.64354 23.871160000000003 191.37985 23.539900000000003 C 195.65747000000002 21.615430000000003 200.15214 20.177180000000003 204.74745000000001 19.239270000000005 C 218.93251 16.344060000000006 239.07388000000003 17.103950000000005 250 27.941650000000003 C 245.81496 25.416900000000002 240.02533 26.282320000000002 235.56607 26.627900000000004 C 227.86437999999998 27.224760000000003 220.98451 30.033490000000004 214.08661999999998 33.37632000000001 C 204.05237 38.23909 191.62866 38.98725 181.37106 30.71769 z" stroke-linecap="round" />
</g>
		<g transform="matrix(1 0 0 1 -38.36161544100158 6.932695869409969)" id="Layer_1"  >
<path style="stroke: none; stroke-width: 1; stroke-dasharray: none; stroke-linecap: butt; stroke-dashoffset: 0; stroke-linejoin: miter; stroke-miterlimit: 4; fill: rgb(90,32,87); fill-rule: nonzero; opacity: 1;"  paint-order="stroke"  transform=" translate(-86.63838455899841, -84.06182232251973)" d="M 91.36481 70.93065 C 86.49623000000001 68.77943 80.10954000000001 74.07323 78.0027 77.73409 C 75.18585 82.62863999999999 74.58034 89.6343 78.04157000000001 94.09125999999999 C 80.76587 97.59929 85.01617 98.78443999999999 89.1584 96.56549999999999 C 94.26681 93.82898999999999 96.61233 89.19649999999999 97.39887 83.60684999999998 C 97.94739 79.70876 97.91802 73.82624 91.36481 70.93065 z" stroke-linecap="round" />
</g>
		<g transform="matrix(1 0 0 1 21.70545018100195 9.006508122109558)" id="Layer_1"  >
<path style="stroke: none; stroke-width: 1; stroke-dasharray: none; stroke-linecap: butt; stroke-dashoffset: 0; stroke-linejoin: miter; stroke-miterlimit: 4; fill: rgb(90,32,87); fill-rule: nonzero; opacity: 1;"  paint-order="stroke"  transform=" translate(-146.70545018100194, -86.13563457521931)" d="M 158.24304 89.3362 C 159.77316000000002 85.33069 154.82718 80.45368 151.55531000000002 78.93389 C 147.18083000000001 76.90194000000001 141.13981 76.74206000000001 137.54379000000003 79.72588 C 134.71339000000003 82.07442 133.97122000000002 85.53902000000001 136.13855000000004 88.75861 C 138.81142000000003 92.72917000000001 142.93106000000003 94.39521 147.77055000000004 94.76617 C 151.14549 95.02486 156.18347 94.7277 158.24304 89.3362 z" stroke-linecap="round" />
</g>
		<g transform="matrix(1 0 0 1 22.007135358313988 -52.01810431788599)" id="Layer_1"  >
<path style="stroke: none; stroke-width: 1; stroke-dasharray: none; stroke-linecap: butt; stroke-dashoffset: 0; stroke-linejoin: miter; stroke-miterlimit: 4; fill: rgb(90,32,87); fill-rule: nonzero; opacity: 1;"  paint-order="stroke"  transform=" translate(-147.00713535831397, -25.11102213522377)" d="M 142.68761 12.41923 C 138.10018 13.42098 136.71222 21.010460000000002 137.34658000000002 24.99444 C 138.19471000000001 30.32101 141.77341 36.06943 146.70492000000002 37.62092 C 150.58645 38.84209 154.19604 37.43179 155.78906 33.448539999999994 C 157.75366 28.536179999999995 156.72973000000002 23.670259999999992 154.08378000000002 18.91763999999999 C 152.23854 15.60328 148.8624 11.07084 142.68761 12.41923 z" stroke-linecap="round" />
</g>
</g>
</g>
</svg>