<svg xmlns="http://www.w3.org/2000/svg" width="1280" height="348" viewBox="0 0 1280 348" version="1.1">
	<path d="M 142.315 0.940 C 111.773 5.806, 85.638 26.540, 74.024 55.120 C 71.789 60.618, 71.625 60.766, 66.461 61.921 C 60.380 63.282, 47.034 69.515, 40.191 74.190 C 14.761 91.562, -0.703 124.985, 2.917 154.753 C 3.502 159.567, 4.677 166.205, 5.529 169.503 C 7.651 177.722, 14.882 192.319, 20.266 199.253 L 24.726 204.996 22.842 212.748 C 20.470 222.509, 20.249 240.951, 22.393 250.196 C 24.577 259.613, 28.505 269.521, 33.178 277.403 C 38.058 285.632, 50.343 298.792, 58 303.992 C 76.258 316.389, 98.860 322.014, 118.964 319.163 L 126.429 318.104 131.964 323.355 C 139.276 330.290, 145.410 334.394, 155.327 338.987 C 166.247 344.044, 174.393 346.023, 187 346.680 C 211.918 347.978, 235.615 339.147, 252.857 322.140 C 262.400 312.726, 270.562 300.188, 273.941 289.750 C 274.699 287.408, 275.783 285.995, 276.828 285.987 C 280.346 285.958, 295.301 280.049, 302.149 275.981 C 306.085 273.643, 312.851 268.342, 317.184 264.202 C 329.942 252.014, 338.014 238.104, 342.258 221 C 345.180 209.219, 345.118 190.776, 342.118 179.500 C 339.412 169.331, 332.561 155.146, 326.803 147.790 L 322.334 142.080 324.249 134.790 C 328.463 118.745, 326.317 95.476, 319.169 79.712 C 312.780 65.621, 300.695 51.004, 288.622 42.764 C 271.164 30.848, 248.153 25.152, 228.602 27.908 L 220.703 29.021 215.102 23.708 C 199.610 9.013, 180.685 1.179, 159 0.482 C 152.675 0.279, 145.167 0.485, 142.315 0.940 M 139.512 24.614 C 129.512 27.032, 119.580 32.610, 111.158 40.540 C 102.366 48.818, 97.119 57.016, 93.262 68.500 L 90.576 76.500 90.218 122.584 L 89.860 168.667 104.680 177.219 L 119.500 185.770 120 134.903 L 120.500 84.037 123.500 81.158 C 125.150 79.575, 142.387 69.155, 161.805 58.004 L 197.111 37.728 192.599 34.520 C 186.926 30.487, 178.212 26.551, 170.520 24.547 C 163.123 22.620, 147.621 22.654, 139.512 24.614 M 224.462 51.473 C 215.647 53.392, 209.219 56.678, 171 78.797 L 136.500 98.764 136.226 115.882 C 136.076 125.297, 136.192 133, 136.485 133 C 136.778 133, 156.251 121.880, 179.759 108.289 C 213.312 88.889, 223.257 83.574, 226.020 83.561 C 228.799 83.549, 237.223 87.990, 266.020 104.650 L 302.500 125.754 303.330 122.127 C 304.587 116.639, 303.243 103.870, 300.500 95.220 C 297.088 84.463, 291.719 75.937, 283.352 67.990 C 267.814 53.230, 245.343 46.928, 224.462 51.473 M 463.432 73.443 C 429.426 82.235, 405.553 110.607, 399.957 148.880 C 398.221 160.752, 399.249 185.197, 401.909 195.303 C 410.759 228.922, 431.751 251.394, 462.500 260.165 C 474.164 263.492, 496.969 263.512, 508.500 260.206 C 531.308 253.667, 548.708 239.685, 559.921 218.887 C 568.454 203.060, 572 187.617, 572 166.276 C 572 125.950, 554.525 94.780, 523.078 79.017 C 506.825 70.870, 482.262 68.574, 463.432 73.443 M 1065.154 165.777 C 1045.819 216.804, 1030 258.879, 1030 259.277 C 1030 259.675, 1037.321 260, 1046.269 260 L 1062.538 260 1067.399 246.750 C 1070.073 239.463, 1073.594 230.007, 1075.222 225.739 L 1078.184 217.978 1118.727 218.239 L 1159.271 218.500 1167.048 239 L 1174.824 259.500 1191.412 259.774 C 1200.535 259.925, 1208 259.730, 1208 259.340 C 1208 258.951, 1192.180 216.865, 1172.844 165.816 L 1137.689 73 1118.999 73 L 1100.308 73 1065.154 165.777 M 1229 167.500 L 1229 261 1245.500 261 L 1262 261 1262 167.500 L 1262 74 1245.500 74 L 1229 74 1229 167.500 M 60.492 88.631 C 44.840 96.878, 33.750 109.907, 28.324 126.422 C 24.988 136.578, 24.524 152.721, 27.279 162.841 C 30.920 176.215, 39.271 189.109, 49.310 196.854 C 54.097 200.546, 126.371 243, 127.871 243 C 128.894 243, 157.002 226.625, 156.971 226.047 C 156.955 225.746, 137.777 214.475, 114.354 201 C 90.930 187.525, 70.918 175.427, 69.883 174.115 C 68.105 171.864, 68 169.330, 68 128.865 C 68 95.095, 67.733 86, 66.742 86 C 66.050 86, 63.238 87.184, 60.492 88.631 M 473.348 101.420 C 459.082 104.880, 447.333 114.675, 440.261 129.005 C 434.943 139.779, 433.070 147.574, 432.335 162 C 430.370 200.526, 448.472 228.643, 478.148 233.162 C 497.895 236.169, 516.651 227.437, 527.931 209.986 C 541.380 189.178, 542.733 153.623, 531 129.381 C 520.151 106.968, 496.921 95.702, 473.348 101.420 M 204.262 112.305 C 196.431 116.812, 190.019 120.725, 190.013 121 C 190.007 121.275, 192.364 122.821, 195.251 124.435 C 225.048 141.093, 274.975 170.591, 276.750 172.584 L 279 175.112 279 218.056 C 279 257.338, 279.141 261, 280.654 261 C 284.373 261, 295.837 253.350, 303.121 246.008 C 316.372 232.650, 322.747 215.989, 321.679 197.500 C 320.510 177.255, 311.051 159.511, 295.591 148.560 C 289.701 144.387, 223.037 105.631, 220 104.613 C 219.175 104.336, 212.093 107.798, 204.262 112.305 M 1115.310 118.523 C 1102.558 151.997, 1089.778 187.112, 1090.195 187.529 C 1090.472 187.805, 1103.518 187.912, 1119.187 187.766 L 1147.677 187.500 1133.379 150 C 1125.515 129.375, 1118.916 112.060, 1118.715 111.523 C 1118.513 110.985, 1116.981 114.135, 1115.310 118.523 M 654.634 122.154 C 647.038 123.607, 637.573 128.384, 632.047 133.553 L 627 138.274 627 131.137 L 627 124 611.500 124 L 596 124 596 215.500 L 596 307 611.500 307 L 627 307 627 277.050 L 627 247.099 633.999 252.364 C 644.495 260.260, 651.692 262.502, 666.500 262.489 C 676.358 262.481, 679.679 262.073, 685.109 260.205 C 705.450 253.206, 719.406 235.593, 724.631 210.327 C 726.878 199.462, 726.069 177.460, 723.040 167.027 C 713.498 134.172, 686.025 116.150, 654.634 122.154 M 795.500 122.567 C 775.682 126.470, 757.990 141.703, 750.151 161.612 C 745.086 174.475, 743.491 195.696, 746.511 210.051 C 753.317 242.409, 778.178 262.914, 810.685 262.983 C 833.388 263.031, 852.899 252.959, 863.925 235.502 C 870.415 225.225, 870.535 225.463, 856.017 219.837 C 849.152 217.177, 843.422 215, 843.284 215 C 843.146 215, 841.922 217.193, 840.564 219.873 C 832.448 235.890, 810.072 241.565, 793.148 231.899 C 784.237 226.810, 776.938 215.122, 775.326 203.360 L 774.728 199 822.364 199 L 870 199 870 188.458 C 870 174.456, 867.861 164.535, 862.404 153.222 C 850.422 128.383, 825.032 116.750, 795.500 122.567 M 950.773 122.555 C 942.860 124.473, 935.620 128.340, 929.867 133.721 L 925 138.274 925 131.137 L 925 124 909.500 124 L 894 124 894 192 L 894 260 909.461 260 L 924.921 260 925.211 215.750 C 925.490 173.077, 925.576 171.336, 927.623 166.911 C 935.322 150.264, 957.397 144.713, 969.513 156.377 C 976.850 163.441, 977 164.632, 977 215.682 L 977 260 993.080 260 L 1009.160 260 1008.737 209.750 C 1008.277 155.207, 1008.253 154.959, 1002.386 143.363 C 999.249 137.163, 991.312 129.220, 985.071 126.036 C 975.911 121.363, 961.657 119.917, 950.773 122.555 M 154.990 140.845 L 136.500 151.535 136.258 173.517 L 136.016 195.500 154.531 206 C 164.714 211.775, 173.598 216.354, 174.273 216.176 C 174.948 215.997, 183.479 211.272, 193.232 205.676 L 210.964 195.500 210.953 173.500 L 210.941 151.500 197.778 144 C 190.538 139.875, 182.109 135.072, 179.047 133.327 L 173.480 130.155 154.990 140.845 M 802.326 147.994 C 790.948 150.381, 782.434 158.089, 777.849 170.156 L 776.008 175 807.592 175 L 839.176 175 838.475 170.852 C 836.181 157.274, 826.776 148.871, 812.494 147.637 C 809.197 147.352, 804.622 147.513, 802.326 147.994 M 653.355 149.039 C 635.646 152.544, 626.035 167.657, 626.035 192 C 626.035 212.683, 632.623 226.230, 645.839 232.720 C 650.685 235.100, 652.727 235.500, 660.021 235.500 C 667.632 235.500, 669.255 235.149, 675.215 232.215 C 687.972 225.935, 694.965 211.872, 694.965 192.500 C 694.965 178.341, 691.019 166.231, 683.884 158.490 C 678.720 152.887, 674.394 150.544, 666.535 149.091 C 659.961 147.876, 659.249 147.873, 653.355 149.039 M 227 210.981 C 227 256.105, 226.831 261.478, 225.329 264.021 C 224.118 266.071, 213.531 272.708, 186.893 288.116 L 150.129 309.382 153.314 311.772 C 158.622 315.754, 169.117 320.643, 176.064 322.369 C 189.933 325.815, 208.545 323.811, 220.922 317.539 C 232.383 311.732, 243.810 300.155, 249.584 288.500 C 256.368 274.810, 256.315 275.284, 256.740 224.423 L 257.125 178.347 244.312 171.001 C 237.266 166.960, 230.488 163.005, 229.250 162.212 L 227 160.770 227 210.981 M 170.500 237.065 C 121.548 265.359, 123.528 264.328, 119.620 263.564 C 117.904 263.228, 100.300 253.578, 80.500 242.120 L 44.500 221.287 43.696 225.393 C 41.773 235.223, 45.691 253.799, 51.989 264.712 C 56.261 272.114, 66.066 282.231, 73.547 286.955 C 91.470 298.275, 116.200 300.141, 134.665 291.568 C 140.624 288.802, 207.862 250.284, 209.775 248.540 C 210.733 247.667, 210.982 243.226, 210.775 230.661 L 210.500 213.944 170.500 237.065" stroke="none" fill="#000000" fill-rule="evenodd"/>
</svg>