<svg width="795" height="273" viewBox="0 0 795 273" fill="none" xmlns="http://www.w3.org/2000/svg">
<g clip-path="url(#clip0_99_2)">
<path d="M652.282 -0.177048C653.974 -0.196301 653.974 -0.196301 655.7 -0.215942C656.93 -0.223329 658.159 -0.230716 659.425 -0.238327C660.679 -0.246399 661.934 -0.254471 663.226 -0.262787C665.887 -0.276649 668.547 -0.287659 671.208 -0.295212C674.615 -0.306268 678.021 -0.340653 681.427 -0.380383C684.676 -0.412835 687.926 -0.417328 691.175 -0.425827C692.398 -0.443335 693.621 -0.460843 694.881 -0.478882C696.019 -0.475956 697.156 -0.473031 698.329 -0.470016C699.329 -0.475883 700.33 -0.481749 701.361 -0.487793C704.857 0.15848 705.84 1.19032 707.999 3.99995C708.39 6.593 708.536 8.76161 708.5 11.3519C708.509 12.4661 708.509 12.4661 708.517 13.6028C708.531 16.0939 708.516 18.5839 708.501 21.0749C708.505 22.8607 708.51 24.6465 708.517 26.4323C708.531 31.2885 708.52 36.1444 708.504 41.0006C708.49 46.0936 708.496 51.1866 708.5 56.2796C708.502 64.8468 708.489 73.4139 708.466 81.9812C708.439 91.85 708.437 101.719 708.449 111.588C708.46 121.106 708.454 130.623 708.44 140.141C708.434 144.177 708.434 148.213 708.439 152.249C708.444 157.023 708.433 161.798 708.412 166.572C708.406 168.312 708.406 170.051 708.411 171.79C708.479 198.668 702.069 222.416 683.999 243C683.334 243.761 682.669 244.521 681.984 245.305C665.427 263.026 640.445 271.875 616.625 273.124C588.849 274.023 559.502 268.9 538.437 249.375C536.602 247.604 534.801 245.805 532.999 244C532.347 243.419 531.695 242.837 531.023 242.238C516.296 228.89 508.461 207.183 505.999 188C505.274 173.098 504.681 157.401 508.999 143C509.289 141.967 509.579 140.935 509.878 139.871C516.566 117.96 530.773 99.8009 550.999 89C569.936 80.3328 591.981 77.7284 611.965 84.684C625.06 89.9528 635.659 99.3202 641.999 112C642.005 110.683 642.011 109.366 642.017 108.009C642.074 95.6052 642.147 83.2011 642.235 70.797C642.28 64.4197 642.319 58.0426 642.346 51.6652C642.372 45.5119 642.412 39.3588 642.462 33.2056C642.479 30.8569 642.491 28.5081 642.497 26.1594C642.506 22.872 642.534 19.5853 642.567 16.298C642.565 15.3248 642.564 14.3516 642.563 13.349C642.671 5.53667 643.696 -0.0923887 652.282 -0.177048ZM581.687 153.75C575.265 163.077 574.86 174.03 575.999 185C578.045 195.156 583.841 202.082 592.128 207.992C599.682 212.061 608.643 212.276 616.886 210.312C624.781 207.411 630.702 202.624 634.933 195.336C640.304 183.57 639.94 172.09 635.999 160C631.953 151.761 626.13 146.03 617.624 142.625C603.788 138.114 590.845 142.611 581.687 153.75Z" fill="#181818"/>
<path d="M171.154 24.4709C182.036 34.1573 189.187 45.7572 195 59C195.42 59.932 195.84 60.864 196.273 61.8242C206.538 87.0231 204.035 118.169 194 143C184.637 163.351 169.131 179.123 148 187C129.481 193.367 109.075 193.302 90.9254 185.715C80.5696 180.53 73.1384 173.163 67.3746 163.187C66.1865 160.877 66.1865 160.877 63.9996 160C64.0043 160.552 64.0089 161.104 64.0136 161.673C64.1241 175.11 64.2065 188.547 64.2587 201.985C64.2848 208.484 64.3202 214.982 64.3768 221.48C64.4311 227.75 64.4611 234.02 64.474 240.29C64.4833 242.683 64.5013 245.077 64.5283 247.47C64.5645 250.82 64.5696 254.168 64.5673 257.518C64.5853 258.51 64.6032 259.502 64.6217 260.524C64.5876 265.071 64.4803 267.318 61.8045 271.116C58.7121 273.193 57.2377 273.627 53.5543 273.631C52.4897 273.644 51.4251 273.656 50.3283 273.669C49.1886 273.656 48.0489 273.643 46.8746 273.629C45.1052 273.632 45.1052 273.633 43.2999 273.636C40.8085 273.635 38.3171 273.622 35.8258 273.597C32.0132 273.563 28.2029 273.576 24.3903 273.596C21.9684 273.589 19.5465 273.579 17.1247 273.566C15.4151 273.574 15.4151 273.574 13.671 273.581C12.6064 273.566 11.5418 273.55 10.445 273.533C9.51184 273.527 8.57872 273.521 7.61733 273.515C4.05611 272.814 2.53197 271.599 -0.000349224 269C-0.500031 266.287 -0.669642 264.194 -0.621809 261.483C-0.628198 260.722 -0.63459 259.962 -0.641173 259.178C-0.656445 256.627 -0.635943 254.077 -0.615584 251.526C-0.619084 249.698 -0.624743 247.869 -0.632399 246.041C-0.646673 241.069 -0.629547 236.098 -0.606108 231.126C-0.586002 225.914 -0.591885 220.703 -0.594221 215.492C-0.594168 206.728 -0.574391 197.964 -0.542341 189.2C-0.505573 179.097 -0.496654 168.994 -0.503645 158.891C-0.509977 149.153 -0.499132 139.415 -0.479674 129.678C-0.471542 125.545 -0.468782 121.413 -0.470366 117.281C-0.471252 112.396 -0.45682 107.511 -0.431135 102.627C-0.42404 100.845 -0.421865 99.0628 -0.425261 97.2808C-0.465345 71.2612 6.66645 46.3971 25.3942 27.539C26.254 26.7011 27.1138 25.8633 27.9997 25C28.6429 24.3477 29.2861 23.6954 29.9489 23.0234C67.1004 -12.2745 133.996 -7.1692 171.154 24.4709ZM76.9996 71C69.5644 80.919 68.011 90.7904 68.9996 103C70.8568 112.075 74.7232 118.839 81.3121 125.25C89.7312 130.732 96.9017 132.114 107 131C115.128 129.11 121.668 124.637 126.535 117.863C132.303 108.227 133.404 97.2708 131.535 86.2617C129.255 77.5881 124.637 70.3194 117.199 65.2187C103.617 57.692 87.8506 59.9001 76.9996 71Z" fill="#181818"/>
<path d="M367.477 100.766C387.59 116.083 398.969 137.757 402.705 162.503C403.732 171.172 403.473 179.985 403.469 188.699C403.477 190.951 403.484 193.203 403.493 195.455C403.506 200.141 403.508 204.826 403.502 209.512C403.496 215.515 403.527 221.518 403.567 227.521C403.593 232.156 403.596 236.791 403.592 241.426C403.594 243.641 403.603 245.856 403.621 248.07C403.643 251.155 403.634 254.238 403.616 257.323C403.629 258.234 403.642 259.144 403.656 260.083C403.598 264.436 403.404 266.436 400.809 270.065C397.679 272.222 396.206 272.627 392.448 272.631C391.36 272.644 390.272 272.656 389.151 272.669C387.986 272.656 386.822 272.643 385.622 272.629C383.815 272.633 383.815 272.633 381.973 272.636C379.43 272.635 376.887 272.622 374.345 272.597C370.449 272.563 366.555 272.576 362.659 272.596C360.188 272.589 357.717 272.579 355.247 272.566C354.08 272.571 352.913 272.576 351.711 272.581C350.627 272.566 349.542 272.55 348.424 272.533C346.995 272.524 346.995 272.524 345.536 272.515C342.272 271.852 341.09 270.535 339.001 268C337.742 265.483 337.793 263.587 337.684 260.773C337.621 259.227 337.621 259.227 337.557 257.648C337.518 256.568 337.479 255.488 337.438 254.375C337.395 253.287 337.352 252.199 337.307 251.078C337.201 248.386 337.099 245.693 337.001 243C336.515 243.706 336.03 244.412 335.53 245.139C325.22 260.072 313.859 269.181 295.673 272.605C275.176 275.633 254.424 272.006 237.309 260.133C235.151 258.476 233.071 256.765 231.001 255C230.204 254.401 229.407 253.801 228.587 253.184C212.097 239.26 203.561 216.851 201.001 196C200.713 191.246 200.666 186.512 200.688 181.75C200.693 180.474 200.698 179.198 200.703 177.883C201.046 150.282 211.334 127.063 230.469 107.473C266.13 73.6069 328.369 72.8838 367.477 100.766ZM279.001 153C270.858 162.868 269.92 173.655 271.001 186C272.58 195.288 276.917 201.857 284.001 208C291.985 213.208 299.691 213.708 309.001 213C316.871 211.144 323.173 207.206 327.692 200.484C333.372 190.685 335.634 180.626 333.501 169.359C330.563 158.477 324.53 150.841 314.813 145.125C301.993 139.997 288.67 143.423 279.001 153Z" fill="#181818"/>
<path d="M432.813 89.369C434.53 89.3502 434.53 89.3502 436.282 89.3311C437.509 89.3443 438.736 89.3576 440.001 89.3712C441.903 89.3676 441.903 89.3676 443.844 89.3639C446.525 89.3649 449.203 89.3757 451.883 89.4032C455.31 89.4373 458.735 89.4313 462.162 89.4126C465.442 89.3994 468.721 89.4177 472.001 89.4337C473.228 89.4288 474.455 89.4238 475.719 89.4187C476.864 89.4345 478.009 89.4504 479.188 89.4667C480.192 89.4729 481.196 89.4791 482.231 89.4855C485.881 90.1637 487.402 91.3554 490.001 94.0001C490.63 97.1986 490.63 97.1986 490.635 101.06C490.643 101.771 490.651 102.482 490.659 103.215C490.679 105.598 490.663 107.98 490.647 110.363C490.654 112.072 490.663 113.78 490.674 115.489C490.697 120.129 490.688 124.769 490.672 129.41C490.66 134.263 490.671 139.117 490.679 143.97C490.688 152.121 490.676 160.272 490.652 168.423C490.625 177.85 490.634 187.277 490.662 196.704C490.684 204.795 490.687 212.885 490.674 220.975C490.667 225.808 490.665 230.642 490.682 235.475C490.696 240.02 490.686 244.563 490.658 249.107C490.651 250.776 490.653 252.445 490.664 254.114C490.677 256.39 490.66 258.664 490.635 260.94C490.633 262.852 490.633 262.852 490.63 264.802C490.001 268 490.001 268 487.634 270.409C484.557 272.268 482.763 272.512 479.188 272.534C478.043 272.549 476.899 272.565 475.719 272.582C473.878 272.574 473.878 272.574 472.001 272.567C470.732 272.573 469.464 272.579 468.157 272.585C465.477 272.592 462.798 272.591 460.118 272.577C456.691 272.559 453.266 272.583 449.839 272.618C446.559 272.645 443.28 272.635 440.001 272.629C438.773 272.642 437.546 272.656 436.282 272.669C435.137 272.657 433.992 272.644 432.813 272.631C431.809 272.63 430.805 272.629 429.77 272.628C425.885 271.747 424.499 270.066 422.001 267C421.371 263.713 421.371 263.713 421.366 259.903C421.354 258.848 421.354 258.848 421.342 257.772C421.322 255.422 421.338 253.073 421.354 250.723C421.347 249.036 421.338 247.348 421.327 245.661C421.304 241.083 421.313 236.505 421.329 231.926C421.342 227.134 421.33 222.343 421.322 217.551C421.313 209.504 421.325 201.458 421.349 193.411C421.376 184.108 421.367 174.806 421.34 165.503C421.317 157.516 421.314 149.528 421.327 141.541C421.335 136.77 421.336 132 421.319 127.23C421.305 122.745 421.315 118.26 421.344 113.775C421.35 112.129 421.348 110.483 421.337 108.837C421.324 106.59 421.341 104.345 421.366 102.098C421.367 100.84 421.369 99.583 421.371 98.2876C422.595 91.8954 426.581 89.375 432.813 89.369Z" fill="#181818"/>
<path d="M783.875 208.75C790.331 214.748 794.594 223.22 795.336 231.953C795.587 243.808 793.856 252.494 786.125 261.89C778.425 269.533 769.54 273.405 758.75 273.375C747.361 273.296 740.489 270.262 732.195 262.293C724.806 254.575 721.89 247.384 721.562 236.625C721.856 224.868 725.706 216.352 734 208C749.432 195.388 768.459 196.857 783.875 208.75Z" fill="#FFB902"/>
<path d="M470.126 1.62503C472.126 2.74612 472.126 2.74612 474.001 4.00003C475.022 4.63618 475.022 4.63618 476.063 5.28519C482.751 9.83242 489.047 16.6136 491.563 24.4453C493.693 36.8812 492.451 47.7649 485.251 58.25C479.755 65.065 472.552 69.9486 464.001 72C452.395 73.239 442.733 71.6413 433.188 64.8125C428.783 61.1241 425.749 57.021 423.001 52C422.66 51.4096 422.32 50.8192 421.969 50.211C418.366 42.6383 418.832 32.5517 420.88 24.5782C425.068 13.6855 431.679 7.21073 442.001 2.00003C442.746 1.62362 443.491 1.24722 444.258 0.859404C451.813 -1.50801 462.811 -1.45462 470.126 1.62503Z" fill="#171717"/>
</g>
<defs>
<clipPath id="clip0_99_2">
<rect width="795" height="273" fill="white"/>
</clipPath>
</defs>
</svg>
