<?xml version="1.0" encoding="utf-8"?>
<!-- Generator: Adobe Illustrator 16.0.3, SVG Export Plug-In . SVG Version: 6.00 Build 0)  -->
<svg version="1.2" baseProfile="tiny" id="Ebene_1" xmlns="http://www.w3.org/2000/svg" xmlns:xlink="http://www.w3.org/1999/xlink"
	 x="0px" y="0px" width="855.001px" height="125px" viewBox="0 0 855.001 125" xml:space="preserve">
<g>
	<path fill="#6BA52F" d="M2.464,16.636c14.788,0,23.876,11.09,23.876,24.184c0,14.787-10.475,24.953-26.34,28.496v14.479
		c18.792,3.235,30.19,16.328,30.19,35.274c0,1.54-0.153,3.234-0.308,4.775h20.948c0.154-1.694,0.309-3.389,0.309-5.237
		c0-25.878-15.096-39.279-26.648-44.362v-0.463c9.396-4.774,21.873-14.633,21.873-35.428C46.364,17.252,32.193,0,7.239,0
		C4.621,0,2.311,0.153,0,0.308v16.481C0.924,16.636,1.694,16.636,2.464,16.636"/>
	<path fill="#010202" d="M822.396,119.84c3.389,2.618,8.934,4.621,15.558,4.621c9.55,0,16.79-5.084,16.79-13.556
		c0-6.932-3.389-10.782-10.938-13.709l-7.855-3.081c-4.621-1.849-7.394-3.543-7.394-7.701c0-4.93,4.313-7.395,9.704-7.395
		c5.699,0,10.166,2.003,14.172,5.237v-6.777c-3.697-2.618-8.78-4.005-14.172-4.005c-8.626,0-15.865,4.467-15.865,12.939
		c0,7.855,5.391,11.09,11.09,13.4l7.24,2.772c5.237,2.157,7.855,4.006,7.855,8.318c0,5.083-4.158,7.855-10.628,7.855
		c-5.854,0-10.937-1.848-15.558-5.853V119.84z"/>
	<path fill="#010202" d="M784.966,97.351V79.79h11.706c6.47,0,10.32,3.389,10.32,8.78c0,5.545-3.851,8.78-10.32,8.78H784.966
		L784.966,97.351z M800.523,102.434c7.855-1.078,12.631-5.699,12.631-14.018c0-9.396-6.47-14.325-16.482-14.325h-18.176v49.6h6.315
		v-20.949h8.78l14.171,20.949h7.239L800.523,102.434z"/>
	<path fill="#010202" d="M745.532,118.761c-9.55,0-16.02-8.163-16.02-19.87s6.47-19.871,16.02-19.871
		c9.551,0,16.021,8.164,16.021,19.871S755.236,118.761,745.532,118.761 M745.532,73.475c-12.938,0-22.335,10.475-22.335,25.57
		c0,14.941,9.396,25.569,22.335,25.569c13.093,0,22.489-10.628,22.489-25.569C768.021,83.949,758.625,73.475,745.532,73.475"/>
</g>
<polygon fill="#010202" points="677.757,74.091 677.757,79.79 695.009,79.79 695.009,123.69 701.479,123.69 701.479,79.79 
	718.73,79.79 718.73,74.091 "/>
<g>
	<path fill="#010202" d="M638.785,119.84c3.39,2.618,8.935,4.621,15.559,4.621c9.55,0,16.789-5.084,16.789-13.556
		c0-6.932-3.389-10.782-10.937-13.709l-7.855-3.081c-4.621-1.849-7.394-3.543-7.394-7.701c0-4.93,4.313-7.395,9.704-7.395
		c5.699,0,10.166,2.003,14.171,5.237v-6.777c-3.696-2.618-8.779-4.005-14.171-4.005c-8.626,0-15.866,4.467-15.866,12.939
		c0,7.855,5.392,11.09,11.091,13.4l7.24,2.772c5.237,2.157,7.855,4.006,7.855,8.318c0,5.083-4.159,7.855-10.628,7.855
		c-5.854,0-10.938-1.848-15.558-5.853L638.785,119.84L638.785,119.84z"/>
</g>
<polygon fill="#010202" points="598.12,74.091 598.12,123.69 629.697,123.69 629.697,117.991 604.436,117.991 604.436,101.201 
	627.387,101.201 627.387,95.502 604.436,95.502 604.436,79.79 629.697,79.79 629.697,74.091 "/>
<polygon fill="#010202" points="582.408,74.091 566.851,115.372 551.293,74.091 544.67,74.091 563.771,123.69 569.777,123.69 
	588.878,74.091 "/>
<polygon fill="#010202" points="529.267,74.091 529.267,111.829 502.926,74.091 496.765,74.091 496.765,123.69 502.926,123.69 
	502.926,84.257 530.652,123.69 535.428,123.69 535.428,74.091 "/>
<rect x="477.048" y="74.091" fill="#010202" width="6.315" height="49.6"/>
<polygon fill="#010202" points="428.835,74.091 428.835,111.829 402.495,74.091 396.333,74.091 396.333,123.69 402.495,123.69 
	402.495,84.257 430.222,123.69 434.842,123.69 434.842,74.091 "/>
<polygon fill="#010202" points="376.925,74.091 376.925,111.829 350.431,74.091 344.424,74.091 344.424,123.69 350.585,123.69 
	350.585,84.257 378.312,123.69 382.933,123.69 382.933,74.091 "/>
<path fill="#010202" d="M312.692,82.101l8.01,21.103h-16.174L312.692,82.101z M309.766,74.091l-19.409,49.6h6.47l5.699-14.941
	h20.487l5.699,14.941h6.47l-19.409-49.6H309.766z"/>
<polygon fill="#010202" points="275.569,74.091 258.163,102.587 240.449,74.091 234.596,74.091 234.596,123.69 240.757,123.69 
	240.757,85.644 257.855,112.754 258.163,112.754 274.953,85.644 274.953,123.69 281.269,123.69 281.269,74.091 "/>
<rect x="214.726" y="74.091" fill="#010202" width="6.315" height="49.6"/>
<polygon fill="#010202" points="171.596,74.091 171.596,123.69 203.173,123.69 203.173,117.991 177.911,117.991 177.911,101.201 
	200.862,101.201 200.862,95.502 177.911,95.502 177.911,79.79 203.173,79.79 203.173,74.091 "/>
<g>
	<path fill="#010202" d="M131.7,97.351V79.79h11.707c6.469,0,10.32,3.389,10.32,8.78c0,5.545-3.852,8.78-10.32,8.78H131.7
		L131.7,97.351z M147.258,102.434c7.855-1.078,12.631-5.699,12.631-14.018c0-9.396-6.47-14.325-16.481-14.325H125.23v49.6h6.315
		v-20.949h8.78l14.171,20.949h7.24L147.258,102.434z"/>
</g>
</svg>
