<?xml version="1.0" standalone="no"?>
<!DOCTYPE svg PUBLIC "-//W3C//DTD SVG 20010904//EN"
 "http://www.w3.org/TR/2001/REC-SVG-20010904/DTD/svg10.dtd">
<svg version="1.0" xmlns="http://www.w3.org/2000/svg"
 width="850.000000pt" height="292.000000pt" viewBox="0 0 850.000000 292.000000"
 preserveAspectRatio="xMidYMid meet">

<g transform="translate(0.000000,292.000000) scale(0.100000,-0.100000)"
fill="#000000" stroke="none">
<path d="M350 2901 c-6 -12 -10 -112 -10 -260 l0 -241 -167 -2 -168 -3 0 -155
0 -155 167 -3 166 -2 5 -488 c3 -424 6 -495 22 -552 52 -192 166 -324 330
-380 125 -43 298 -43 436 0 84 26 194 92 193 117 0 23 -142 243 -156 243 -6 0
-35 -12 -64 -26 -110 -54 -235 -42 -310 30 -73 71 -74 82 -74 603 l0 453 243
2 242 3 0 155 0 155 -242 3 -243 2 -2 258 -3 257 -177 3 c-167 2 -178 1 -188
-17z"/>
<path d="M2035 2420 c-382 -53 -625 -300 -691 -700 -23 -137 -14 -353 19 -480
103 -394 382 -610 792 -612 213 -1 402 76 504 205 l30 39 3 -109 3 -108 175
-3 c156 -2 176 -1 187 15 20 26 19 1706 -1 1722 -9 8 -68 11 -187 9 l-174 -3
-3 -103 -3 -104 -62 59 c-145 135 -378 203 -592 173z m276 -330 c189 -36 330
-175 385 -380 23 -88 24 -272 1 -360 -58 -220 -204 -361 -409 -391 -267 -39
-500 121 -564 387 -22 92 -22 268 0 354 36 142 116 262 216 325 103 65 242 89
371 65z"/>
<path d="M4235 2419 c-171 -26 -308 -106 -421 -243 l-49 -59 -5 139 -5 139
-175 3 c-156 2 -176 1 -187 -15 -19 -25 -19 -1691 0 -1716 11 -16 31 -17 187
-15 l175 3 6 470 c5 375 9 483 22 535 50 211 148 344 294 401 77 29 215 32
291 6 74 -26 151 -100 188 -179 l29 -63 5 -585 5 -585 174 -3 c123 -2 178 1
188 9 12 11 14 102 10 638 -4 696 -2 671 -74 815 -69 136 -222 255 -374 290
-86 20 -211 27 -284 15z"/>
<path d="M5730 2420 c-335 -46 -533 -265 -493 -544 31 -220 172 -344 488 -431
323 -89 397 -121 447 -189 54 -74 30 -201 -49 -262 -84 -64 -235 -85 -356 -50
-115 33 -216 126 -272 249 -15 31 -30 59 -35 62 -13 8 -300 -115 -300 -128 0
-23 51 -121 94 -181 163 -229 446 -348 746 -315 357 40 579 268 557 573 -16
219 -127 361 -351 450 -37 15 -154 50 -260 77 -285 73 -366 122 -366 221 0 94
68 157 192 178 176 30 366 -62 424 -204 11 -26 26 -46 34 -46 8 0 77 25 153
57 94 39 137 62 137 72 0 28 -46 114 -87 167 -50 62 -143 134 -227 174 -125
59 -332 90 -476 70z"/>
<path d="M7479 2420 c-372 -47 -656 -290 -746 -639 -82 -321 -3 -662 205 -882
118 -126 272 -212 446 -251 106 -23 297 -27 391 -9 368 74 621 317 703 676 22
97 22 336 -1 427 -87 351 -330 592 -668 662 -96 20 -245 27 -330 16z m240
-335 c234 -56 382 -246 398 -515 19 -328 -160 -574 -447 -612 -334 -43 -590
203 -590 567 0 385 292 641 639 560z"/>
<path d="M4 317 c-2 -7 -3 -78 -2 -157 l3 -145 623 -3 623 -2 -3 157 -3 158
-618 3 c-500 2 -619 0 -623 -11z"/>
</g>
</svg>
