<?xml version="1.0" standalone="no"?>
<!DOCTYPE svg PUBLIC "-//W3C//DTD SVG 20010904//EN"
 "http://www.w3.org/TR/2001/REC-SVG-20010904/DTD/svg10.dtd">
<svg version="1.0" xmlns="http://www.w3.org/2000/svg"
 width="1024.000000pt" height="307.000000pt" viewBox="0 0 1024.000000 307.000000"
 preserveAspectRatio="xMidYMid meet">

<g transform="translate(0.000000,307.000000) scale(0.100000,-0.100000)"
fill="#000000" stroke="none">
<path d="M290 1828 c0 -1063 -1 -1038 63 -1173 100 -209 297 -341 550 -370
l57 -6 0 55 0 55 -37 6 c-105 16 -154 30 -218 64 -86 44 -179 135 -222 217
-63 118 -63 122 -63 731 l0 553 270 0 270 0 0 55 0 55 -270 0 -270 0 0 360 0
360 -65 0 -65 0 0 -962z"/>
<path d="M1957 2110 c-361 -65 -666 -348 -753 -700 -28 -112 -26 -326 4 -440
68 -255 259 -491 497 -610 146 -74 227 -92 410 -93 168 -1 270 18 389 72 253
115 460 365 528 638 30 122 30 332 -1 448 -68 255 -254 481 -498 604 -119 59
-222 83 -383 87 -80 1 -167 -1 -193 -6z m388 -130 c136 -43 221 -96 331 -205
192 -190 265 -375 251 -636 -11 -205 -87 -371 -241 -525 -143 -143 -283 -212
-472 -234 -313 -35 -610 113 -788 393 -78 122 -116 256 -116 410 0 232 79 419
249 587 122 122 244 190 396 224 101 23 297 16 390 -14z"/>
<path d="M5625 2114 c-233 -36 -395 -110 -548 -253 -216 -203 -320 -479 -287
-762 24 -213 102 -376 255 -538 188 -198 380 -288 640 -298 279 -11 489 64
683 243 l63 59 -3 98 -3 98 -57 -70 c-110 -134 -288 -251 -445 -292 -232 -60
-424 -26 -634 113 -43 29 -79 57 -79 63 0 5 278 282 616 615 l616 605 -80 75
c-120 113 -257 187 -413 225 -64 15 -268 27 -324 19z m291 -134 c44 -11 107
-33 141 -49 64 -31 170 -99 191 -123 9 -12 -90 -116 -553 -579 -311 -310 -570
-564 -575 -564 -18 0 -93 110 -133 194 -93 197 -101 444 -20 635 108 257 366
464 628 506 83 13 228 4 321 -20z"/>
<path d="M7322 2100 c-109 -29 -207 -85 -283 -160 -36 -36 -73 -76 -82 -90
-15 -24 -16 -19 -16 103 l-1 127 -65 0 -65 0 0 -885 0 -885 65 0 65 0 0 615
c0 408 4 632 11 667 38 181 207 354 394 403 159 41 351 -11 473 -128 l32 -31
0 81 0 81 -51 32 c-91 59 -171 82 -294 86 -87 3 -125 0 -183 -16z"/>
<path d="M8880 2113 c-65 -11 -181 -44 -234 -68 -243 -108 -454 -347 -527
-597 -30 -105 -37 -315 -14 -429 36 -179 115 -326 250 -467 130 -137 276 -224
438 -262 373 -87 724 30 959 319 144 179 208 360 208 593 0 255 -80 446 -265
633 -151 153 -282 227 -468 266 -86 17 -274 24 -347 12z m304 -117 c276 -53
532 -285 615 -559 119 -391 -60 -804 -424 -982 -122 -60 -202 -78 -350 -77
-238 1 -417 81 -591 265 -297 312 -295 784 5 1099 140 148 283 230 449 258 78
13 215 11 296 -4z"/>
<path d="M3400 2025 l0 -55 450 -2 450 -3 -500 -823 c-275 -453 -500 -825
-500 -828 0 -2 275 -4 611 -4 l610 0 -3 53 -3 52 -498 5 -497 5 500 820 c275
451 500 823 500 828 0 4 -252 7 -560 7 l-560 0 0 -55z"/>
</g>
</svg>
